<svg width="28" height="25" viewBox="0 0 28 25" fill="none" xmlns="http://www.w3.org/2000/svg">
<circle cx="15.5" cy="12.5" r="12.5" fill="#3C8DEF" fill-opacity="0.4"/>
<path d="M12.5 25C10.0277 25 7.61099 24.2669 5.55538 22.8934C3.49976 21.5199 1.89761 19.5676 0.951511 17.2835C0.00541604 14.9995 -0.242126 12.4861 0.24019 10.0614C0.722505 7.63661 1.91301 5.40932 3.66117 3.66117C5.40933 1.91301 7.63661 0.722501 10.0614 0.240186C12.4861 -0.242129 14.9995 0.00541222 17.2835 0.951508C19.5676 1.8976 21.5199 3.49976 22.8934 5.55537C24.2669 7.61099 25 10.0277 25 12.5C24.9963 15.8141 23.6781 18.9913 21.3347 21.3347C18.9913 23.6781 15.8141 24.9963 12.5 25V25ZM12.5 1.563C10.3366 1.563 8.22184 2.20453 6.42307 3.40646C4.62431 4.60838 3.22236 6.31672 2.39452 8.31544C1.56667 10.3142 1.35012 12.5135 1.77225 14.6353C2.19438 16.7571 3.23622 18.706 4.76603 20.2357C6.29583 21.7654 8.24489 22.807 10.3667 23.229C12.4886 23.6509 14.6879 23.4341 16.6865 22.6061C18.6851 21.7781 20.3933 20.376 21.5951 18.5771C22.7969 16.7782 23.4382 14.6634 23.438 12.5C23.4346 9.60021 22.281 6.82019 20.2305 4.76982C18.1799 2.71945 15.3998 1.56618 12.5 1.563V1.563Z" fill="#3C8DEF"/>
<path d="M17.9692 19.271C17.8667 19.2713 17.765 19.2512 17.6703 19.2118C17.5755 19.1725 17.4895 19.1148 17.4172 19.042L11.9482 13.573C11.8017 13.4266 11.7194 13.2281 11.7192 13.021V5.729C11.7192 5.52173 11.8016 5.32296 11.9481 5.1764C12.0947 5.02984 12.2935 4.9475 12.5007 4.9475C12.708 4.9475 12.9068 5.02984 13.0533 5.1764C13.1999 5.32296 13.2822 5.52173 13.2822 5.729V12.697L18.5222 17.937C18.6312 18.0464 18.7054 18.1855 18.7354 18.337C18.7654 18.4884 18.7499 18.6453 18.6909 18.788C18.6319 18.9307 18.5319 19.0527 18.4037 19.1386C18.2754 19.2246 18.1246 19.2706 17.9702 19.271H17.9692Z" fill="#3C8DEF"/>
</svg>
