<svg width="30" height="25" viewBox="0 0 30 25" fill="none" xmlns="http://www.w3.org/2000/svg">
<path d="M28.2684 1.8H25.0604C25.0717 1.44467 25.0777 1.08733 25.0784 0.728001C25.0773 0.534383 24.9996 0.349071 24.8622 0.212629C24.7248 0.0761883 24.539 -0.0002667 24.3454 6.99059e-07H8.65535C8.46121 6.99059e-07 8.27502 0.0771219 8.13775 0.214399C8.00047 0.351675 7.92335 0.537862 7.92335 0.732001C7.92335 1.09133 7.92935 1.44867 7.94135 1.804H4.73235C4.63614 1.804 4.54087 1.82297 4.45199 1.85982C4.36312 1.89667 4.28238 1.95067 4.21439 2.01875C4.14641 2.08683 4.09251 2.16764 4.05578 2.25657C4.01906 2.3455 4.00022 2.44079 4.00035 2.537C3.94261 5.61606 4.78169 8.64543 6.41535 11.256C7.01801 12.2969 7.85784 13.1808 8.86655 13.8359C9.87525 14.491 11.0243 14.8988 12.2204 15.026C12.6851 15.541 13.2188 15.9893 13.8063 16.358V19.613H12.5784C11.8643 19.6146 11.18 19.8989 10.6752 20.4038C10.1703 20.9087 9.88593 21.593 9.88435 22.307V23.536H9.83235C9.63808 23.536 9.45177 23.6132 9.31439 23.7505C9.17702 23.8879 9.09985 24.0742 9.09985 24.2685C9.09985 24.4628 9.17702 24.6491 9.31439 24.7865C9.45177 24.9238 9.63808 25.001 9.83235 25.001H23.1684C23.3626 25.001 23.5489 24.9238 23.6863 24.7865C23.8237 24.6491 23.9009 24.4628 23.9009 24.2685C23.9009 24.0742 23.8237 23.8879 23.6863 23.7505C23.5489 23.6132 23.3626 23.536 23.1684 23.536H23.1164V22.306C23.1148 21.592 22.8304 20.9077 22.3255 20.4028C21.8207 19.8979 21.1364 19.6136 20.4224 19.612H19.1944V16.357C19.7819 15.9883 20.3157 15.54 20.7804 15.025C21.9764 14.8978 23.1254 14.49 24.1342 13.8349C25.1429 13.1798 25.9827 12.2959 26.5854 11.255C28.2188 8.64472 29.0579 5.61572 29.0004 2.537C29.001 2.44045 28.9826 2.34473 28.9461 2.25534C28.9096 2.16595 28.8558 2.08467 28.7877 2.01616C28.7197 1.94766 28.6388 1.89329 28.5496 1.8562C28.4605 1.8191 28.3649 1.8 28.2684 1.8ZM7.63535 10.444C6.28389 8.29008 5.53934 5.81111 5.48035 3.269H8.02235C8.21487 6.3481 8.98778 9.36304 10.3004 12.155C10.4957 12.5457 10.6997 12.9147 10.9124 13.262C9.55239 12.6882 8.40639 11.7027 7.63535 10.444ZM25.3664 10.444C24.5958 11.7024 23.4506 12.6878 22.0914 13.262C22.3034 12.914 22.5074 12.545 22.7034 12.155C24.0147 9.36311 24.7866 6.34855 24.9784 3.27H27.5204C27.4615 5.81167 26.7173 8.29027 25.3664 10.444Z" fill="#3C8DEF" fill-opacity="0.4"/>
<path d="M25.2684 1.8H22.0604C22.0717 1.44467 22.0777 1.08733 22.0784 0.728001C22.0773 0.534383 21.9996 0.349071 21.8622 0.212629C21.7248 0.0761883 21.539 -0.0002667 21.3454 6.99059e-07H5.65535C5.46121 6.99059e-07 5.27502 0.0771219 5.13775 0.214399C5.00047 0.351675 4.92335 0.537862 4.92335 0.732001C4.92335 1.09133 4.92935 1.44867 4.94135 1.804H1.73235C1.63614 1.804 1.54087 1.82297 1.45199 1.85982C1.36312 1.89667 1.28238 1.95067 1.21439 2.01875C1.14641 2.08683 1.09251 2.16764 1.05578 2.25657C1.01906 2.3455 1.00022 2.44079 1.00035 2.537C0.942609 5.61606 1.78169 8.64543 3.41535 11.256C4.01801 12.2969 4.85784 13.1808 5.86655 13.8359C6.87525 14.491 8.02434 14.8988 9.22035 15.026C9.68505 15.541 10.2188 15.9893 10.8063 16.358V19.613H9.57835C8.86434 19.6146 8.18004 19.8989 7.67516 20.4038C7.17028 20.9087 6.88593 21.593 6.88435 22.307V23.536H6.83235C6.63808 23.536 6.45177 23.6132 6.31439 23.7505C6.17702 23.8879 6.09985 24.0742 6.09985 24.2685C6.09985 24.4628 6.17702 24.6491 6.31439 24.7865C6.45177 24.9238 6.63808 25.001 6.83235 25.001H20.1684C20.3626 25.001 20.5489 24.9238 20.6863 24.7865C20.8237 24.6491 20.9009 24.4628 20.9009 24.2685C20.9009 24.0742 20.8237 23.8879 20.6863 23.7505C20.5489 23.6132 20.3626 23.536 20.1684 23.536H20.1164V22.306C20.1148 21.592 19.8304 20.9077 19.3255 20.4028C18.8207 19.8979 18.1364 19.6136 17.4224 19.612H16.1944V16.357C16.782 15.9883 17.3157 15.5401 17.7804 15.025C18.9764 14.8978 20.1254 14.49 21.1342 13.8349C22.1429 13.1798 22.9827 12.2959 23.5854 11.255C25.2189 8.64474 26.058 5.61572 26.0004 2.537C26.001 2.44045 25.9826 2.34473 25.9461 2.25534C25.9096 2.16595 25.8558 2.08467 25.7877 2.01616C25.7197 1.94766 25.6388 1.89329 25.5496 1.8562C25.4605 1.8191 25.3649 1.8 25.2684 1.8ZM4.63535 10.444C3.28389 8.29008 2.53934 5.81111 2.48035 3.269H5.02235C5.21485 6.3481 5.98776 9.36305 7.30035 12.155C7.49568 12.5457 7.69968 12.9147 7.91235 13.262C6.55239 12.6882 5.40639 11.7027 4.63535 10.444ZM18.6524 22.306V23.535H8.34935V22.306C8.34961 21.9801 8.47918 21.6677 8.70961 21.4373C8.94003 21.2068 9.25248 21.0773 9.57835 21.077H17.4234C17.7492 21.0773 18.0617 21.2068 18.2921 21.4373C18.5225 21.6677 18.6521 21.9801 18.6524 22.306ZM14.7303 19.612H12.2713V16.994C13.0766 17.2089 13.9241 17.2089 14.7294 16.994L14.7303 19.612ZM15.1844 15.251C15.1515 15.2646 15.1198 15.2807 15.0893 15.299C14.5997 15.5555 14.0551 15.6895 13.5023 15.6895C12.9496 15.6895 12.405 15.5555 11.9153 15.299C11.8833 15.2801 11.8499 15.2638 11.8153 15.25C11.1849 14.9 10.624 14.4373 10.1603 13.885C10.133 13.8457 10.1018 13.8092 10.0674 13.776C9.49359 13.0771 9.0039 12.3132 8.60835 11.5C7.1619 8.35182 6.4089 4.92956 6.40035 1.465H20.6004C20.5916 4.92954 19.8387 8.35177 18.3924 11.5C17.9966 12.3139 17.5065 13.0785 16.9324 13.778C16.8975 13.8111 16.866 13.8476 16.8384 13.887C16.3746 14.439 15.8137 14.9013 15.1833 15.251H15.1844ZM22.3674 10.444C21.5968 11.7024 20.4516 12.6878 19.0924 13.262C19.3043 12.9147 19.5084 12.5457 19.7044 12.155C21.0157 9.36312 21.7876 6.34855 21.9794 3.27H24.5204C24.4615 5.81167 23.7173 8.29027 22.3664 10.444H22.3674Z" fill="#3C8DEF"/>
</svg>
