<svg width="22" height="26" viewBox="0 0 22 26" fill="none" xmlns="http://www.w3.org/2000/svg">
<path d="M2 2.72247C2 2.26565 2.16299 1.82753 2.4531 1.5045C2.74322 1.18147 3.1367 1 3.54699 1H20.0344C20.4447 1 20.8382 1.18147 21.1283 1.5045C21.4184 1.82753 21.5814 2.26565 21.5814 2.72247L21.5 19.5L15.7876 25.1393H3.54699C3.1367 25.1393 2.74322 24.9579 2.4531 24.6348C2.16299 24.3118 2 23.8737 2 23.4169V2.72247Z" fill="#3C8DEF" fill-opacity="0.4"/>
<path d="M3.71046 4.44787H4.48396C4.58308 4.44217 4.67645 4.39431 4.74479 4.31418C4.81314 4.23405 4.85124 4.12776 4.85124 4.01725C4.85124 3.90674 4.81314 3.80045 4.74479 3.72032C4.67645 3.64019 4.58308 3.59233 4.48396 3.58663H3.71046C3.658 3.58362 3.60552 3.59252 3.55624 3.61279C3.50696 3.63307 3.4619 3.6643 3.42381 3.70459C3.38571 3.74487 3.35537 3.79336 3.33464 3.84712C3.31391 3.90087 3.30322 3.95875 3.30322 4.01725C3.30322 4.07575 3.31391 4.13364 3.33464 4.18739C3.35537 4.24114 3.38571 4.28963 3.42381 4.32992C3.4619 4.3702 3.50696 4.40143 3.55624 4.42171C3.60552 4.44199 3.658 4.45089 3.71046 4.44787V4.44787Z" fill="#3C8DEF"/>
<path d="M17.6475 3.58663H6.03322C5.98075 3.58362 5.92828 3.59252 5.879 3.61279C5.82972 3.63307 5.78466 3.6643 5.74656 3.70459C5.70846 3.74487 5.67813 3.79336 5.6574 3.84712C5.63667 3.90087 5.62598 3.95875 5.62598 4.01725C5.62598 4.07575 5.63667 4.13364 5.6574 4.18739C5.67813 4.24114 5.70846 4.28963 5.74656 4.32992C5.78466 4.3702 5.82972 4.40143 5.879 4.42171C5.92828 4.44199 5.98075 4.45089 6.03322 4.44787H17.6475C17.7466 4.44217 17.84 4.39431 17.9083 4.31418C17.9767 4.23405 18.0148 4.12776 18.0148 4.01725C18.0148 3.90674 17.9767 3.80045 17.9083 3.72032C17.84 3.64019 17.7466 3.59233 17.6475 3.58663V3.58663Z" fill="#3C8DEF"/>
<path d="M3.71006 7.03384H4.48355C4.58267 7.02814 4.67604 6.98029 4.74439 6.90016C4.81273 6.82003 4.85084 6.71373 4.85084 6.60323C4.85084 6.49272 4.81273 6.38643 4.74439 6.3063C4.67604 6.22616 4.58267 6.17831 4.48355 6.17261H3.71006C3.61094 6.17831 3.51757 6.22616 3.44923 6.3063C3.38088 6.38643 3.34277 6.49272 3.34277 6.60323C3.34277 6.71373 3.38088 6.82003 3.44923 6.90016C3.51757 6.98029 3.61094 7.02814 3.71006 7.03384V7.03384Z" fill="#3C8DEF"/>
<path d="M6.03322 7.03381H14.9377C15.0368 7.02811 15.1302 6.98025 15.1985 6.90012C15.2669 6.81999 15.305 6.7137 15.305 6.60319C15.305 6.49268 15.2669 6.38639 15.1985 6.30626C15.1302 6.22613 15.0368 6.17827 14.9377 6.17257H6.03322C5.98075 6.16955 5.92828 6.17845 5.879 6.19873C5.82972 6.21901 5.78466 6.25024 5.74656 6.29052C5.70846 6.33081 5.67813 6.3793 5.6574 6.43305C5.63667 6.48681 5.62598 6.54469 5.62598 6.60319C5.62598 6.66169 5.63667 6.71957 5.6574 6.77333C5.67813 6.82708 5.70846 6.87557 5.74656 6.91585C5.78466 6.95614 5.82972 6.98737 5.879 7.00765C5.92828 7.02793 5.98075 7.03683 6.03322 7.03381Z" fill="#3C8DEF"/>
<path d="M3.71046 9.62036H4.48396C4.58308 9.61466 4.67645 9.5668 4.74479 9.48667C4.81314 9.40654 4.85124 9.30025 4.85124 9.18974C4.85124 9.07923 4.81314 8.97294 4.74479 8.89281C4.67645 8.81268 4.58308 8.76482 4.48396 8.75912H3.71046C3.658 8.7561 3.60552 8.765 3.55624 8.78528C3.50696 8.80556 3.4619 8.83679 3.42381 8.87707C3.38571 8.91736 3.35537 8.96585 3.33464 9.0196C3.31391 9.07335 3.30322 9.13124 3.30322 9.18974C3.30322 9.24824 3.31391 9.30612 3.33464 9.35987C3.35537 9.41363 3.38571 9.46212 3.42381 9.5024C3.4619 9.54269 3.50696 9.57392 3.55624 9.5942C3.60552 9.61447 3.658 9.62337 3.71046 9.62036V9.62036Z" fill="#3C8DEF"/>
<path d="M6.03322 9.62036H8.3537C8.45282 9.61466 8.54619 9.5668 8.61454 9.48667C8.68288 9.40654 8.72099 9.30025 8.72099 9.18974C8.72099 9.07923 8.68288 8.97294 8.61454 8.89281C8.54619 8.81268 8.45282 8.76482 8.3537 8.75912H6.03322C5.98075 8.7561 5.92828 8.765 5.879 8.78528C5.82972 8.80556 5.78466 8.83679 5.74656 8.87707C5.70846 8.91736 5.67813 8.96585 5.6574 9.0196C5.63667 9.07335 5.62598 9.13124 5.62598 9.18974C5.62598 9.24824 5.63667 9.30612 5.6574 9.35987C5.67813 9.41363 5.70846 9.46212 5.74656 9.5024C5.78466 9.54269 5.82972 9.57392 5.879 9.5942C5.92828 9.61447 5.98075 9.62337 6.03322 9.62036Z" fill="#3C8DEF"/>
<path d="M0.751 25.502C1.16577 25.502 1.502 25.1658 1.502 24.751C1.502 24.3362 1.16577 24 0.751 24C0.336234 24 0 24.3362 0 24.751C0 25.1658 0.336234 25.502 0.751 25.502Z" fill="#3C8DEF"/>
<path d="M0.00100005 22.0387C0.0109293 22.231 0.0942785 22.412 0.233842 22.5446C0.373406 22.6771 0.55853 22.751 0.751 22.751C0.943471 22.751 1.12859 22.6771 1.26816 22.5446C1.40772 22.412 1.49107 22.231 1.501 22.0387V17.7897C1.50626 17.688 1.49075 17.5862 1.45544 17.4907C1.42012 17.3951 1.36572 17.3077 1.29556 17.2338C1.2254 17.16 1.14094 17.1011 1.04732 17.0609C0.953705 17.0207 0.852885 17 0.751 17C0.649115 17 0.548295 17.0207 0.454677 17.0609C0.361058 17.1011 0.276598 17.16 0.206438 17.2338C0.136277 17.3077 0.0818821 17.3951 0.0465642 17.4907C0.0112464 17.5862 -0.00425602 17.688 0.00100005 17.7897V22.0387Z" fill="#3C8DEF"/>
<path d="M16.786 0H3.755C2.7597 0.00105883 1.80547 0.396908 1.10169 1.10069C0.397908 1.80447 0.0020589 2.7587 0.00100008 3.754V15.523C-0.00425599 15.6248 0.0112459 15.7265 0.0465638 15.8221C0.0818816 15.9176 0.136276 16.005 0.206437 16.0789C0.276598 16.1528 0.361058 16.2116 0.454676 16.2518C0.548295 16.292 0.649115 16.3127 0.751 16.3127C0.852885 16.3127 0.953704 16.292 1.04732 16.2518C1.14094 16.2116 1.2254 16.1528 1.29556 16.0789C1.36572 16.005 1.42012 15.9176 1.45544 15.8221C1.49075 15.7265 1.50626 15.6248 1.501 15.523V3.754C1.50074 3.45793 1.55886 3.16471 1.67204 2.89112C1.78522 2.61753 1.95124 2.36895 2.16059 2.15959C2.36995 1.95024 2.61853 1.78422 2.89212 1.67104C3.16571 1.55786 3.45893 1.49974 3.755 1.5H16.786C17.3833 1.5 17.9561 1.73726 18.3784 2.1596C18.8007 2.58193 19.038 3.15473 19.038 3.752V18.032H16.783C15.7877 18.0331 14.8335 18.4289 14.1297 19.1327C13.4259 19.8365 13.0301 20.7907 13.029 21.786V24.041H3.01C2.90825 24.0357 2.8065 24.0512 2.71093 24.0866C2.61536 24.1219 2.52798 24.1763 2.4541 24.2464C2.38022 24.3166 2.32139 24.4011 2.28119 24.4947C2.24099 24.5883 2.22026 24.6891 2.22026 24.791C2.22026 24.8929 2.24099 24.9937 2.28119 25.0873C2.32139 25.1809 2.38022 25.2654 2.4541 25.3356C2.52798 25.4057 2.61536 25.4601 2.71093 25.4954C2.8065 25.5308 2.90825 25.5463 3.01 25.541H13.78C13.9792 25.541 14.1702 25.4618 14.311 25.321L20.32 19.312C20.4608 19.1712 20.54 18.9802 20.54 18.781V3.754C20.5389 2.7587 20.1431 1.80447 19.4393 1.10069C18.7355 0.396908 17.7813 0.00105883 16.786 0ZM16.786 19.536H17.98L14.534 22.982V21.788C14.534 21.1913 14.7709 20.6189 15.1925 20.1967C15.6142 19.7744 16.1863 19.5368 16.783 19.536H16.786Z" fill="#3C8DEF"/>
<path d="M17.3878 14.7809C17.2851 14.7809 17.1866 14.8263 17.1139 14.9072C17.0413 14.988 17.0005 15.0977 17.0005 15.2121V16.0733C16.9978 16.1317 17.0058 16.1902 17.024 16.245C17.0422 16.2999 17.0703 16.3501 17.1065 16.3925C17.1426 16.4349 17.1862 16.4687 17.2345 16.4918C17.2827 16.5148 17.3347 16.5268 17.3873 16.5268C17.4398 16.5268 17.4918 16.5148 17.5401 16.4918C17.5883 16.4687 17.6319 16.4349 17.6681 16.3925C17.7043 16.3501 17.7323 16.2999 17.7505 16.245C17.7687 16.1902 17.7767 16.1317 17.774 16.0733V15.2121C17.774 15.0979 17.7334 14.9884 17.6609 14.9076C17.5885 14.8268 17.4903 14.7812 17.3878 14.7809V14.7809Z" fill="#3C8DEF"/>
<path d="M17.774 9.45344C17.7767 9.39502 17.7687 9.33659 17.7505 9.28172C17.7323 9.22685 17.7043 9.17668 17.6681 9.13426C17.6319 9.09184 17.5883 9.05807 17.5401 9.03498C17.4918 9.0119 17.4398 9 17.3873 9C17.3347 9 17.2827 9.0119 17.2345 9.03498C17.1862 9.05807 17.1426 9.09184 17.1065 9.13426C17.0703 9.17668 17.0422 9.22685 17.024 9.28172C17.0058 9.33659 16.9978 9.39502 17.0005 9.45344V13.4884C17.0056 13.5988 17.0486 13.7027 17.1206 13.7788C17.1926 13.8549 17.288 13.8974 17.3873 13.8974C17.4865 13.8974 17.582 13.8549 17.6539 13.7788C17.7259 13.7027 17.7689 13.5988 17.774 13.4884V9.45344Z" fill="#3C8DEF"/>
</svg>
