<svg width="26" height="25" viewBox="0 0 26 25" fill="none" xmlns="http://www.w3.org/2000/svg">
<path d="M14.9621 0C13.6583 0 12.3838 0.386614 11.2998 1.11095C10.2158 1.83529 9.37084 2.86482 8.87191 4.06935C8.37297 5.27388 8.24243 6.59931 8.49678 7.87804C8.75114 9.15676 9.37897 10.3313 10.3009 11.2532C11.2228 12.1752 12.3974 12.803 13.6761 13.0573C14.9548 13.3117 16.2802 13.1811 17.4848 12.6822C18.6893 12.1833 19.7188 11.3384 20.4432 10.2543C21.1675 9.17027 21.5541 7.89577 21.5541 6.592C21.552 4.84434 20.8568 3.16887 19.621 1.93309C18.3853 0.697309 16.7098 0.00211709 14.9621 0V0Z" fill="#3C8DEF" fill-opacity="0.3"/>
<path d="M23.1631 17.49C22.2869 16.5903 21.2394 15.8752 20.0823 15.3871C18.9252 14.899 17.682 14.6477 16.4261 14.648H13.4961C12.2403 14.6477 10.9971 14.899 9.83995 15.3871C8.68284 15.8752 7.63527 16.5903 6.75911 17.49C4.97234 19.2926 3.97147 21.7289 3.97511 24.267C3.97511 24.4611 4.05223 24.6473 4.1895 24.7846C4.32678 24.9219 4.51297 24.999 4.70711 24.999H25.2151C25.4092 24.999 25.5954 24.9219 25.7327 24.7846C25.87 24.6473 25.9471 24.4611 25.9471 24.267C25.9507 21.7289 24.9499 19.2926 23.1631 17.49Z" fill="#3C8DEF" fill-opacity="0.3"/>
<path d="M11.9621 0C10.6583 0 9.38385 0.386614 8.2998 1.11095C7.21575 1.83529 6.37084 2.86482 5.87191 4.06935C5.37297 5.27388 5.24243 6.59931 5.49678 7.87804C5.75114 9.15676 6.37897 10.3313 7.30088 11.2532C8.22278 12.1752 9.39736 12.803 10.6761 13.0573C11.9548 13.3117 13.2802 13.1811 14.4848 12.6822C15.6893 12.1833 16.7188 11.3384 17.4432 10.2543C18.1675 9.17027 18.5541 7.89577 18.5541 6.592C18.552 4.84434 17.8568 3.16887 16.621 1.93309C15.3853 0.697309 13.7098 0.00211709 11.9621 0V0ZM11.9621 11.719C10.9481 11.719 9.95684 11.4183 9.11371 10.8549C8.27058 10.2916 7.61344 9.49086 7.22539 8.55402C6.83734 7.61718 6.73581 6.58631 6.93364 5.59177C7.13146 4.59723 7.61976 3.68369 8.33679 2.96666C9.05381 2.24964 9.96735 1.76134 10.9619 1.56351C11.9564 1.36569 12.9873 1.46722 13.9241 1.85527C14.861 2.24332 15.6617 2.90046 16.2251 3.74359C16.7884 4.58672 17.0891 5.57798 17.0891 6.592C17.0875 7.95128 16.5469 9.25443 15.5857 10.2156C14.6245 11.1767 13.3214 11.7174 11.9621 11.719Z" fill="#3C8DEF"/>
<path d="M20.1631 17.49C19.2869 16.5903 18.2394 15.8752 17.0823 15.3871C15.9252 14.899 14.682 14.6477 13.4261 14.648H10.4961C9.24025 14.6477 7.99706 14.899 6.83995 15.3871C5.68284 15.8752 4.63527 16.5903 3.75911 17.49C1.97234 19.2926 0.971469 21.7289 0.975108 24.267C0.975108 24.4611 1.05223 24.6473 1.1895 24.7846C1.32678 24.9219 1.51297 24.999 1.70711 24.999H22.2151C22.4092 24.999 22.5954 24.9219 22.7327 24.7846C22.87 24.6473 22.9471 24.4611 22.9471 24.267C22.9507 21.7289 21.9499 19.2926 20.1631 17.49ZM2.47511 23.535C2.64571 21.5199 3.56338 19.6414 5.04798 18.2681C6.53257 16.8949 8.47684 16.1262 10.4991 16.113H13.4291C15.4514 16.1262 17.3956 16.8949 18.8802 18.2681C20.3648 19.6414 21.2825 21.5199 21.4531 23.535H2.47511Z" fill="#3C8DEF"/>
</svg>
