<svg width="24" height="26" viewBox="0 0 24 26" fill="none" xmlns="http://www.w3.org/2000/svg">
<path d="M23.7662 11.133V25.084H16.4392V16.957H10.2472V25.084H2.92017V11.133L13.3432 1.90503L23.7662 11.133Z" fill="#3C8DEF" fill-opacity="0.4"/>
<path d="M22.3792 9.45802L11.9562 0.230025C11.7864 0.0817604 11.5686 6.10352e-05 11.3432 6.10352e-05C11.1178 6.10352e-05 10.9 0.0817604 10.7302 0.230025L0.307227 9.45802C0.12111 9.6342 0.0109842 9.87598 0.000227351 10.132V24.081C-0.00250547 24.2026 0.0194231 24.3234 0.06469 24.4363C0.109957 24.5492 0.177623 24.6517 0.263604 24.7376C0.349584 24.8236 0.452096 24.8913 0.564951 24.9366C0.677806 24.9818 0.798663 25.0038 0.920227 25.001H21.7662C21.8878 25.0038 22.0086 24.9818 22.1215 24.9366C22.2344 24.8913 22.3369 24.8236 22.4228 24.7376C22.5088 24.6517 22.5765 24.5492 22.6218 24.4363C22.667 24.3234 22.689 24.2026 22.6862 24.081V10.132C22.6873 10.0041 22.6603 9.87749 22.6073 9.76107C22.5542 9.64465 22.4764 9.54122 22.3792 9.45802ZM13.5192 23.158H9.16623V16.877H13.5192V23.158ZM20.8462 23.158H15.3592V15.958C15.362 15.8365 15.34 15.7156 15.2948 15.6027C15.2495 15.4899 15.1818 15.3874 15.0958 15.3014C15.0099 15.2154 14.9074 15.1478 14.7945 15.1025C14.6816 15.0572 14.5608 15.0353 14.4392 15.038H8.24723C8.12566 15.0353 8.00481 15.0572 7.89195 15.1025C7.7791 15.1478 7.67658 15.2154 7.5906 15.3014C7.50462 15.3874 7.43696 15.4899 7.39169 15.6027C7.34642 15.7156 7.32449 15.8365 7.32723 15.958V23.158H1.83923V10.558L11.3392 2.15802L20.8392 10.558L20.8462 23.158Z" fill="#3C8DEF"/>
</svg>
