<svg width="21" height="10" viewBox="0 0 21 10" fill="none" xmlns="http://www.w3.org/2000/svg">
<path d="M19.838 4.19394H2.75897L5.58797 1.37894C5.73955 1.22803 5.82496 1.02309 5.82543 0.809206C5.8259 0.595321 5.74138 0.390007 5.59047 0.238436C5.43957 0.0868646 5.23463 0.00144736 5.02074 0.000978503C4.80686 0.00050965 4.60155 0.0850252 4.44997 0.235933L0.236974 4.42793C0.161928 4.50288 0.102392 4.59191 0.0617722 4.68988C0.021152 4.78786 0.000244141 4.89287 0.000244141 4.99893C0.000244141 5.105 0.021152 5.21002 0.0617722 5.308C0.102392 5.40598 0.161928 5.495 0.236974 5.56995L4.45097 9.76395C4.60255 9.91486 4.80786 9.99937 5.02174 9.9989C5.23563 9.99843 5.44057 9.91302 5.59147 9.76145C5.74238 9.60987 5.8269 9.40456 5.82643 9.19068C5.82596 8.97679 5.74055 8.77185 5.58897 8.62094L2.75997 5.80594H19.838C20.0519 5.80594 20.257 5.72097 20.4083 5.56972C20.5595 5.41847 20.6445 5.21333 20.6445 4.99944C20.6445 4.78554 20.5595 4.5804 20.4083 4.42916C20.257 4.27791 20.0519 4.19293 19.838 4.19293V4.19394Z" fill="#3D3D74"/>
</svg>
