<svg width="32" height="36" viewBox="0 0 32 36" fill="none" xmlns="http://www.w3.org/2000/svg">
<path d="M9.144 16.132L1.5 30.532L8.441 29.891L11.8 35.999L19.444 21.599L9.144 16.132Z" fill="#599BF0"/>
<path d="M23.4421 16.132L31.0861 30.532L24.1451 29.891L20.7861 35.999L13.1421 21.599L23.4421 16.132Z" fill="#599BF0"/>
<path d="M16.293 26.544C23.3468 26.544 29.065 20.8258 29.065 13.772C29.065 6.71822 23.3468 1 16.293 1C9.23922 1 3.521 6.71822 3.521 13.772C3.521 20.8258 9.23922 26.544 16.293 26.544Z" fill="#FFBBA0"/>
<path d="M28.1108 30.239L23.9658 23.056C25.7068 21.185 26.8637 18.8465 27.2945 16.3274C27.7253 13.8082 27.4113 11.2181 26.391 8.87497C25.3706 6.53179 23.6884 4.53747 21.5508 3.13677C19.4131 1.73607 16.913 0.989929 14.3573 0.989929C11.8016 0.989929 9.30155 1.73607 7.16389 3.13677C5.02623 4.53747 3.34401 6.53179 2.32369 8.87497C1.30337 11.2181 0.989338 13.8082 1.42014 16.3274C1.85094 18.8465 3.00783 21.185 4.74883 23.056L0.600828 30.24C0.528628 30.3648 0.495095 30.5083 0.504472 30.6523C0.513849 30.7962 0.565711 30.9341 0.653501 31.0486C0.741291 31.163 0.861062 31.2489 0.997651 31.2952C1.13424 31.3416 1.28151 31.3464 1.42083 31.309L7.09183 29.79L8.61083 35.46C8.64816 35.5992 8.72594 35.7243 8.83434 35.8193C8.94274 35.9144 9.07689 35.9752 9.21983 35.994C9.25298 35.9983 9.28639 36.0003 9.31983 36C9.44795 36 9.57384 35.9663 9.68479 35.9023C9.79575 35.8382 9.88785 35.746 9.95183 35.635L14.3578 27.989L18.7658 35.635C18.8296 35.7457 18.9214 35.8377 19.032 35.9018C19.1426 35.9658 19.268 35.9997 19.3958 36C19.4293 36.0002 19.4627 35.9982 19.4958 35.994C19.6388 35.9752 19.7729 35.9144 19.8813 35.8193C19.9897 35.7243 20.0675 35.5992 20.1048 35.46L21.6238 29.79L27.2948 31.309C27.4341 31.3464 27.5814 31.3416 27.718 31.2952C27.8546 31.2489 27.9744 31.163 28.0622 31.0486C28.1499 30.9341 28.2018 30.7962 28.2112 30.6523C28.2206 30.5083 28.187 30.3648 28.1148 30.24L28.1108 30.239ZM9.56083 33.379L8.30883 28.707C8.25869 28.5203 8.13644 28.3611 7.96897 28.2646C7.80151 28.168 7.60254 28.1419 7.41583 28.192L2.74083 29.444L5.82882 24.1C7.88234 25.8645 10.4331 26.9477 13.1288 27.2L9.56083 33.379ZM2.68783 14.125C2.68783 11.8174 3.37211 9.56169 4.65414 7.64304C5.93617 5.72439 7.75837 4.229 9.89029 3.34598C12.0222 2.46296 14.3681 2.23197 16.6313 2.68223C18.8945 3.13248 20.9734 4.24376 22.605 5.87552C24.2366 7.50728 25.3477 9.58623 25.7978 11.8495C26.2478 14.1127 26.0166 16.4586 25.1334 18.5904C24.2502 20.7223 22.7547 22.5444 20.8359 23.8262C18.9172 25.1081 16.6614 25.7922 14.3538 25.792C11.2608 25.7883 8.29548 24.5578 6.10846 22.3706C3.92143 20.1834 2.69127 17.218 2.68783 14.125ZM21.2928 28.192C21.1061 28.1419 20.9071 28.168 20.7397 28.2646C20.5722 28.3611 20.45 28.5203 20.3998 28.707L19.1468 33.381L15.5738 27.192C18.2713 26.9407 20.824 25.8574 22.8788 24.092L25.9658 29.444L21.2928 28.192Z" fill="#3C8DEF"/>
<path d="M13.0791 14.2173H14.3975C15.7891 14.2173 16.6533 14.9204 16.6533 16.063C16.6533 17.0957 15.7305 17.8281 14.4414 17.8281C13.1084 17.8281 12.2734 17.1323 12.1709 16.1216H10.5962C10.6987 17.9453 12.1636 19.1978 14.4414 19.1978C16.646 19.1978 18.3232 17.9307 18.3232 16.085C18.3232 14.6055 17.2979 13.6313 15.7085 13.5215V13.4922C17.0195 13.2578 17.8838 12.313 17.8838 10.9946C17.8838 9.36865 16.4263 8.2334 14.4268 8.2334C12.332 8.2334 10.9331 9.42725 10.8086 11.2803H12.354C12.4492 10.2402 13.2109 9.58105 14.3535 9.58105C15.606 9.58105 16.2798 10.2329 16.2798 11.2144C16.2798 12.2104 15.4961 12.9282 14.3535 12.9282H13.0791V14.2173Z" fill="#3C8DEF"/>
</svg>
