<svg width="48" height="45" viewBox="0 0 48 45" fill="none" xmlns="http://www.w3.org/2000/svg">
<path d="M25.5 45C37.9264 45 48 34.9264 48 22.5C48 10.0736 37.9264 0 25.5 0C13.0736 0 3 10.0736 3 22.5C3 34.9264 13.0736 45 25.5 45Z" fill="#E24C4B"/>
<path d="M22.5 44C34.3741 44 44 34.3741 44 22.5C44 10.6259 34.3741 1 22.5 1C10.6259 1 1 10.6259 1 22.5C1 34.3741 10.6259 44 22.5 44Z" stroke="#3C8DEF" stroke-width="2"/>
<path d="M24.2899 23.006L33.7199 13.576C33.8064 13.4924 33.8756 13.3926 33.9236 13.2822C33.9716 13.1719 33.9973 13.0532 33.9994 12.9329C34.0015 12.8126 33.9799 12.6931 33.9358 12.5811C33.8917 12.4692 33.826 12.367 33.7424 12.2805C33.6588 12.1939 33.559 12.1247 33.4486 12.0768C33.3383 12.0288 33.2196 12.003 33.0993 12.0009C32.979 11.9988 32.8594 12.0205 32.7475 12.0646C32.6356 12.1087 32.5334 12.1744 32.4469 12.258L32.4249 12.28L22.9939 21.71L13.5639 12.28C13.3915 12.1076 13.1577 12.0107 12.9139 12.0107C12.6701 12.0107 12.4363 12.1076 12.2639 12.28C12.0915 12.4524 11.9946 12.6862 11.9946 12.93C11.9946 13.1738 12.0915 13.4076 12.2639 13.58L21.6939 23.01L12.2639 32.44C12.1785 32.5253 12.1108 32.6267 12.0646 32.7382C12.0184 32.8497 11.9946 32.9693 11.9946 33.09C11.9946 33.2107 12.0184 33.3302 12.0646 33.4418C12.1108 33.5533 12.1785 33.6546 12.2639 33.74C12.3492 33.8253 12.4506 33.8931 12.5621 33.9393C12.6736 33.9855 12.7932 34.0092 12.9139 34.0092C13.0346 34.0092 13.1541 33.9855 13.2656 33.9393C13.3772 33.8931 13.4785 33.8253 13.5639 33.74L22.9939 24.31L32.4239 33.74C32.5963 33.9124 32.8301 34.0092 33.0739 34.0092C33.3177 34.0092 33.5515 33.9124 33.7239 33.74C33.8963 33.5676 33.9931 33.3338 33.9931 33.09C33.9931 32.8462 33.8963 32.6124 33.7239 32.44L24.2899 23.006Z" fill="white" stroke="white"/>
</svg>
