<svg width="48" height="45" viewBox="0 0 48 45" fill="none" xmlns="http://www.w3.org/2000/svg">
<path d="M25.5 45C37.9264 45 48 34.9264 48 22.5C48 10.0736 37.9264 0 25.5 0C13.0736 0 3 10.0736 3 22.5C3 34.9264 13.0736 45 25.5 45Z" fill="#F7AC1A"/>
<path d="M22.5 44C34.3741 44 44 34.3741 44 22.5C44 10.6259 34.3741 1 22.5 1C10.6259 1 1 10.6259 1 22.5C1 34.3741 10.6259 44 22.5 44Z" stroke="#3C8DEF" stroke-width="2"/>
<path d="M22.893 10C22.7757 9.99987 22.6595 10.0229 22.5511 10.0677C22.4427 10.1125 22.3442 10.1783 22.2613 10.2613C22.1783 10.3442 22.1125 10.4427 22.0677 10.5511C22.0229 10.6595 21.9999 10.7757 22 10.893V28.751C22 28.9878 22.0941 29.215 22.2616 29.3824C22.429 29.5499 22.6562 29.644 22.893 29.644C23.1298 29.644 23.357 29.5499 23.5245 29.3824C23.6919 29.215 23.786 28.9878 23.786 28.751V10.89C23.7855 10.6536 23.6911 10.4271 23.5237 10.2602C23.3562 10.0933 23.1294 9.99973 22.893 10Z" fill="white" stroke="white"/>
<path d="M22.893 35C23.3862 35 23.786 34.6002 23.786 34.107C23.786 33.6138 23.3862 33.214 22.893 33.214C22.3998 33.214 22 33.6138 22 34.107C22 34.6002 22.3998 35 22.893 35Z" fill="white" stroke="white"/>
</svg>
