<svg width="48" height="45" viewBox="0 0 48 45" fill="none" xmlns="http://www.w3.org/2000/svg">
<path d="M25.5 45C37.9264 45 48 34.9264 48 22.5C48 10.0736 37.9264 0 25.5 0C13.0736 0 3 10.0736 3 22.5C3 34.9264 13.0736 45 25.5 45Z" fill="#4CAF50"/>
<path d="M22.5 44C34.3741 44 44 34.3741 44 22.5C44 10.6259 34.3741 1 22.5 1C10.6259 1 1 10.6259 1 22.5C1 34.3741 10.6259 44 22.5 44Z" stroke="#3C8DEF" stroke-width="2"/>
<path d="M35.1509 14.359C35.0371 14.2452 34.9021 14.1549 34.7534 14.0932C34.6047 14.0316 34.4453 13.9999 34.2844 13.9999C34.1235 13.9999 33.9641 14.0316 33.8154 14.0932C33.6667 14.1549 33.5317 14.2452 33.4179 14.359L18.7349 29.042L13.0919 23.403C12.8588 23.1923 12.5538 23.0791 12.2397 23.0868C11.9257 23.0945 11.6265 23.2224 11.404 23.4443C11.1816 23.6661 11.0527 23.9649 11.0442 24.2789C11.0356 24.593 11.1479 24.8983 11.3579 25.132L17.8679 31.642C18.0978 31.8717 18.4094 32.0007 18.7344 32.0007C19.0593 32.0007 19.371 31.8717 19.6009 31.642L35.1509 16.093C35.2648 15.9791 35.3551 15.844 35.4167 15.6952C35.4783 15.5465 35.5101 15.387 35.5101 15.226C35.5101 15.065 35.4783 14.9055 35.4167 14.7568C35.3551 14.608 35.2648 14.4728 35.1509 14.359Z" fill="white"/>
</svg>
