<svg width="25" height="22" viewBox="0 0 25 22" fill="none" xmlns="http://www.w3.org/2000/svg">
<path d="M11.192 0C4.942 0 0 4.474 0 9.875C0.0193014 12.2258 0.937826 14.4801 2.567 16.175C2.72851 16.8412 2.71613 17.5376 2.53104 18.1976C2.34595 18.8576 1.99436 19.459 1.51 19.944C1.41817 20.0362 1.3557 20.1536 1.33047 20.2812C1.30524 20.4089 1.31837 20.5412 1.36821 20.6614C1.41805 20.7816 1.50237 20.8844 1.61053 20.9567C1.71869 21.0291 1.84586 21.0678 1.976 21.068C3.84997 21.0645 5.65006 20.3368 7 19.037C8.34465 19.5137 9.76136 19.7552 11.188 19.751C17.455 19.751 22.468 15.264 22.468 9.876C22.468 4.488 17.456 0 11.192 0ZM11.192 18.443C9.78283 18.4451 8.38619 18.1783 7.077 17.657C6.9529 17.6075 6.81669 17.597 6.68647 17.6269C6.55625 17.6567 6.43819 17.7255 6.348 17.824C5.55708 18.6865 4.52911 19.2964 3.393 19.577C4.02224 18.3701 4.16537 16.9681 3.793 15.659C3.76313 15.5545 3.70781 15.4589 3.632 15.381C2.16775 13.9197 1.33328 11.9435 1.307 9.875C1.307 5.156 5.746 1.308 11.191 1.308C16.685 1.308 21.163 5.156 21.163 9.875C21.163 14.594 16.686 18.443 11.192 18.443Z" fill="#3C8DEF"/>
<path d="M5.9252 7.90002C5.53458 7.90002 5.15273 8.01585 4.82794 8.23286C4.50316 8.44988 4.25002 8.75835 4.10053 9.11923C3.95105 9.48012 3.91194 9.87722 3.98815 10.2603C4.06435 10.6434 4.25245 10.9954 4.52866 11.2716C4.80487 11.5478 5.15678 11.7359 5.5399 11.8121C5.92301 11.8883 6.32011 11.8492 6.68099 11.6997C7.04188 11.5502 7.35033 11.2971 7.56735 10.9723C7.78436 10.6475 7.90019 10.2656 7.90019 9.87503C7.89966 9.35139 7.69142 8.84935 7.32115 8.47908C6.95088 8.10881 6.44884 7.90055 5.9252 7.90002ZM5.9252 10.533C5.79506 10.533 5.66784 10.4944 5.55963 10.4221C5.45143 10.3498 5.36709 10.2471 5.31729 10.1268C5.26748 10.0066 5.25445 9.8743 5.27984 9.74666C5.30523 9.61902 5.3679 9.50177 5.45992 9.40974C5.55195 9.31772 5.66919 9.25506 5.79683 9.22968C5.92447 9.20429 6.05677 9.2173 6.177 9.26711C6.29724 9.31691 6.4 9.40125 6.47231 9.50946C6.54461 9.61767 6.5832 9.74489 6.5832 9.87503C6.58294 10.0495 6.51353 10.2167 6.39018 10.34C6.26684 10.4634 6.09963 10.5328 5.9252 10.533Z" fill="#3C8DEF"/>
<path d="M11.1918 7.90002C10.8012 7.90002 10.4193 8.01585 10.0945 8.23286C9.76976 8.44988 9.51662 8.75835 9.36714 9.11923C9.21766 9.48012 9.17854 9.87722 9.25474 10.2603C9.33095 10.6434 9.51905 10.9954 9.79526 11.2716C10.0715 11.5478 10.4234 11.7359 10.8065 11.8121C11.1896 11.8883 11.5867 11.8492 11.9476 11.6997C12.3085 11.5502 12.6169 11.2971 12.834 10.9723C13.051 10.6475 13.1668 10.2656 13.1668 9.87503C13.1663 9.35139 12.958 8.84935 12.5878 8.47908C12.2175 8.10881 11.7154 7.90055 11.1918 7.90002ZM11.1918 10.533C11.0617 10.533 10.9344 10.4944 10.8262 10.4221C10.718 10.3498 10.6337 10.2471 10.5839 10.1268C10.5341 10.0066 10.5211 9.8743 10.5464 9.74666C10.5718 9.61902 10.6345 9.50177 10.7265 9.40974C10.8185 9.31772 10.9358 9.25506 11.0634 9.22968C11.1911 9.20429 11.3234 9.2173 11.4436 9.26711C11.5638 9.31691 11.6666 9.40125 11.7389 9.50946C11.8112 9.61767 11.8498 9.74489 11.8498 9.87503C11.8495 10.0495 11.7801 10.2167 11.6568 10.34C11.5334 10.4634 11.3662 10.5328 11.1918 10.533Z" fill="#3C8DEF"/>
<path d="M16.5473 7.90002C16.1566 7.90002 15.7748 8.01585 15.45 8.23286C15.1252 8.44988 14.8721 8.75835 14.7226 9.11923C14.5731 9.48012 14.534 9.87722 14.6102 10.2603C14.6864 10.6434 14.8745 10.9954 15.1507 11.2716C15.4269 11.5478 15.7788 11.7359 16.1619 11.8121C16.5451 11.8883 16.9422 11.8492 17.3031 11.6997C17.6639 11.5502 17.9724 11.2971 18.1894 10.9723C18.4064 10.6475 18.5223 10.2656 18.5223 9.87503C18.5217 9.35139 18.3135 8.84935 17.9432 8.47908C17.5729 8.10881 17.0709 7.90055 16.5473 7.90002ZM16.5473 10.533C16.4171 10.533 16.2899 10.4944 16.1817 10.4221C16.0735 10.3498 15.9892 10.2471 15.9394 10.1268C15.8896 10.0066 15.8765 9.8743 15.9019 9.74666C15.9273 9.61902 15.99 9.50177 16.082 9.40974C16.174 9.31772 16.2912 9.25506 16.4189 9.22968C16.5465 9.20429 16.6788 9.2173 16.7991 9.26711C16.9193 9.31691 17.0221 9.40125 17.0944 9.50946C17.1667 9.61767 17.2053 9.74489 17.2053 9.87503C17.205 10.0495 17.1356 10.2167 17.0122 10.34C16.8889 10.4634 16.7217 10.5328 16.5473 10.533Z" fill="#3C8DEF"/>
<path d="M13.7203 0C7.54932 0 2.52832 4.43 2.52832 9.875C2.54762 12.2258 3.46615 14.4801 5.09532 16.175C5.25683 16.8412 5.24445 17.5376 5.05936 18.1976C4.87427 18.8576 4.52268 19.459 4.03832 19.944C3.94649 20.0362 3.88402 20.1536 3.85879 20.2812C3.83356 20.4089 3.84669 20.5412 3.89653 20.6614C3.94637 20.7816 4.03069 20.8844 4.13885 20.9567C4.24702 21.0291 4.37418 21.0678 4.50432 21.068C6.37851 21.0646 8.17877 20.3365 9.52832 19.036C10.8732 19.513 12.2903 19.7545 13.7173 19.75C19.8883 19.75 24.9973 15.32 24.9973 9.875C24.9973 4.43 19.8923 0 13.7203 0ZM8.54132 11.85C8.1507 11.85 7.76886 11.7342 7.44407 11.5172C7.11928 11.3001 6.86614 10.9917 6.71666 10.6308C6.56717 10.2699 6.52806 9.87281 6.60427 9.4897C6.68048 9.10658 6.86858 8.75467 7.14478 8.47846C7.42099 8.20226 7.7729 8.01415 8.15602 7.93795C8.53913 7.86174 8.93624 7.90086 9.29712 8.05034C9.658 8.19982 9.96646 8.45296 10.1835 8.77775C10.4005 9.10254 10.5163 9.48438 10.5163 9.875C10.5158 10.3986 10.3075 10.9007 9.93727 11.271C9.567 11.6412 9.06496 11.8495 8.54132 11.85ZM13.8083 11.85C13.4177 11.85 13.0359 11.7342 12.7111 11.5172C12.3863 11.3001 12.1331 10.9917 11.9837 10.6308C11.8342 10.2699 11.7951 9.87281 11.8713 9.4897C11.9475 9.10658 12.1356 8.75467 12.4118 8.47846C12.688 8.20226 13.0399 8.01415 13.423 7.93795C13.8061 7.86174 14.2032 7.90086 14.5641 8.05034C14.925 8.19982 15.2335 8.45296 15.4505 8.77775C15.6675 9.10254 15.7833 9.48438 15.7833 9.875C15.7828 10.3986 15.5745 10.9007 15.2043 11.271C14.834 11.6412 14.332 11.8495 13.8083 11.85ZM19.0753 11.85C18.6847 11.85 18.3029 11.7342 17.9781 11.5172C17.6533 11.3001 17.4001 10.9917 17.2507 10.6308C17.1012 10.2699 17.0621 9.87281 17.1383 9.4897C17.2145 9.10658 17.4026 8.75467 17.6788 8.47846C17.955 8.20226 18.3069 8.01415 18.69 7.93795C19.0731 7.86174 19.4702 7.90086 19.8311 8.05034C20.192 8.19982 20.5005 8.45296 20.7175 8.77775C20.9345 9.10254 21.0503 9.48438 21.0503 9.875C21.0498 10.3986 20.8415 10.9007 20.4713 11.271C20.101 11.6412 19.599 11.8495 19.0753 11.85Z" fill="#599BF0" fill-opacity="0.4"/>
</svg>
