<svg width="165" height="120" viewBox="0 0 165 120" fill="none" xmlns="http://www.w3.org/2000/svg">
<rect y="1.46301" width="164.374" height="118.502"/>
<path d="M86.356 39.126H45.801V79.454H86.356V39.126Z" fill="#9B7EDE"/>
<path d="M86.356 39.126H45.801V43.504H86.356V39.126Z" fill="#66D7D1"/>
<path d="M77.226 74.3329C75.317 74.1712 73.4607 73.6236 71.7697 72.7232C70.0786 71.8228 68.5879 70.5885 67.388 69.095C66.0481 67.3824 65.1239 65.3823 64.688 63.252C63.2962 63.2249 61.9275 62.892 60.6788 62.2769C59.43 61.6619 58.3318 60.7798 57.462 59.6931C56.3054 58.1426 55.6504 56.2756 55.585 54.3423C55.5196 52.4091 56.0468 50.5021 57.096 48.877L57.733 49.304C56.7706 50.7943 56.2868 52.5433 56.3465 54.3163C56.4062 56.0894 57.0065 57.8018 58.067 59.2241C58.8493 60.202 59.8335 60.9996 60.9524 61.5622C62.0712 62.1248 63.2984 62.4392 64.55 62.4839C64.3393 61.1039 64.3393 59.7 64.55 58.32C64.855 56.346 65.992 53.929 68.188 53.61C68.9684 53.5336 69.7527 53.7117 70.4235 54.1177C71.0944 54.5238 71.6158 55.136 71.91 55.863C72.1764 56.5769 72.2649 57.345 72.1681 58.1008C72.0712 58.8566 71.7918 59.5773 71.354 60.201C70.4867 61.4087 69.2556 62.3072 67.841 62.765C67.0758 63.0309 66.2776 63.1897 65.469 63.237C65.893 65.1991 66.7563 67.0396 67.994 68.6201C69.1284 70.0316 70.5376 71.1981 72.1362 72.049C73.7348 72.8999 75.4895 73.4173 77.294 73.57L77.226 74.3329ZM68.603 54.345C68.4985 54.3447 68.3942 54.3524 68.291 54.368C66.51 54.627 65.566 56.72 65.3 58.437C65.0969 59.7775 65.1039 61.1417 65.321 62.48C66.092 62.4437 66.8538 62.2965 67.583 62.043C68.8409 61.6384 69.9372 60.8436 70.713 59.774C71.0806 59.255 71.3166 58.6545 71.4008 58.0241C71.4849 57.3937 71.4146 56.7522 71.196 56.155C70.9808 55.6378 70.6225 55.1928 70.1632 54.8721C69.7039 54.5515 69.1626 54.3687 68.603 54.345Z" fill="white"/>
<path d="M98.3679 63.2401L76.4189 62.893L81.3029 34.71L96.4799 34.95L96.7029 38.277L97.3839 48.515L98.3679 63.2401Z" fill="#B77548"/>
<path d="M97.384 48.515C95.2078 48.4874 93.0559 48.0523 91.04 47.232C87.6812 45.848 84.8378 43.4506 82.906 40.374C87.349 39.752 91.762 38.961 96.206 38.338C96.37 38.315 96.536 38.293 96.706 38.277L97.384 48.515Z" fill="black"/>
<path d="M108.348 29.09C107.954 31.7488 106.939 34.2774 105.386 36.4712C103.832 38.665 101.785 40.4624 99.408 41.7179C98.6312 42.12 97.8237 42.4597 96.993 42.7339C92.7112 44.1368 88.054 43.8412 83.984 41.908C83.959 41.896 83.931 41.8879 83.904 41.8739C82.6643 41.2633 81.5037 40.5038 80.448 39.612C77.3776 37.0329 75.2604 33.499 74.435 29.575C73.5008 30.2494 72.4165 30.6862 71.2757 30.8479C70.1348 31.0096 68.9718 30.8912 67.887 30.5029C66.8914 30.1101 66.0168 29.4619 65.3513 28.6237C64.6858 27.7854 64.2528 26.7867 64.096 25.7279C63.9757 24.7369 64.1004 23.7315 64.4592 22.7999C64.818 21.8684 65.4 21.0391 66.154 20.3849C66.261 20.2929 66.372 20.205 66.486 20.122C67.3684 19.5035 68.3973 19.1269 69.4705 19.0293C70.5436 18.9318 71.6235 19.1168 72.603 19.5659C72.5693 18.2361 72.6624 16.9062 72.881 15.594C73.2373 13.4229 73.9467 11.3248 74.981 9.38295C75.4782 8.4503 76.055 7.56228 76.705 6.7289C78.1114 4.91267 79.8622 3.39168 81.8571 2.25282C83.8521 1.11397 86.052 0.379644 88.331 0.0919342C89.0103 0.0179026 89.6938 -0.0115065 90.377 0.00392153C94.2099 0.0715342 97.8791 1.56966 100.664 4.20399L100.829 4.36891C100.849 4.38691 100.867 4.4079 100.885 4.4269C101.668 5.22734 102.363 6.109 102.958 7.0569C103.011 7.1399 103.066 7.2289 103.117 7.3119C104.745 10.2107 105.964 13.321 106.74 16.554C107.884 20.641 108.926 24.882 108.348 29.09Z" fill="#B77548"/>
<path d="M71.403 27.025C71.0038 26.3487 70.359 25.8526 69.603 25.64C68.8467 25.4325 68.0395 25.5241 67.349 25.896L66.984 25.223C67.8494 24.7567 68.8611 24.6417 69.809 24.902C70.3221 25.0464 70.7991 25.2972 71.209 25.6381L70.809 22.113L71.57 22.026L72.109 26.786L71.403 27.025Z" fill="black"/>
<path d="M95.31 28.597C95.1448 28.5967 94.9809 28.5686 94.825 28.514L95.079 27.791C95.1802 27.8245 95.2874 27.8365 95.3935 27.826C95.4996 27.8155 95.6023 27.7827 95.695 27.7299C95.8586 27.652 95.9883 27.5174 96.06 27.351C96.1192 26.9841 96.0974 26.6085 95.996 26.2509L94.703 19.701L95.454 19.5529L96.748 26.103C96.8722 26.5707 96.8907 27.0602 96.802 27.5359C96.7413 27.7223 96.6441 27.8948 96.516 28.0432C96.3879 28.1915 96.2315 28.3128 96.056 28.4C95.8274 28.5261 95.5711 28.5938 95.31 28.597Z" fill="black"/>
<path d="M93.005 31.9789C92.1662 31.9784 91.3534 31.6873 90.705 31.155C90.3242 30.8331 90.014 30.436 89.7939 29.9886C89.5738 29.5412 89.4485 29.0531 89.426 28.555L90.192 28.525C90.2093 28.9154 90.307 29.298 90.4791 29.6489C90.6512 29.9997 90.8939 30.3114 91.192 30.564C91.4943 30.8124 91.8445 30.9956 92.2208 31.1025C92.5971 31.2093 92.9914 31.2375 93.379 31.185L93.487 31.942C93.3274 31.9658 93.1664 31.9781 93.005 31.9789Z" fill="black"/>
<path d="M89.228 20.938C89.218 21.519 88.897 21.9841 88.511 21.9781C88.125 21.9721 87.818 21.4961 87.826 20.9161C87.834 20.3361 88.157 19.87 88.544 19.876C88.931 19.882 89.236 20.358 89.228 20.938Z" fill="black"/>
<path d="M101.387 19.962C101.378 20.543 101.057 21.0081 100.67 21.0021C100.283 20.9961 99.977 20.5211 99.986 19.9401C99.995 19.3591 100.316 18.894 100.703 18.9C101.09 18.906 101.399 19.382 101.387 19.962Z" fill="black"/>
<path d="M87.0949 17.7901C86.7427 17.878 86.3762 17.8933 86.0179 17.835C85.3959 17.622 85.3329 16.9901 85.8429 16.5501C86.4353 16.1372 87.1241 15.884 87.8429 15.815C88.3512 15.6755 88.8914 15.7087 89.3789 15.9091C89.5702 16.0303 89.7093 16.2186 89.7691 16.437C89.8288 16.6555 89.8049 16.8883 89.7019 17.09C89.2559 18.027 87.9239 17.6951 87.0949 17.7901Z" fill="black"/>
<path d="M101.415 16.9899C101.776 17.0353 102.142 17.0075 102.491 16.908C103.083 16.624 103.072 15.988 102.513 15.608C101.875 15.266 101.16 15.0938 100.437 15.108C99.9153 15.0297 99.3823 15.1261 98.921 15.382C98.7453 15.5249 98.6291 15.7281 98.5953 15.9521C98.5615 16.176 98.6123 16.4045 98.738 16.5929C99.295 17.4759 100.579 16.9939 101.415 16.9899Z" fill="black"/>
<path d="M128.598 42.055L113.883 39.9901L113.64 39.368L124.347 26.3441L125.012 26.4891L129.02 41.5781L128.598 42.055ZM114.666 39.326L128.134 41.215L124.466 27.4061L114.666 39.326Z" fill="black"/>
<path d="M100.831 4.36891C95.6088 7.34858 89.4934 8.36295 83.5889 7.2289C82.723 9.45691 81.272 11.4101 79.3888 12.8823C77.5056 14.3546 75.26 15.2914 72.8889 15.594C73.2452 13.4229 73.9546 11.3248 74.9889 9.38295C75.4861 8.4503 76.0629 7.56228 76.7129 6.7289C78.1193 4.91267 79.8701 3.39168 81.865 2.25282C83.86 1.11397 86.0599 0.379644 88.3389 0.0919342C89.0183 0.0179026 89.7017 -0.0115065 90.3849 0.00392153C94.2178 0.0715342 97.887 1.56966 100.672 4.20399L100.831 4.36891Z" fill="black"/>
<path d="M55.3969 111.021C50.6699 116.258 43.2529 121.544 33.6149 119.192C16.0899 114.912 11.6069 68.0421 11.6069 68.0421L30.3549 59.075L41.5629 79.862C41.5629 79.862 49.6199 62.762 54.4019 59.686C60.1079 56.019 77.7959 54.941 77.7959 54.941C77.7959 54.941 86.5959 65.621 97.9049 56.341C97.9049 56.341 112.276 55.004 116.352 59.079C120.428 63.154 123.484 73.3441 123.484 73.3441L134.084 56.023L153.444 63.7661C153.444 63.7661 147.999 113.458 130.213 115.934C114.113 118.176 103.925 103.096 103.925 103.096" fill="#FED766"/>
<path d="M153.423 63.743L155.788 52.566L151.488 49.5569L138.588 50.847L134.074 56.006L153.423 63.743Z" fill="#B77548"/>
<path d="M134.077 56.0081C134.077 56.0081 142.892 34.836 146.115 35.808C148.264 36.453 145.255 45.9081 145.255 45.9081C145.255 45.9081 151.703 36.235 154.068 37.74C156.433 39.245 148.91 49.348 148.91 49.348C148.91 49.348 153.638 45.0481 155.573 49.7781C157.508 54.5081 156.159 57.237 153.854 55.796C152.134 54.722 151.274 51.067 151.274 51.067" fill="#B77548"/>
<path d="M155.002 56.5559C154.519 56.5376 154.05 56.385 153.649 56.115C151.817 54.969 150.936 51.305 150.9 51.149L151.646 50.972C151.653 51.008 152.49 54.486 154.055 55.465C154.257 55.6415 154.511 55.7493 154.778 55.773C155.046 55.7967 155.314 55.7351 155.544 55.597C156.26 54.997 156.463 52.959 155.218 49.916C155.086 49.4637 154.844 49.051 154.513 48.7151C154.183 48.3792 153.774 48.1304 153.324 47.991C151.463 47.568 149.189 49.6029 149.167 49.6239L148.651 49.057C148.756 48.963 151.239 46.735 153.491 47.245C154.064 47.4067 154.586 47.7092 155.012 48.1249C155.437 48.5407 155.752 49.0564 155.927 49.625C157.157 52.625 157.2 55.203 156.038 56.182C155.749 56.4271 155.381 56.5597 155.002 56.5559Z" fill="black"/>
<path d="M145.573 46.115L144.936 45.69C146.036 44.068 147.221 42.5046 148.484 41.006C151.195 37.834 153.091 36.659 154.273 37.412L153.861 38.058C152.449 37.159 148.162 42.229 145.573 46.115Z" fill="black"/>
<path d="M134.431 56.153L133.724 55.8529C133.746 55.7999 135.962 50.4879 138.545 45.3629C143.345 35.8339 145.226 35.129 146.225 35.429L146.004 36.163C145.604 36.042 143.932 36.3759 139.229 45.7069C136.658 50.8139 134.453 56.099 134.431 56.153Z" fill="black"/>
<path d="M143.814 58.7731L143.182 58.3411C143.437 57.931 143.53 57.4411 143.443 56.9662C143.357 56.4913 143.098 56.0654 142.715 55.7711L142.862 55.0801C145.832 54.5231 148.894 53.351 148.716 52.28C148.697 52.1804 148.657 52.0863 148.597 52.0046C148.537 51.9229 148.459 51.8558 148.37 51.8081C146.792 50.8081 141.084 51.8911 137.631 52.8651L137.423 52.1271C138.336 51.8701 146.409 49.653 148.781 51.16C148.962 51.265 149.118 51.4086 149.237 51.5803C149.356 51.7521 149.437 51.9479 149.472 52.154C149.561 52.693 149.386 54.492 143.712 55.692C144.036 56.1359 144.22 56.6672 144.238 57.2168C144.256 57.7663 144.108 58.3087 143.814 58.7731Z" fill="black"/>
<path d="M11.545 68.075L8.44495 57.075L12.5359 53.788L25.49 54.222L30.3349 59.071L11.545 68.075Z" fill="#B77548"/>
<path d="M30.3359 59.075C30.3359 59.075 20.1409 38.5321 16.9899 39.7091C14.8899 40.4941 18.5149 49.733 18.5149 49.733C18.5149 49.733 11.4409 40.508 9.18094 42.166C6.92094 43.824 15.0959 53.4061 15.0959 53.4061C15.0959 53.4061 10.0959 49.4291 8.47494 54.2761C6.85394 59.1231 8.38294 61.758 10.5879 60.168C12.2329 58.981 12.8499 55.278 12.8499 55.278" fill="#B77548"/>
<path d="M9.37697 61.011C9.03847 61.0133 8.70832 60.9061 8.43597 60.7051C7.21197 59.8051 7.08597 57.234 8.11397 54.155C8.25062 53.5759 8.53027 53.0402 8.92735 52.597C9.32442 52.1538 9.82626 51.8172 10.387 51.618C12.6 50.96 15.225 53.018 15.336 53.108L14.859 53.708C14.834 53.688 12.434 51.808 10.603 52.353C10.1631 52.5221 9.77195 52.7974 9.46434 53.1544C9.15673 53.5114 8.94222 53.939 8.83997 54.399C7.79997 57.517 8.13997 59.535 8.88997 60.089C9.36397 60.438 9.95497 60.156 10.368 59.858C11.868 58.777 12.468 55.253 12.474 55.217L13.23 55.342C13.204 55.5 12.567 59.216 10.815 60.479C10.4032 60.8026 9.90019 60.9886 9.37697 61.011Z" fill="black"/>
<path d="M18.211 49.965C15.369 46.259 10.756 41.484 9.411 42.474L8.95801 41.856C10.089 41.025 12.058 42.074 14.973 45.056C16.3321 46.4686 17.6172 47.9505 18.823 49.496L18.211 49.965Z" fill="black"/>
<path d="M29.9939 59.244C29.9679 59.194 27.4159 54.061 24.5139 49.144C19.2059 40.144 17.5139 39.923 17.1249 40.07L16.8569 39.352C17.8329 38.988 19.7569 39.568 25.1759 48.758C28.0919 53.701 30.6549 58.858 30.6759 58.906L29.9939 59.244Z" fill="black"/>
<path d="M20.8049 62.4799C20.3871 61.933 20.201 61.2437 20.2869 60.5609C20.3333 60.1455 20.4735 59.7461 20.6969 59.3929C14.9569 58.5699 14.6639 56.7869 14.7179 56.2429C14.7394 56.0349 14.8063 55.8342 14.9137 55.6549C15.0212 55.4755 15.1667 55.3219 15.3399 55.2049C17.6079 53.5459 25.8089 55.2229 26.7399 55.4189L26.5819 56.1689C23.0729 55.4239 17.3049 54.7179 15.7959 55.8239C15.7099 55.8774 15.637 55.9496 15.5826 56.0351C15.5282 56.1206 15.4938 56.2173 15.4819 56.318C15.3749 57.4 18.5069 58.3669 21.5089 58.7269L21.7009 59.4069C21.3294 59.7192 21.0953 60.1648 21.0489 60.6479C20.9852 61.1289 21.1135 61.6157 21.4059 62.0029L20.8049 62.4799Z" fill="black"/>
<path d="M125.319 79.0211H120.832V78.2551H124.782L123.124 73.465L123.159 73.14L133.759 55.8181L134.412 56.218L123.912 73.3849L125.687 78.513L125.319 79.0211Z" fill="black"/>
<path d="M44.6199 84.728H39.9379L39.5779 84.214L41.1499 79.892L30.0179 59.26L30.6919 58.896L41.8999 79.682L41.9229 79.995L40.4799 83.965H44.6199V84.728Z" fill="black"/>
<path d="M91.2899 119.786C91.2899 119.786 125.548 86.017 125.548 119.786H91.2899Z" fill="#9B7EDE"/>
<path d="M30.1906 58.7304L11.442 67.696L11.7725 68.387L30.5211 59.4215L30.1906 58.7304Z" fill="black"/>
<path d="M105.677 112.787C104.54 115.291 103.104 117.647 101.399 119.804H64.3639C62.0799 116.904 59.7799 113.896 58.8089 110.343C57.8089 106.689 58.5699 102.279 61.6209 100.035C62.665 99.2881 63.889 98.8326 65.1673 98.715C66.4456 98.5975 67.7321 98.8221 68.8949 99.366C70.0435 99.9397 71.0188 100.809 71.7205 101.884C72.4222 102.959 72.8251 104.202 72.8879 105.484C73.3879 99.6641 75.5339 93.846 79.6499 89.702C83.7659 85.558 89.9989 83.3381 95.6569 84.7911C101.125 86.1911 105.438 90.879 107.1 96.274C108.621 101.771 108.116 107.631 105.677 112.787Z" fill="white"/>
<path d="M64.153 84.142C64.084 84.142 64.015 84.142 63.946 84.142C63.2221 84.1173 62.5102 83.9494 61.8516 83.6478C61.1929 83.3462 60.6007 82.917 60.109 82.385C59.6145 81.8556 59.2299 81.2334 58.9775 80.5543C58.725 79.8753 58.6096 79.153 58.638 78.4291C58.6628 77.7053 58.8308 76.9935 59.1324 76.3351C59.434 75.6766 59.8631 75.0845 60.395 74.593C60.9239 74.0977 61.546 73.7125 62.2252 73.46C62.9044 73.2074 63.627 73.0926 64.351 73.1221C65.8119 73.177 67.1912 73.8094 68.1864 74.8803C69.1815 75.9511 69.7112 77.373 69.659 78.834C69.6344 79.558 69.4665 80.27 69.1649 80.9286C68.8633 81.5872 68.4341 82.1794 67.902 82.671C66.8847 83.62 65.5442 84.146 64.153 84.142ZM64.143 73.88C62.9452 73.8777 61.7914 74.3314 60.916 75.1491C60.4583 75.5719 60.0889 76.0812 59.8292 76.6476C59.5696 77.214 59.4247 77.8262 59.403 78.449C59.3783 79.0723 59.4776 79.6944 59.6951 80.2791C59.9126 80.8637 60.244 81.3993 60.67 81.855C61.0927 82.3128 61.602 82.6823 62.1685 82.942C62.7349 83.2017 63.3472 83.3465 63.97 83.368C64.5933 83.3921 65.2151 83.2925 65.7997 83.0751C66.3843 82.8576 66.92 82.5266 67.376 82.1011C67.8334 81.6781 68.2026 81.1687 68.4621 80.6023C68.7216 80.0359 68.8664 79.4237 68.888 78.801C68.9326 77.5432 68.4766 76.319 67.6199 75.3969C66.7632 74.4747 65.5758 73.93 64.318 73.8821L64.143 73.88Z" fill="black"/>
<path d="M32.505 29.122C33.0386 29.1414 33.5631 29.2657 34.0487 29.4878C34.5342 29.7099 34.9712 30.0256 35.3348 30.4166C35.6984 30.8076 35.9813 31.2664 36.1675 31.7668C36.3537 32.2672 36.4395 32.7995 36.42 33.3331C36.3799 34.4104 35.9137 35.4276 35.1239 36.1614C34.3341 36.8951 33.2853 37.2852 32.208 37.2461C31.1307 37.2065 30.1132 36.7406 29.3794 35.9509C28.6456 35.1612 28.2555 34.1123 28.295 33.035C28.3144 32.5016 28.4388 31.9774 28.6609 31.492C28.883 31.0067 29.1986 30.5699 29.5895 30.2065C29.9804 29.8432 30.4391 29.5604 30.9394 29.3744C31.4396 29.1883 31.9716 29.1025 32.505 29.122Z" fill="#FC7753"/>
<path d="M38.7109 119.804C38.7109 119.804 64.7949 94.09 64.7949 119.804H38.7109Z" fill="#FC7753"/>
<path d="M78.654 120L78.093 119.48C78.434 119.111 86.524 110.462 92.462 112.131C94.784 112.783 96.433 114.913 97.374 118.469C98.4261 115.797 99.776 113.252 101.398 110.883C105.398 105.154 110.286 102.341 115.544 102.75L115.484 103.513C103.425 102.579 97.711 119.747 97.655 119.921L96.916 119.878C96.107 115.869 94.539 113.509 92.255 112.868C86.761 111.322 78.735 119.914 78.654 120Z" fill="black"/>
</svg>
