<svg width="21" height="13" viewBox="0 0 21 13" fill="none" xmlns="http://www.w3.org/2000/svg">
<path d="M20.802 6.103C20.62 5.854 16.278 0.00299072 10.733 0.00299072C5.18799 0.00299072 0.84599 5.854 0.66399 6.103C0.579798 6.21824 0.534424 6.35727 0.534424 6.49999C0.534424 6.64272 0.579798 6.78175 0.66399 6.897C0.84599 7.146 5.18799 12.997 10.733 12.997C16.278 12.997 20.62 7.143 20.802 6.897C20.8863 6.78181 20.9318 6.64275 20.9318 6.49999C20.9318 6.35723 20.8863 6.21818 20.802 6.103ZM10.735 11.655C6.65099 11.655 3.11299 7.76999 2.06599 6.49899C3.10999 5.22799 6.63499 1.34499 10.735 1.34499C14.835 1.34499 18.357 5.22999 19.404 6.50099C18.357 7.77199 14.826 11.655 10.735 11.655Z" fill="#C3C3C3"/>
<path d="M10.734 2.466C9.93591 2.46581 9.15568 2.70229 8.492 3.14554C7.82831 3.58879 7.31098 4.21889 7.00542 4.95618C6.69987 5.69346 6.61983 6.50479 6.77541 7.28757C6.93099 8.07035 7.3152 8.78942 7.87946 9.35382C8.44373 9.91823 9.1627 10.3026 9.94544 10.4584C10.7282 10.6142 11.5395 10.5343 12.2769 10.2289C13.0143 9.92357 13.6445 9.4064 14.0879 8.74283C14.5313 8.07925 14.768 7.29908 14.768 6.50099C14.7669 5.43134 14.3416 4.40579 13.5853 3.64934C12.8291 2.89289 11.8037 2.46733 10.734 2.466ZM10.734 9.19C10.202 9.19 9.68188 9.03223 9.23951 8.73665C8.79714 8.44107 8.45236 8.02095 8.24876 7.52942C8.04516 7.03789 7.99189 6.49701 8.09568 5.9752C8.19947 5.4534 8.45568 4.97409 8.83189 4.59789C9.20809 4.22168 9.6874 3.96547 10.2092 3.86168C10.731 3.75788 11.2719 3.81116 11.7634 4.01476C12.255 4.21836 12.6751 4.56314 12.9706 5.00551C13.2662 5.44788 13.424 5.96797 13.424 6.5C13.4232 7.21319 13.1395 7.89694 12.6352 8.40125C12.1309 8.90555 11.4472 9.18921 10.734 9.19Z" fill="#C3C3C3"/>
</svg>
