<svg width="40" height="40" viewBox="0 0 40 40" fill="none" xmlns="http://www.w3.org/2000/svg">
<path d="M20 40C31.0457 40 40 31.0457 40 20C40 8.9543 31.0457 0 20 0C8.9543 0 0 8.9543 0 20C0 31.0457 8.9543 40 20 40Z" fill="white"/>
<path d="M20 39.5C30.7696 39.5 39.5 30.7696 39.5 20C39.5 9.23045 30.7696 0.5 20 0.5C9.23045 0.5 0.5 9.23045 0.5 20C0.5 30.7696 9.23045 39.5 20 39.5Z" stroke="#707070" stroke-opacity="0.3"/>
<path d="M23.175 12.321H25.001V9.14103C24.1177 9.04394 23.2296 8.99686 22.341 9.00003C16.564 9.00003 18.141 15.542 17.906 16.5H15V20.055H17.905V29H21.467V20.056H24.254L24.697 16.5H21.466C21.623 14.147 20.832 12.32 23.175 12.32V12.321Z" fill="#3B5999"/>
</svg>
