<svg width="24" height="26" viewBox="0 0 24 26" fill="none" xmlns="http://www.w3.org/2000/svg">
<path d="M23.4381 11.808C23.4299 14.5902 22.3211 17.2562 20.3537 19.2236C18.3863 21.1909 15.7204 22.2998 12.9381 22.308C12.1525 22.3239 11.3689 22.2228 10.6131 22.008L5.7381 25.308L6.4881 20.133C5.07716 19.0403 3.96759 17.6064 3.26391 15.9664C2.56023 14.3265 2.28561 12.5343 2.46591 10.7589C2.64621 8.98344 3.2755 7.28311 4.2945 5.81807C5.3135 4.35303 6.68868 3.17149 8.29048 2.38477C9.89228 1.59804 11.668 1.23202 13.4503 1.32117C15.2327 1.41033 16.963 1.95174 18.4783 2.89439C19.9936 3.83704 21.244 5.14991 22.1117 6.70933C22.9794 8.26875 23.4359 10.0234 23.4381 11.808Z" fill="#599BF0" fill-opacity="0.4"/>
<path d="M4.69369 19.219L4.54668 20.173C4.39019 19.718 4.26752 19.2521 4.17969 18.779C4.36616 18.907 4.53846 19.0545 4.69369 19.219Z" fill="#77C587"/>
<path d="M3.59406 24.867C3.47909 24.7825 3.38585 24.6719 3.32204 24.5443C3.25823 24.4166 3.22567 24.2757 3.22706 24.133L3.96106 19.438C1.98079 17.778 0.648961 15.4732 0.199632 12.9285C-0.249696 10.3839 0.21223 7.7623 1.50423 5.5245C2.79623 3.28669 4.83563 1.57586 7.26401 0.692678C9.6924 -0.190504 12.3544 -0.189522 14.7821 0.695452C17.2098 1.58043 19.248 3.29276 20.5383 5.53152C21.8287 7.77028 22.2887 10.3922 21.8375 12.9365C21.3862 15.4808 20.0527 17.7847 18.0712 19.4432C16.0897 21.1017 13.5871 22.0088 11.0031 22.005C10.2882 22.0082 9.57511 21.9345 8.87606 21.785L4.40106 24.793C4.10806 25.014 3.81406 25.087 3.59406 24.867ZM11.0031 1.53999C9.01511 1.54524 7.07823 2.16996 5.46185 3.32724C3.84548 4.48452 2.62998 6.11681 1.98446 7.99704C1.33894 9.87727 1.2955 11.9119 1.86017 13.818C2.42484 15.7241 3.56956 17.4068 5.13506 18.632C5.23222 18.7113 5.30937 18.8124 5.36027 18.9271C5.41116 19.0417 5.43439 19.1667 5.42806 19.292L4.91506 22.74L8.28906 20.466C8.37001 20.3996 8.46812 20.3575 8.57201 20.3446C8.6759 20.3317 8.78132 20.3485 8.87606 20.393C9.5757 20.5387 10.2884 20.6124 11.0031 20.613C13.5322 20.613 15.9577 19.6083 17.746 17.82C19.5344 16.0316 20.5391 13.6061 20.5391 11.077C20.5391 8.54789 19.5344 6.12237 17.746 4.33402C15.9577 2.54568 13.5322 1.54099 11.0031 1.54099V1.53999Z" fill="#3C8DEF"/>
<path d="M11.0032 15.038C10.9052 15.044 10.8071 15.0291 10.7153 14.9943C10.6236 14.9596 10.5402 14.9057 10.4708 14.8363C10.4014 14.7669 10.3476 14.6836 10.3128 14.5918C10.2781 14.5001 10.2632 14.402 10.2691 14.304V11.883C10.2632 11.7851 10.2781 11.687 10.3128 11.5952C10.3476 11.5034 10.4014 11.4201 10.4708 11.3507C10.5402 11.2813 10.6236 11.2274 10.7153 11.1927C10.8071 11.1579 10.9052 11.143 11.0032 11.149C11.3659 11.149 11.7205 11.0415 12.0221 10.8399C12.3237 10.6384 12.5587 10.352 12.6975 10.0169C12.8364 9.68173 12.8727 9.31298 12.8019 8.95721C12.7311 8.60145 12.5565 8.27467 12.3 8.01818C12.0435 7.76169 11.7167 7.58702 11.3609 7.51625C11.0052 7.44549 10.6364 7.48181 10.3013 7.62062C9.9662 7.75943 9.67976 7.9945 9.47824 8.2961C9.27672 8.5977 9.16916 8.95228 9.16916 9.31501C9.16215 9.50486 9.0818 9.6846 8.94501 9.81643C8.80822 9.94826 8.62563 10.0219 8.43565 10.0219C8.24567 10.0219 8.06309 9.94826 7.9263 9.81643C7.78951 9.6846 7.70916 9.50486 7.70215 9.31501C7.70215 8.4398 8.04983 7.60043 8.6687 6.98156C9.28757 6.36269 10.1269 6.01501 11.0022 6.01501C11.8774 6.01501 12.7167 6.36269 13.3356 6.98156C13.9545 7.60043 14.3022 8.4398 14.3022 9.31501C14.2922 10.0614 14.0347 10.7833 13.5701 11.3675C13.1055 11.9518 12.4601 12.3652 11.7352 12.543V14.304C11.7349 14.4983 11.6577 14.6845 11.5206 14.822C11.3834 14.9596 11.1974 15.0372 11.0032 15.038Z" fill="#4785EB"/>
<path d="M10.4898 16.946C10.3883 16.8444 10.3192 16.7151 10.2913 16.5743C10.2633 16.4335 10.2777 16.2875 10.3326 16.1548C10.3876 16.0222 10.4807 15.9089 10.6 15.8291C10.7194 15.7493 10.8598 15.7068 11.0033 15.7068C11.1469 15.7068 11.2873 15.7493 11.4066 15.8291C11.526 15.9089 11.6191 16.0222 11.674 16.1548C11.729 16.2875 11.7434 16.4335 11.7154 16.5743C11.6874 16.7151 11.6183 16.8444 11.5168 16.946C11.4554 17.0233 11.3773 17.0857 11.2884 17.1286C11.1995 17.1715 11.1021 17.1938 11.0033 17.1938C10.9046 17.1938 10.8072 17.1715 10.7183 17.1286C10.6294 17.0857 10.5513 17.0233 10.4898 16.946Z" fill="#4785EB"/>
</svg>
