<svg width="25" height="26" viewBox="0 0 25 26" fill="none" xmlns="http://www.w3.org/2000/svg">
<path d="M9.44743 15.56C9.38939 15.502 9.32048 15.4559 9.24464 15.4245C9.1688 15.3931 9.08752 15.3769 9.00543 15.3769C8.92334 15.3769 8.84206 15.3931 8.76622 15.4245C8.69038 15.4559 8.62147 15.502 8.56343 15.56L7.04343 17.08C6.92621 17.1972 6.86035 17.3562 6.86035 17.522C6.86035 17.6878 6.92621 17.8468 7.04343 17.964C7.16066 18.0812 7.31965 18.1471 7.48544 18.1471C7.65122 18.1471 7.8102 18.0812 7.92743 17.964L9.44743 16.444C9.50549 16.386 9.55153 16.3171 9.58295 16.2412C9.61437 16.1654 9.63055 16.0841 9.63055 16.002C9.63055 15.9199 9.61437 15.8386 9.58295 15.7628C9.55153 15.6869 9.50549 15.6181 9.44743 15.56Z" fill="#3C8DEF"/>
<path d="M19.0363 6.59496C19.1184 6.59503 19.1997 6.5789 19.2755 6.5475C19.3513 6.5161 19.4202 6.47004 19.4783 6.41196L21.6253 4.26496C21.7425 4.14774 21.8083 3.98874 21.8083 3.82296C21.8083 3.65718 21.7425 3.49818 21.6253 3.38096C21.508 3.26373 21.349 3.19788 21.1832 3.19788C21.0175 3.19788 20.8585 3.26373 20.7413 3.38096L18.5943 5.52796C18.5068 5.61537 18.4473 5.72674 18.4231 5.848C18.399 5.96925 18.4114 6.09493 18.4587 6.20915C18.506 6.32337 18.5862 6.42099 18.689 6.48967C18.7918 6.55834 18.9126 6.59498 19.0363 6.59496Z" fill="#3C8DEF"/>
<path d="M24.1891 8.02199L22.0411 8.69298C21.8819 8.74112 21.7484 8.8505 21.6699 8.99706C21.5915 9.14362 21.5744 9.31536 21.6226 9.47449C21.6707 9.63362 21.7801 9.7671 21.9266 9.84559C22.0732 9.92407 22.2449 9.94113 22.4041 9.893H22.4141L24.5621 9.22199C24.7189 9.17142 24.8495 9.06095 24.9253 8.91462C25.0011 8.76828 25.016 8.59793 24.9668 8.44063C24.9176 8.28334 24.8083 8.15183 24.6627 8.07474C24.517 7.99764 24.3468 7.9812 24.1891 8.02899V8.02199Z" fill="#3C8DEF"/>
<path d="M15.5311 3.37698C15.6094 3.40163 15.6918 3.41059 15.7735 3.40337C15.8552 3.39615 15.9347 3.37287 16.0075 3.33488C16.0802 3.29689 16.1447 3.24493 16.1974 3.18197C16.25 3.11901 16.2897 3.0463 16.3141 2.96798L16.9851 0.81998C17.0106 0.741909 17.0203 0.659598 17.0139 0.577745C17.0075 0.495893 16.9851 0.416102 16.9478 0.34293C16.9106 0.269757 16.8593 0.204636 16.7969 0.151283C16.7345 0.0979297 16.6622 0.0573905 16.5841 0.0319797C16.5061 0.00656896 16.4238 -0.0032158 16.3419 0.00318412C16.2601 0.00958404 16.1803 0.0320433 16.1071 0.0692796C16.0339 0.106516 15.9688 0.1578 15.9154 0.220204C15.8621 0.282608 15.8215 0.354909 15.7961 0.43298V0.44698L15.1251 2.59498C15.0757 2.75318 15.0911 2.92455 15.168 3.07139C15.2449 3.21823 15.377 3.32851 15.5352 3.37798L15.5311 3.37698Z" fill="#3C8DEF"/>
<path d="M13.6617 4.18698C13.3488 3.87408 12.9243 3.6983 12.4817 3.6983C12.0392 3.6983 11.6147 3.87408 11.3017 4.18698L10.4017 5.08698C10.0123 5.47757 9.71301 5.94856 9.52474 6.46698L7.78074 11.294L0.794739 18.28C0.542778 18.5319 0.342909 18.831 0.206547 19.1602C0.070185 19.4894 0 19.8422 0 20.1985C0 20.5548 0.070185 20.9076 0.206547 21.2368C0.342909 21.566 0.542778 21.8651 0.794739 22.117L2.89474 24.217C3.40366 24.7256 4.09373 25.0113 4.81324 25.0113C5.53275 25.0113 6.22281 24.7256 6.73174 24.217L13.7117 17.237L18.5557 15.475C19.0678 15.2875 19.5334 14.9918 19.9207 14.608L20.8207 13.713C21.1346 13.4009 21.3116 12.977 21.3129 12.5344C21.3142 12.0919 21.1397 11.6669 20.8277 11.353L13.6617 4.18698ZM5.84074 23.329C5.70489 23.4648 5.54361 23.5726 5.36611 23.6461C5.18861 23.7196 4.99836 23.7575 4.80624 23.7575C4.61411 23.7575 4.42387 23.7196 4.24637 23.6461C4.06887 23.5726 3.90759 23.4648 3.77174 23.329L1.67174 21.229C1.39768 20.9547 1.24373 20.5827 1.24373 20.195C1.24373 19.8072 1.39768 19.4353 1.67174 19.161L8.28974 12.542L12.4667 16.695L5.84074 23.329ZM19.9337 12.822L19.0337 13.716C18.7761 13.9733 18.4651 14.1709 18.1227 14.295L13.5157 15.972L9.03074 11.512L10.6997 6.88998C10.8253 6.544 11.0249 6.22966 11.2847 5.96898L12.1847 5.06898C12.2633 4.99057 12.3697 4.94653 12.4807 4.94653C12.5917 4.94653 12.6982 4.99057 12.7767 5.06898L19.9347 12.227C20.0131 12.3055 20.0572 12.412 20.0572 12.523C20.0572 12.634 20.0131 12.7404 19.9347 12.819L19.9337 12.822Z" fill="#3C8DEF"/>
</svg>
