<svg width="29" height="22" viewBox="0 0 29 22" fill="none" xmlns="http://www.w3.org/2000/svg">
<path d="M10.8108 0.999948C9.813 0.941672 8.82069 1.18433 7.96237 1.69649C7.10405 2.20865 6.41928 2.96671 5.99674 3.87251C5.57419 4.77831 5.43335 5.79012 5.59244 6.77688C5.75154 7.76365 6.20324 8.67992 6.88905 9.40702C7.57486 10.1341 8.46318 10.6386 9.43897 10.855C10.4148 11.0715 11.4331 10.99 12.362 10.621C13.2909 10.2521 14.0877 9.61279 14.6491 8.78585C15.2105 7.95891 15.5107 6.98246 15.5108 5.98295C15.5458 4.6996 15.0709 3.45466 14.19 2.52072C13.3091 1.58678 12.094 1.03995 10.8108 0.999948Z" fill="#3C8DEF" fill-opacity="0.4"/>
<path d="M21.495 1.71295H21.463C20.9227 1.7186 20.3895 1.83646 19.8972 2.05904C19.4049 2.28162 18.9641 2.60407 18.603 3.00595C17.8615 3.83205 17.4554 4.90541 17.4645 6.01545C17.4736 7.12548 17.8971 8.19207 18.652 9.00595C19.016 9.39792 19.4568 9.71082 19.9469 9.92517C20.437 10.1395 20.9661 10.2508 21.501 10.2519H21.534C22.0743 10.2463 22.6075 10.1284 23.0998 9.90586C23.5921 9.68328 24.0328 9.36083 24.394 8.95895C25.1423 8.13678 25.5495 7.06055 25.533 5.94895C25.5524 4.85367 25.1395 3.79486 24.3836 3.00195C23.6278 2.20904 22.5899 1.74592 21.495 1.71295Z" fill="#3C8DEF" fill-opacity="0.4"/>
<path d="M21.6942 11.0679H21.3042C19.5563 11.0665 17.8707 11.7165 16.5762 12.8909C17.6187 13.6896 18.4754 14.7051 19.0871 15.8672C19.6988 17.0294 20.0509 18.3104 20.1192 19.6219H28.7482V18.1219C28.7463 16.2517 28.0025 14.4585 26.6801 13.1361C25.3576 11.8136 23.5645 11.0698 21.6942 11.0679Z" fill="#3C8DEF" fill-opacity="0.4"/>
<path d="M18.607 19.6239C18.4862 17.7008 17.637 15.896 16.2323 14.5769C14.8275 13.2579 12.9729 12.5237 11.046 12.5239H10.576C9.58102 12.5239 8.59579 12.72 7.67656 13.1007C6.75733 13.4815 5.92212 14.0397 5.21861 14.7433C4.5151 15.4469 3.95707 16.2821 3.5764 17.2014C3.19573 18.1207 2.99987 19.106 3 20.101V21.001H18.622V20.101C18.622 19.941 18.617 19.7819 18.607 19.6239Z" fill="#3C8DEF" fill-opacity="0.4"/>
<path d="M8.81081 0.999948C7.813 0.941672 6.82069 1.18433 5.96237 1.69649C5.10405 2.20865 4.41928 2.96671 3.99674 3.87251C3.57419 4.77831 3.43335 5.79012 3.59244 6.77688C3.75154 7.76365 4.20324 8.67992 4.88905 9.40702C5.57486 10.1341 6.46318 10.6386 7.43897 10.855C8.41476 11.0715 9.43306 10.99 10.362 10.621C11.2909 10.2521 12.0877 9.61279 12.6491 8.78585C13.2105 7.95891 13.5107 6.98246 13.5108 5.98295C13.5458 4.6996 13.0709 3.45466 12.19 2.52072C11.3091 1.58678 10.094 1.03995 8.81081 0.999948V0.999948Z" stroke="#3C8DEF"/>
<path d="M19.495 1.71295H19.463C18.9227 1.7186 18.3895 1.83646 17.8972 2.05904C17.4049 2.28162 16.9641 2.60407 16.603 3.00595C15.8615 3.83205 15.4554 4.90541 15.4645 6.01545C15.4736 7.12548 15.8971 8.19207 16.652 9.00595C17.016 9.39792 17.4568 9.71082 17.9469 9.92517C18.437 10.1395 18.9661 10.2508 19.501 10.2519H19.534C20.0743 10.2463 20.6075 10.1284 21.0998 9.90586C21.5921 9.68328 22.0328 9.36083 22.394 8.95895C23.1423 8.13677 23.5495 7.06055 23.533 5.94895C23.5524 4.85367 23.1395 3.79486 22.3836 3.00195C21.6278 2.20904 20.5899 1.74592 19.495 1.71295V1.71295Z" stroke="#3C8DEF"/>
<path d="M19.6942 11.0679H19.3042C17.5563 11.0665 15.8707 11.7165 14.5762 12.8909C15.6187 13.6896 16.4754 14.7051 17.0871 15.8672C17.6988 17.0294 18.0509 18.3104 18.1192 19.6219H26.7482V18.1219C26.7463 16.2517 26.0025 14.4585 24.6801 13.1361C23.3576 11.8136 21.5645 11.0698 19.6942 11.0679Z" stroke="#3C8DEF"/>
<path d="M16.607 19.6239C16.4862 17.7008 15.637 15.896 14.2323 14.5769C12.8275 13.2579 10.9729 12.5237 9.046 12.5239H8.576C7.58102 12.5239 6.59579 12.72 5.67656 13.1007C4.75733 13.4815 3.92212 14.0397 3.21861 14.7433C2.5151 15.4469 1.95707 16.2821 1.5764 17.2014C1.19573 18.1207 0.999869 19.106 1 20.101V21.001H16.622V20.101C16.622 19.941 16.617 19.7819 16.607 19.6239Z" stroke="#3C8DEF"/>
</svg>
