<svg width="40" height="40" viewBox="0 0 40 40" fill="none" xmlns="http://www.w3.org/2000/svg">
<path d="M20 40C31.0457 40 40 31.0457 40 20C40 8.9543 31.0457 0 20 0C8.9543 0 0 8.9543 0 20C0 31.0457 8.9543 40 20 40Z" fill="white"/>
<path d="M20 39.5C30.7696 39.5 39.5 30.7696 39.5 20C39.5 9.23045 30.7696 0.5 20 0.5C9.23045 0.5 0.5 9.23045 0.5 20C0.5 30.7696 9.23045 39.5 20 39.5Z" stroke="#707070" stroke-opacity="0.3"/>
<path d="M14.432 22.086L13.732 24.686L11.188 24.74C10.4182 23.3065 10.0092 21.7071 9.99629 20.0801C9.98339 18.4531 10.367 16.8474 11.114 15.402L13.379 15.817L14.371 18.069C13.9247 19.3745 13.9444 20.7944 14.427 22.087L14.432 22.086Z" fill="#FBBB00"/>
<path d="M29.825 18.132C30.1639 19.915 30.0111 21.7566 29.3831 23.4594C28.7551 25.1622 27.6755 26.662 26.26 27.798L23.407 27.652L23.007 25.131C24.1851 24.4403 25.0902 23.3661 25.571 22.088H20.224V18.132H29.829H29.825Z" fill="#518EF8"/>
<path d="M26.26 27.7979C25.1159 28.717 23.7835 29.3729 22.3574 29.7192C20.9313 30.0655 19.4465 30.0937 18.0083 29.8017C16.5701 29.5097 15.2137 28.9048 14.0356 28.0298C12.8574 27.1549 11.8862 26.0314 11.191 24.739L14.432 22.0859C14.7363 22.897 15.214 23.6318 15.8319 24.239C16.4497 24.8461 17.1928 25.311 18.009 25.601C18.8253 25.891 19.6951 25.9992 20.5575 25.918C21.4199 25.8368 22.2542 25.5682 23.002 25.131L26.26 27.7979Z" fill="#28B446"/>
<path d="M26.383 12.3L23.143 14.952C22.3841 14.4794 21.5283 14.1841 20.6395 14.0879C19.7507 13.9917 18.8516 14.0971 18.0091 14.3963C17.1666 14.6956 16.4025 15.1809 15.7735 15.8163C15.1445 16.4516 14.6668 17.2206 14.376 18.066L11.119 15.4C11.8059 14.0732 12.7814 12.9171 13.9737 12.0168C15.1661 11.1165 16.545 10.4949 18.0092 10.1975C19.4734 9.90014 20.9856 9.93464 22.4347 10.2985C23.8838 10.6623 25.2329 11.3462 26.383 12.3Z" fill="#F14336"/>
</svg>
