<svg width="23" height="25" viewBox="0 0 23 25" fill="none" xmlns="http://www.w3.org/2000/svg">
<path d="M22.357 9.453L11.945 0.231C11.777 0.0823204 11.5604 0.000244141 11.336 0.000244141C11.1116 0.000244141 10.895 0.0823204 10.727 0.231L0.309999 9.453C0.212577 9.53921 0.134565 9.64511 0.0811253 9.76371C0.0276851 9.88232 3.4563e-05 10.0109 0 10.141V24.081C0 24.3247 0.0968229 24.5585 0.269169 24.7308C0.441515 24.9032 0.675265 25 0.918999 25H21.757C22.0007 25 22.2345 24.9032 22.4068 24.7308C22.5792 24.5585 22.676 24.3247 22.676 24.081V10.141C22.6749 10.0102 22.6459 9.88118 22.5909 9.76252C22.5358 9.64386 22.4561 9.53834 22.357 9.453ZM20.833 23.162H1.833V10.555L11.333 2.147L20.833 10.555V23.162Z" fill="#666666"/>
<path d="M14.4298 15.043H8.24078C7.99705 15.043 7.7633 15.1398 7.59096 15.3122C7.41861 15.4845 7.32178 15.7183 7.32178 15.962V24.081H9.15979V16.881H13.5098V24.081H15.3488V15.964C15.349 15.8431 15.3255 15.7234 15.2794 15.6117C15.2333 15.5 15.1657 15.3984 15.0803 15.3129C14.995 15.2273 14.8936 15.1594 14.7819 15.1131C14.6703 15.0668 14.5506 15.043 14.4298 15.043Z" fill="#666666"/>
</svg>
