<svg width="67" height="67" viewBox="0 0 67 67" fill="none" xmlns="http://www.w3.org/2000/svg">
<path d="M59 0H8C3.58172 0 0 3.58172 0 8V59C0 63.4183 3.58172 67 8 67H59C63.4183 67 67 63.4183 67 59V8C67 3.58172 63.4183 0 59 0Z" fill="#F9CF72"/>
<path d="M31.5488 11.196H10.4658V37.817H31.5488V11.196Z" fill="#BEE9E8"/>
<path d="M31.5489 14.121H10.4649L10.2649 13.921V11.192L10.4649 10.992H31.5479L31.7479 11.192V13.921L31.5489 14.121ZM10.6649 13.73H31.3579V11.391H10.6649V13.73Z" fill="black"/>
<path d="M29.253 17.624H12.761V21.15H29.253V17.624Z" fill="#6987F3"/>
<path d="M29.253 24.049H12.761V27.575H29.253V24.049Z" fill="#6987F3"/>
<path d="M29.253 30.475H12.761V34.001H29.253V30.475Z" fill="#6987F3"/>
<path d="M57.7659 21.764H22.7119V59.231H57.7659V21.764Z" fill="#FF8A5B"/>
<path d="M57.7659 21.764H22.7119V25.447H57.7659V21.764Z" fill="#6987F3"/>
<path d="M26.7308 23.606C26.7308 23.7774 26.68 23.9451 26.5847 24.0876C26.4894 24.2302 26.354 24.3413 26.1956 24.4069C26.0372 24.4725 25.8629 24.4898 25.6947 24.4563C25.5265 24.4228 25.372 24.3402 25.2508 24.219C25.1295 24.0977 25.0469 23.9433 25.0135 23.7751C24.98 23.6069 24.9972 23.4326 25.0628 23.2742C25.1285 23.1157 25.2396 22.9803 25.3822 22.8851C25.5247 22.7898 25.6923 22.739 25.8638 22.739C26.0938 22.739 26.3143 22.8303 26.4769 22.9929C26.6395 23.1555 26.7308 23.376 26.7308 23.606Z" fill="white"/>
<path d="M29.5468 23.606C29.5468 23.7775 29.4959 23.9451 29.4005 24.0877C29.3052 24.2303 29.1698 24.3415 29.0113 24.407C28.8528 24.4726 28.6784 24.4898 28.5102 24.4562C28.342 24.4227 28.1875 24.34 28.0663 24.2186C27.9451 24.0973 27.8626 23.9427 27.8293 23.7745C27.7959 23.6062 27.8133 23.4318 27.879 23.2734C27.9448 23.115 28.0561 22.9797 28.1988 22.8846C28.3415 22.7894 28.5092 22.7388 28.6807 22.739C28.7945 22.739 28.9072 22.7614 29.0124 22.805C29.1175 22.8486 29.213 22.9124 29.2935 22.9929C29.3739 23.0734 29.4376 23.169 29.4811 23.2742C29.5246 23.3794 29.5469 23.4921 29.5468 23.606Z" fill="white"/>
<path d="M32.3649 23.606C32.3649 23.7774 32.314 23.9451 32.2188 24.0876C32.1235 24.2302 31.9881 24.3413 31.8297 24.4069C31.6712 24.4725 31.4969 24.4898 31.3287 24.4563C31.1605 24.4228 31.0061 24.3402 30.8848 24.219C30.7635 24.0977 30.681 23.9433 30.6475 23.7751C30.6141 23.6069 30.6312 23.4326 30.6968 23.2742C30.7625 23.1157 30.8736 22.9803 31.0162 22.8851C31.1588 22.7898 31.3264 22.739 31.4979 22.739C31.7278 22.739 31.9483 22.8303 32.1109 22.9929C32.2735 23.1555 32.3649 23.376 32.3649 23.606Z" fill="white"/>
<path d="M22.6918 31.4319L15.5208 59.232L10.4658 57.9319L17.6368 30.132L21.4178 25.923L22.6918 31.4319Z" fill="#DACC3E"/>
<path d="M10.9724 55.9624L10.8748 56.341L15.9303 57.6449L16.028 57.2663L10.9724 55.9624Z" fill="black"/>
<path d="M22.6917 31.4319L17.6367 30.132L20.0567 27.438L21.4177 25.923L21.8767 27.908L22.6917 31.4319Z" fill="white"/>
<path d="M21.8769 27.9L20.0569 27.431L21.4179 25.916L21.8769 27.9Z" fill="black"/>
<path d="M32.567 29.8849H26.543V35.9089H32.567V29.8849Z" fill="white"/>
<path d="M32.567 39.322H26.543V45.346H32.567V39.322Z" fill="white"/>
<path d="M32.567 48.7599H26.543V54.7839H32.567V48.7599Z" fill="white"/>
<path d="M54.2528 39.322H36.3818V41.645H54.2528V39.322Z" fill="#BEE9E8"/>
<path d="M38.3078 52.886L37.9338 52.773C38.0758 52.3033 38.323 51.8721 38.6566 51.5123C38.9903 51.1525 39.4016 50.8736 39.8593 50.6966C40.317 50.5197 40.8091 50.4495 41.298 50.4913C41.7869 50.5331 42.2599 50.6859 42.6808 50.938C42.9205 51.089 43.1497 51.2561 43.3669 51.438C43.5911 51.6287 43.8309 51.8003 44.0838 51.951C45.0898 52.404 46.2344 52.44 47.2668 52.0511C47.6188 51.9511 47.9738 51.8311 48.3178 51.7151C49.0516 51.4369 49.8134 51.239 50.5898 51.125L50.6328 51.514C49.8848 51.6252 49.1509 51.8167 48.4438 52.0851C48.0958 52.2031 47.7348 52.325 47.3748 52.428C46.8146 52.636 46.2187 52.7312 45.6215 52.7082C45.0243 52.6852 44.4375 52.5445 43.8948 52.294C43.6226 52.133 43.3643 51.9494 43.1228 51.745C42.9194 51.574 42.7045 51.417 42.4798 51.2751C42.1098 51.0535 41.6942 50.9192 41.2644 50.8824C40.8347 50.8457 40.4023 50.9074 40 51.0629C39.5977 51.2184 39.2362 51.4637 38.943 51.7799C38.6498 52.0962 38.4325 52.4752 38.3078 52.888V52.886Z" fill="black"/>
<path d="M54.2528 43.0229H36.3818V45.3459H54.2528V43.0229Z" fill="#BEE9E8"/>
<path d="M38.288 34.906L37.929 34.751C38.701 32.9779 39.8234 31.3792 41.2289 30.0509C42.0289 29.2999 43.173 28.725 44.012 29.364C44.2411 29.5727 44.4171 29.8332 44.5252 30.1236C44.6334 30.4141 44.6707 30.7262 44.6339 31.034C44.6279 31.223 44.61 31.412 44.593 31.595C44.5435 31.9473 44.5401 32.3047 44.5829 32.6579C44.6589 33.1109 44.9829 33.608 45.4409 33.636C45.8476 33.5903 46.2228 33.3954 46.494 33.089C46.6645 32.8974 46.8722 32.7426 47.1044 32.634C47.3367 32.5253 47.5886 32.4651 47.8449 32.4569C48.0967 32.5115 48.3343 32.6182 48.5423 32.7701C48.7504 32.922 48.9243 33.1158 49.0529 33.339C49.1791 33.5078 49.3179 33.667 49.468 33.815C49.8186 34.113 50.2714 34.2628 50.7306 34.2328C51.1897 34.2027 51.6192 33.9951 51.9279 33.654L52.228 33.9029C51.8507 34.3277 51.3214 34.5869 50.7545 34.6244C50.1876 34.6618 49.6288 34.4745 49.1989 34.1029C49.0343 33.9418 48.8822 33.7683 48.744 33.584C48.459 33.225 48.1899 32.884 47.8059 32.849C47.3949 32.885 47.0139 33.0788 46.743 33.3899C46.4005 33.769 45.9229 33.9985 45.413 34.029C45.0955 33.9754 44.8043 33.8193 44.584 33.5845C44.3636 33.3497 44.2263 33.0492 44.193 32.729C44.1449 32.3423 44.1469 31.9511 44.1989 31.565C44.2159 31.388 44.2329 31.2049 44.2379 31.0279C44.2654 30.7827 44.2377 30.5345 44.1567 30.3014C44.0757 30.0683 43.9436 29.8563 43.77 29.6809C43.126 29.1899 42.141 29.73 41.493 30.342C40.1285 31.6322 39.0384 33.1845 38.288 34.906Z" fill="black"/>
</svg>
