<svg width="67" height="67" viewBox="0 0 67 67" fill="none" xmlns="http://www.w3.org/2000/svg">
<path d="M59 0H8C3.58172 0 0 3.58172 0 8V59C0 63.4183 3.58172 67 8 67H59C63.4183 67 67 63.4183 67 59V8C67 3.58172 63.4183 0 59 0Z" fill="#5F4C9E"/>
<path d="M51.0391 22.763C50.3477 22.7758 49.675 22.5382 49.145 22.094L49.3311 21.886C49.8201 22.2559 50.4129 22.4631 51.0259 22.4783C51.6389 22.4936 52.2412 22.3161 52.748 21.9709C53.5692 21.4092 54.2056 20.6169 54.577 19.694C54.1468 19.5979 53.7465 19.3981 53.4111 19.112C53.1484 18.8919 52.9529 18.6023 52.8469 18.2765C52.7408 17.9506 52.7283 17.6015 52.811 17.269C52.8695 17.0891 52.9633 16.9226 53.087 16.7794C53.2106 16.6362 53.3616 16.5191 53.5311 16.435C53.6739 16.3594 53.8307 16.3138 53.9919 16.301C54.153 16.2883 54.3151 16.3087 54.468 16.361C54.7113 16.4658 54.9217 16.6344 55.077 16.849C55.2322 17.0636 55.3266 17.3161 55.35 17.58C55.3879 18.0785 55.312 18.5791 55.1281 19.0439C55.0771 19.1949 55.0231 19.344 54.9661 19.485C55.0661 19.499 55.16 19.508 55.249 19.514C55.9397 19.5613 56.6318 19.4449 57.2691 19.1743C57.9064 18.9037 58.4708 18.4866 58.9165 17.9568C59.3622 17.427 59.6766 16.7995 59.8341 16.1254C59.9916 15.4512 59.9878 14.7494 59.8231 14.077L60.0941 14.0099C60.2689 14.725 60.2726 15.4712 60.1049 16.1879C59.9373 16.9047 59.6029 17.5718 59.1291 18.1351C58.6552 18.6984 58.0552 19.142 57.3777 19.4299C56.7003 19.7178 55.9644 19.8418 55.23 19.792C55.115 19.784 54.988 19.771 54.856 19.75C54.464 20.7465 53.7815 21.6022 52.897 22.206C52.3438 22.5657 51.6989 22.759 51.0391 22.763ZM54.098 16.576C53.9449 16.5778 53.7943 16.6151 53.658 16.685C53.5222 16.7518 53.4012 16.845 53.3019 16.9592C53.2027 17.0734 53.1272 17.2062 53.08 17.35C53.0119 17.6311 53.0241 17.9257 53.1151 18.2003C53.2062 18.4748 53.3724 18.7183 53.595 18.903C53.9089 19.1683 54.2844 19.3505 54.6871 19.433C54.7497 19.279 54.8091 19.1193 54.8651 18.954C55.0344 18.5293 55.1062 18.0721 55.0751 17.616C55.0584 17.4028 54.9845 17.1982 54.8613 17.0234C54.7382 16.8487 54.5702 16.7104 54.3751 16.623C54.2865 16.5912 54.1931 16.5753 54.0991 16.576H54.098Z" fill="black"/>
<path d="M51.4951 50.216L14.8271 41.542L14.7661 41.303L38.8831 19.617L39.1051 19.667L51.6561 50.027L51.4951 50.216ZM15.1511 41.331L51.2941 49.881L38.9221 19.956L15.1511 41.331Z" fill="black"/>
<path d="M21.9521 19.753C21.9521 20.0845 21.8538 20.4086 21.6696 20.6842C21.4854 20.9598 21.2236 21.1747 20.9172 21.3015C20.6109 21.4283 20.2739 21.4615 19.9487 21.3967C19.6236 21.332 19.325 21.1722 19.0906 20.9377C18.8563 20.7033 18.6967 20.4045 18.6322 20.0793C18.5676 19.7542 18.6009 19.4171 18.7279 19.1109C18.855 18.8047 19.0699 18.543 19.3457 18.3589C19.6214 18.1749 19.9456 18.0768 20.2771 18.077C20.7214 18.0772 21.1475 18.254 21.4616 18.5682C21.7757 18.8825 21.9521 19.3087 21.9521 19.753Z" fill="#FF8A5B"/>
<path d="M29.037 41.373C29.037 43.849 28.3028 46.2694 26.9272 48.3282C25.5516 50.3869 23.5964 51.9915 21.3089 52.939C19.0213 53.8865 16.5041 54.1345 14.0757 53.6514C11.6473 53.1684 9.41657 51.9761 7.66576 50.2253C5.91494 48.4745 4.72263 46.2438 4.23958 43.8154C3.75653 41.3869 4.00445 38.8698 4.95198 36.5822C5.89951 34.2947 7.50411 32.3395 9.56285 30.9639C11.6216 29.5883 14.042 28.854 16.5181 28.854C18.1637 28.848 19.7943 29.1678 21.3159 29.7949C22.8374 30.4219 24.2199 31.3438 25.3836 32.5074C26.5472 33.6711 27.4692 35.0536 28.0962 36.5752C28.7232 38.0967 29.043 39.7273 29.037 41.373Z" fill="#BEE9E8"/>
<path d="M12.7971 29.907C12.5557 31.2277 11.9723 32.462 11.1051 33.487C10.2407 34.5055 9.45447 35.588 8.75312 36.725C8.40508 37.2968 8.17757 37.9337 8.08454 38.5966C7.99151 39.2596 8.03493 39.9345 8.21214 40.58C8.40298 41.1333 8.7319 41.6287 9.16776 42.0193C9.60362 42.4099 10.132 42.6828 10.7028 42.812C11.2736 42.9413 11.868 42.9228 12.4296 42.7581C12.9912 42.5934 13.5015 42.2881 13.9121 41.871C14.8634 43.2046 16.2289 44.1862 17.7961 44.663C18.5824 44.833 19.3957 44.8353 20.1829 44.6699C20.9702 44.5045 21.7137 44.175 22.3651 43.703C23.0084 43.2194 23.5182 42.5803 23.8467 41.8456C24.1752 41.1109 24.3116 40.3049 24.2431 39.503C24.0311 37.618 22.6331 36.123 21.4371 34.651C20.2411 33.179 19.1291 31.318 19.6251 29.487" fill="black"/>
<path d="M19.2952 43.379H13.1182L14.3672 35.428H18.6382L18.7151 36.363L18.9522 39.241L19.2952 43.379Z" fill="#F8C49E"/>
<path d="M18.952 39.238C18.1353 39.2418 17.3307 39.04 16.6126 38.6509C15.8945 38.2619 15.2859 37.6983 14.843 37.012C16.09 36.812 17.328 36.575 18.575 36.38C18.621 36.373 18.667 36.366 18.715 36.36L18.952 39.238Z" fill="black"/>
<path d="M21.95 33.726C21.8509 34.4759 21.5767 35.1919 21.1495 35.8161C20.7223 36.4403 20.1541 36.9551 19.491 37.319C18.8218 37.6716 18.0804 37.8653 17.3242 37.8849C16.5681 37.9045 15.8175 37.7495 15.131 37.432C14.4499 37.1033 13.8517 36.6253 13.3808 36.0335C12.9099 35.4418 12.5784 34.7515 12.411 34.014C12.2599 34.2889 12.0217 34.5057 11.7338 34.6302C11.4459 34.7548 11.1248 34.78 10.821 34.702C10.4942 34.6353 10.1894 34.4874 9.93475 34.2719C9.68012 34.0564 9.48385 33.7803 9.36401 33.469C9.17106 32.9949 9.16321 32.4656 9.342 31.986C9.43372 31.749 9.57678 31.5352 9.76092 31.36C9.94506 31.1849 10.1657 31.0527 10.407 30.973C10.6379 30.8918 10.8847 30.8666 11.1273 30.8995C11.3698 30.9323 11.601 31.0223 11.802 31.162L11.853 31.206C11.7917 29.9052 12.1801 28.623 12.953 27.575C13.3404 27.0577 13.8261 26.6218 14.3823 26.2925C14.9384 25.9632 15.5541 25.747 16.194 25.656C16.3449 25.6367 16.4969 25.6257 16.649 25.623H16.769C17.8789 25.6244 18.9454 26.0543 19.746 26.823C20.0674 27.1458 20.3412 27.5128 20.559 27.913C20.9379 28.645 21.2356 29.4163 21.447 30.213C21.8515 31.3377 22.0226 32.533 21.95 33.726Z" fill="#F8C49E"/>
<path d="M11.3652 33.375C11.2548 33.1939 11.0785 33.0627 10.8733 33.0089C10.6682 32.9552 10.4502 32.9832 10.2652 33.0869L10.1272 32.844C10.3758 32.7048 10.6684 32.6669 10.9442 32.7379C11.0691 32.7706 11.1873 32.8251 11.2932 32.899L11.1752 31.9829L11.4522 31.947L11.6242 33.284L11.3652 33.375Z" fill="black"/>
<path d="M18.2741 33.675C18.2262 33.6751 18.1785 33.6673 18.1331 33.6519L18.2211 33.387C18.2455 33.3943 18.2712 33.3965 18.2965 33.3934C18.3218 33.3903 18.3462 33.382 18.3681 33.369C18.4059 33.3503 18.4362 33.3192 18.4541 33.281C18.4671 33.1824 18.4593 33.0823 18.4311 32.987L18.0371 31.15L18.3101 31.0919L18.7031 32.929C18.7413 33.0646 18.7485 33.2072 18.7241 33.346C18.7067 33.403 18.6781 33.456 18.64 33.5019C18.6019 33.5477 18.555 33.5855 18.5021 33.6129C18.4325 33.6524 18.3541 33.6737 18.2741 33.675Z" fill="black"/>
<path d="M17.632 34.638C17.3665 34.6397 17.1105 34.5392 16.9171 34.3573C16.7237 34.1754 16.6076 33.9261 16.593 33.6609L16.872 33.646C16.8785 33.7512 16.9069 33.8538 16.9554 33.9473C17.0039 34.0409 17.0715 34.1232 17.1537 34.1891C17.2359 34.255 17.3309 34.303 17.4328 34.33C17.5346 34.357 17.641 34.3625 17.745 34.3459L17.789 34.6219C17.7372 34.6313 17.6847 34.6367 17.632 34.638Z" fill="black"/>
<path d="M16.535 31.515C16.535 31.678 16.447 31.815 16.335 31.815C16.223 31.815 16.135 31.683 16.135 31.515C16.135 31.347 16.223 31.215 16.335 31.215C16.447 31.215 16.535 31.351 16.535 31.515Z" fill="black"/>
<path d="M19.9522 31.187C19.9522 31.35 19.8642 31.487 19.7522 31.487C19.6402 31.487 19.5522 31.354 19.5522 31.187C19.5522 31.02 19.6402 30.887 19.7522 30.887C19.8642 30.887 19.9522 31.024 19.9522 31.187Z" fill="black"/>
<path d="M20.0201 30.301C20.1311 30.3085 20.2426 30.3001 20.3511 30.276C20.5301 30.21 20.5151 30.076 20.3371 29.996C20.1283 29.9258 19.9083 29.8947 19.6881 29.904C19.5301 29.8899 19.371 29.9139 19.2242 29.974C19.2 29.9849 19.1789 30.0017 19.163 30.0229C19.1471 30.0441 19.1368 30.069 19.1331 30.0953C19.1294 30.1215 19.1324 30.1483 19.1419 30.1731C19.1513 30.1979 19.1669 30.2199 19.1871 30.237C19.3741 30.422 19.7631 30.307 20.0201 30.301Z" fill="black"/>
<path d="M15.8791 30.6639C15.7712 30.6909 15.6601 30.7024 15.5491 30.698C15.3611 30.665 15.349 30.527 15.513 30.42C15.706 30.3138 15.9169 30.244 16.1351 30.214C16.2881 30.1725 16.4489 30.1681 16.604 30.201C16.6297 30.2074 16.6534 30.2202 16.6727 30.2383C16.6921 30.2563 16.7066 30.279 16.7149 30.3041C16.7232 30.3293 16.725 30.3561 16.7201 30.3821C16.7153 30.4082 16.7039 30.4325 16.6871 30.4529C16.5361 30.6669 16.1341 30.6239 15.8791 30.6639Z" fill="black"/>
<path d="M16.7662 25.62C16.7532 25.671 16.7392 25.72 16.7242 25.773C16.381 26.9902 15.7635 28.1125 14.9192 29.054C14.0748 29.9954 13.026 30.7309 11.8532 31.204C11.7919 29.9032 12.1803 28.621 12.9532 27.573C13.3406 27.0557 13.8264 26.6199 14.3825 26.2906C14.9387 25.9613 15.5543 25.745 16.1942 25.654C16.3452 25.6347 16.4971 25.6237 16.6492 25.621L16.7662 25.62Z" fill="black"/>
<path d="M20.5551 27.908C19.7852 27.8691 19.03 27.682 18.3311 27.357C17.6487 27.0018 17.0885 26.45 16.7231 25.773C16.6951 25.723 16.669 25.673 16.644 25.621H16.7641C17.874 25.6224 18.9405 26.0523 19.7411 26.821C20.0626 27.1428 20.3367 27.5088 20.5551 27.908Z" fill="black"/>
<path d="M11.6481 27.276C11.8403 27.4504 12.0792 27.5649 12.3355 27.6056C12.5918 27.6463 12.8544 27.6113 13.0911 27.505C13.3173 27.3952 13.5121 27.2302 13.6575 27.0251C13.803 26.8201 13.8944 26.5817 13.9233 26.332C13.9522 26.0823 13.9177 25.8294 13.8229 25.5965C13.7282 25.3637 13.5762 25.1585 13.3811 25C13.1892 24.8502 12.9608 24.7543 12.7195 24.7222C12.4781 24.69 12.2326 24.7227 12.0082 24.8169C11.8052 24.9401 11.6318 25.1066 11.5006 25.3045C11.3694 25.5024 11.2836 25.7268 11.2492 25.9617C11.2148 26.1966 11.2327 26.4362 11.3017 26.6634C11.3706 26.8906 11.489 27.0998 11.6481 27.276Z" fill="black"/>
<path d="M27.8891 46.616C26.9047 48.7484 25.3406 50.5612 23.3752 51.847C21.4097 53.1329 19.1223 53.8402 16.7741 53.8881C14.4259 53.9359 12.1116 53.3225 10.0954 52.1177C8.07925 50.913 6.44248 49.1656 5.37207 47.075C5.93707 45.665 6.84709 43.631 7.48309 43.375C8.46809 42.981 13.3831 41.732 13.3831 41.732C13.3831 41.732 17.5071 43.887 19.1661 41.666C19.1661 41.666 23.9141 41.666 24.8331 42.257C25.5551 42.724 27.2151 45.467 27.8891 46.616Z" fill="#FF8A5B"/>
<path d="M37.117 49.784C37.117 52.2598 37.8512 54.68 39.2266 56.7385C40.6021 58.7971 42.5571 60.4015 44.8444 61.349C47.1317 62.2965 49.6486 62.5444 52.0768 62.0615C54.505 61.5786 56.7355 60.3865 58.4862 58.6359C60.2369 56.8853 61.4292 54.6549 61.9124 52.2267C62.3955 49.7985 62.1478 47.2816 61.2005 44.9943C60.2532 42.7069 58.6489 40.7518 56.5904 39.3761C54.532 38.0005 52.1118 37.2662 49.636 37.266C47.9904 37.26 46.3599 37.5797 44.8384 38.2067C43.3169 38.8337 41.9345 39.7555 40.7708 40.9191C39.6072 42.0827 38.6853 43.465 38.0582 44.9864C37.4311 46.5079 37.1112 48.1384 37.117 49.784Z" fill="#DACC3E"/>
<path d="M46.8621 51.788H53.0391L51.7901 43.837H47.5191L47.4411 44.772L47.2041 47.65L46.8621 51.788Z" fill="#B77548"/>
<path d="M47.2051 47.649C48.0218 47.6529 48.8264 47.451 49.5446 47.062C50.2627 46.6729 50.8713 46.1092 51.3141 45.4229C50.0671 45.2229 48.8291 44.986 47.5821 44.791C47.5361 44.784 47.4901 44.777 47.4421 44.771L47.2051 47.649Z" fill="black"/>
<path d="M56.792 41.878C56.6721 42.1892 56.4757 42.4653 56.2211 42.6808C55.9665 42.8962 55.6618 43.0441 55.335 43.1109C55.0311 43.1889 54.7099 43.1635 54.422 43.0388C54.1341 42.914 53.8959 42.697 53.745 42.422C53.5777 43.1595 53.2463 43.8498 52.7754 44.4416C52.3045 45.0334 51.7061 45.5113 51.025 45.8399C50.3385 46.1576 49.5881 46.3128 48.8319 46.2934C48.0758 46.2739 47.3342 46.0804 46.665 45.7279C46.0018 45.3641 45.4337 44.8493 45.0065 44.2251C44.5793 43.6009 44.3051 42.8849 44.206 42.135C44.1337 40.9394 44.3062 39.7416 44.713 38.615C44.813 38.277 44.919 37.9349 45.038 37.5999C45.1905 37.1585 45.3791 36.7304 45.602 36.32C45.8203 35.9199 46.0943 35.5529 46.416 35.2299C47.2162 34.4607 48.283 34.0307 49.393 34.0299H49.513C49.6652 34.0326 49.817 34.0436 49.968 34.063C50.6078 34.1538 51.2234 34.37 51.7795 34.6991C52.3357 35.0282 52.8214 35.4638 53.209 35.9809C53.7767 36.7451 54.1383 37.6426 54.259 38.5869C54.304 38.9266 54.3195 39.2696 54.305 39.612L54.356 39.568C54.5568 39.4285 54.7879 39.3386 55.0302 39.3057C55.2725 39.2728 55.5193 39.2979 55.75 39.3789C55.9913 39.4586 56.212 39.5908 56.3961 39.766C56.5803 39.9411 56.7234 40.1549 56.815 40.3919C56.9943 40.8726 56.986 41.4031 56.792 41.878Z" fill="#B77548"/>
<path d="M54.7919 41.787L54.5349 41.697L54.7069 40.36L54.9839 40.396L54.8659 41.312C54.9718 41.2381 55.09 41.1836 55.2149 41.151C55.4907 41.08 55.7833 41.118 56.0319 41.257L55.8939 41.5C55.709 41.3962 55.4909 41.3683 55.2858 41.422C55.0806 41.4757 54.9043 41.6068 54.7939 41.7879L54.7919 41.787Z" fill="black"/>
<path d="M47.883 42.0869C47.802 42.0863 47.7224 42.0649 47.652 42.0249C47.5991 41.9974 47.5522 41.9597 47.5141 41.9138C47.476 41.868 47.4474 41.815 47.43 41.758C47.4055 41.6192 47.4127 41.4766 47.451 41.341L47.844 39.5039L48.117 39.563L47.724 41.3999C47.6957 41.4952 47.6879 41.5954 47.701 41.6939C47.719 41.7318 47.7493 41.7625 47.787 41.781C47.8089 41.794 47.8333 41.8023 47.8586 41.8054C47.8839 41.8085 47.9096 41.8063 47.934 41.799L48.022 42.0639C47.9771 42.0789 47.9302 42.0867 47.883 42.0869Z" fill="black"/>
<path d="M48.525 43.049C48.4724 43.0489 48.4199 43.045 48.3679 43.037L48.4119 42.761C48.516 42.7775 48.6223 42.7721 48.7242 42.7451C48.826 42.718 48.9211 42.67 49.0033 42.6041C49.0855 42.5382 49.153 42.4558 49.2015 42.3623C49.25 42.2688 49.2784 42.1661 49.2849 42.061L49.564 42.076C49.5496 42.3412 49.4336 42.5906 49.2401 42.7725C49.0466 42.9545 48.7905 43.0549 48.525 43.053V43.049Z" fill="black"/>
<path d="M49.6221 39.9269C49.6221 40.0909 49.7101 40.227 49.8221 40.227C49.9341 40.227 50.0221 40.0949 50.0221 39.9269C50.0221 39.7589 49.9341 39.627 49.8221 39.627C49.7101 39.627 49.6221 39.7629 49.6221 39.9269Z" fill="black"/>
<path d="M46.2051 39.599C46.2051 39.763 46.293 39.899 46.405 39.899C46.517 39.899 46.605 39.767 46.605 39.599C46.605 39.431 46.516 39.299 46.405 39.299C46.294 39.299 46.2051 39.436 46.2051 39.599Z" fill="black"/>
<path d="M46.1371 38.713C46.0264 38.7204 45.9153 38.712 45.807 38.688C45.628 38.622 45.643 38.488 45.821 38.408C46.0299 38.3378 46.2499 38.3067 46.4701 38.316C46.6278 38.3019 46.7865 38.3259 46.933 38.386C46.9572 38.3969 46.9783 38.4137 46.9942 38.4349C47.0101 38.4561 47.0204 38.481 47.0241 38.5073C47.0278 38.5335 47.0247 38.5603 47.0153 38.5851C47.0058 38.6099 46.9903 38.6319 46.9701 38.649C46.7831 38.832 46.3951 38.719 46.1371 38.713Z" fill="black"/>
<path d="M50.2781 39.076C50.386 39.1026 50.4971 39.1137 50.6081 39.1089C50.7961 39.0759 50.808 38.9379 50.644 38.8299C50.4509 38.7243 50.2402 38.6548 50.0221 38.6249C49.869 38.5835 49.7083 38.579 49.5531 38.6119C49.5274 38.6184 49.5038 38.6312 49.4844 38.6493C49.465 38.6673 49.4505 38.6899 49.4422 38.7151C49.4339 38.7402 49.4321 38.7671 49.437 38.7931C49.4419 38.8191 49.4533 38.8435 49.4701 38.8639C49.6201 39.0789 50.0231 39.036 50.2781 39.076Z" fill="black"/>
<path d="M51.7951 33.7169C51.5387 33.9482 51.2204 34.0997 50.8793 34.153C50.5381 34.2062 50.1888 34.159 49.8741 34.0169C49.573 33.8707 49.3137 33.6509 49.1201 33.3779C48.9265 33.1049 48.8049 32.7876 48.7665 32.4551C48.7282 32.1226 48.7743 31.7858 48.9006 31.4759C49.0269 31.166 49.2293 30.8929 49.4891 30.682C49.7445 30.4827 50.0484 30.3551 50.3696 30.3124C50.6907 30.2697 51.0175 30.3133 51.3161 30.4389C51.5871 30.6028 51.8184 30.8246 51.9935 31.0885C52.1686 31.3523 52.2832 31.6516 52.329 31.9649C52.3748 32.2782 52.3506 32.5979 52.2583 32.9008C52.166 33.2037 52.0078 33.4824 51.7951 33.7169Z" fill="black"/>
<path d="M38.2681 55.028C39.2524 57.1604 40.8166 58.9731 42.782 60.259C44.7474 61.5449 47.0348 62.2522 49.383 62.3C51.7312 62.3479 54.0456 61.7345 56.0618 60.5297C58.0779 59.325 59.7147 57.5775 60.7851 55.4869C60.2201 54.0769 59.0301 51.387 58.3941 51.131C56.5422 50.6937 54.6663 50.3647 52.7761 50.1459C52.7761 50.1459 48.8001 53.563 46.9931 50.08C46.9931 50.08 42.4261 50.474 41.5061 51.066C40.2489 52.2307 39.1592 53.564 38.2681 55.028Z" fill="#6987F3"/>
<path d="M54.2579 38.591C53.4409 38.8398 52.5662 38.8252 51.7579 38.549C51.0183 38.2889 50.367 37.8256 49.8788 37.2121C49.3907 36.5987 49.0854 35.8601 48.9979 35.081C48.5915 35.7909 48.0183 36.3913 47.3278 36.83C46.6373 37.2687 45.8503 37.5326 45.0349 37.599C45.1874 37.1575 45.376 36.7294 45.5989 36.3189C45.8172 35.9188 46.0912 35.5519 46.4129 35.229C47.2132 34.4597 48.2799 34.0297 49.3899 34.029H49.5099C49.662 34.0316 49.814 34.0426 49.9649 34.062C50.6047 34.1529 51.2203 34.369 51.7764 34.6982C52.3326 35.0273 52.8184 35.4628 53.2059 35.9799C53.7752 36.7454 54.1376 37.6447 54.2579 38.591Z" fill="black"/>
<path d="M51.281 19.753C51.2828 23.0341 49.9957 26.1847 47.6969 28.5259C45.3981 30.8672 42.2716 32.2118 38.991 32.27H38.763H38.526C36.1744 32.2266 33.8826 31.5218 31.913 30.2364C29.9434 28.9511 28.3755 27.137 27.389 25.002C27.281 24.7673 27.181 24.5287 27.089 24.286C26.4235 22.5712 26.1441 20.7307 26.2706 18.8957C26.3971 17.0606 26.9264 15.276 27.8208 13.6687C28.7152 12.0614 29.9528 10.6709 31.4456 9.59618C32.9384 8.52142 34.6496 7.78877 36.4576 7.45036C38.2656 7.11196 40.126 7.17611 41.9064 7.63823C43.6868 8.10035 45.3436 8.94905 46.7588 10.1241C48.174 11.2991 49.3128 12.7715 50.0945 14.4366C50.8761 16.1017 51.2812 17.9186 51.281 19.758V19.753Z" fill="#FF8A5B"/>
<path d="M35.99 21.762H42.167L40.918 13.811H36.647L36.569 14.746L36.332 17.624L35.99 21.762Z" fill="#F8C49E"/>
<path d="M36.333 17.619C37.1497 17.6225 37.9541 17.4206 38.6722 17.0316C39.3903 16.6425 39.9989 16.0791 40.442 15.393C39.195 15.193 37.957 14.956 36.71 14.761C36.664 14.754 36.618 14.746 36.57 14.741L36.333 17.619Z" fill="black"/>
<path d="M45.9211 11.847C45.801 12.1581 45.6046 12.4341 45.35 12.6495C45.0954 12.865 44.7908 13.013 44.4641 13.08C44.1602 13.1579 43.839 13.1326 43.5511 13.0078C43.2632 12.8831 43.025 12.6661 42.8741 12.391C42.7068 13.1286 42.3754 13.8189 41.9045 14.4107C41.4335 15.0024 40.8353 15.4804 40.1541 15.809C39.4676 16.1266 38.7172 16.2818 37.961 16.2624C37.2048 16.243 36.4633 16.0495 35.7941 15.697C35.1312 15.3336 34.5632 14.8195 34.1359 14.196C33.7085 13.5725 33.4339 12.8572 33.3341 12.108C33.262 10.9124 33.4345 9.71461 33.8411 8.58796C34.0862 7.59559 34.4915 6.64985 35.0411 5.78797C35.0961 5.71097 35.1541 5.63498 35.2141 5.56098C35.3151 5.43457 35.4236 5.31437 35.5391 5.201C36.0069 4.75447 36.5687 4.4182 37.1833 4.2168C37.7979 4.01541 38.4497 3.95397 39.0911 4.03699C39.731 4.12795 40.3466 4.34423 40.9028 4.67353C41.4589 5.00283 41.9446 5.43867 42.3321 5.956C42.4649 6.13214 42.5865 6.31651 42.6961 6.508C42.894 6.85628 43.0533 7.22511 43.1711 7.60798C43.2017 7.70465 43.2294 7.80234 43.2541 7.90101C43.3943 8.4525 43.4532 9.02146 43.4291 9.58997C43.6306 9.43224 43.8689 9.32817 44.1216 9.28742C44.3743 9.24668 44.6331 9.27062 44.8741 9.357C45.1152 9.43687 45.3356 9.56913 45.5196 9.74427C45.7035 9.91941 45.8465 10.1331 45.9381 10.37C46.1169 10.8472 46.1108 11.374 45.9211 11.847Z" fill="#F8C49E"/>
<path d="M43.9211 11.756L43.6631 11.666L43.8351 10.329L44.1121 10.365L43.9941 11.281C44.0999 11.2067 44.218 11.1518 44.3431 11.119C44.6189 11.0481 44.9114 11.086 45.16 11.225L45.0231 11.468C44.8381 11.3642 44.6201 11.3362 44.4149 11.39C44.2098 11.4437 44.0334 11.5749 43.923 11.756H43.9211Z" fill="black"/>
<path d="M37.0109 12.055C36.93 12.0546 36.8504 12.0336 36.7799 11.994C36.7271 11.9664 36.6805 11.9285 36.6425 11.8827C36.6046 11.8368 36.5761 11.7839 36.5589 11.727C36.5344 11.5882 36.5416 11.4457 36.5799 11.31L36.9729 9.47296L37.2459 9.53198L36.8529 11.369C36.8247 11.4643 36.8168 11.5644 36.8299 11.663C36.8481 11.7007 36.8783 11.7313 36.9159 11.75C36.9377 11.7632 36.9621 11.7716 36.9875 11.7747C37.0128 11.7778 37.0385 11.7755 37.0629 11.768L37.1509 12.033C37.1057 12.0479 37.0584 12.0553 37.0109 12.055Z" fill="black"/>
<path d="M37.6499 13.019C37.5973 13.019 37.5449 13.015 37.4929 13.007L37.5369 12.731C37.641 12.7475 37.7473 12.7421 37.8492 12.7151C37.951 12.688 38.0461 12.64 38.1283 12.5741C38.2105 12.5082 38.278 12.4258 38.3265 12.3323C38.375 12.2388 38.4034 12.1361 38.4099 12.031L38.6889 12.047C38.6745 12.3122 38.5585 12.5616 38.3651 12.7436C38.1716 12.9255 37.9155 13.0259 37.6499 13.024V13.019Z" fill="black"/>
<path d="M38.75 9.89594C38.75 10.0589 38.839 10.196 38.95 10.196C39.061 10.196 39.15 10.0629 39.15 9.89594C39.15 9.72894 39.062 9.59595 38.95 9.59595C38.838 9.59595 38.75 9.73194 38.75 9.89594Z" fill="black"/>
<path d="M35.3301 9.56699C35.3301 9.72999 35.4181 9.86697 35.5301 9.86697C35.6421 9.86697 35.7301 9.73499 35.7301 9.56699C35.7301 9.39899 35.6421 9.267 35.5301 9.267C35.4181 9.267 35.3301 9.40399 35.3301 9.56699Z" fill="black"/>
<path d="M39.3641 9.01496C39.462 9.04059 39.564 9.04634 39.6641 9.03193C39.8401 8.97493 39.8641 8.79697 39.7191 8.67097C39.5541 8.55203 39.3612 8.47763 39.1591 8.45497C39.0165 8.41347 38.8642 8.42046 38.7261 8.47493C38.6711 8.50761 38.6303 8.55971 38.6118 8.62098C38.5933 8.68225 38.5983 8.74823 38.6261 8.80592C38.7551 9.07492 39.1311 8.98896 39.3641 9.01496Z" fill="black"/>
<path d="M35.339 8.72997C35.2381 8.74105 35.1361 8.73151 35.039 8.70195C34.874 8.61895 34.88 8.44096 35.039 8.33696C35.2199 8.2441 35.4217 8.19933 35.625 8.20696C35.772 8.18735 35.9214 8.21686 36.05 8.29094C36.0989 8.33195 36.1308 8.38978 36.1393 8.45305C36.1478 8.51632 36.1324 8.58051 36.096 8.63298C35.934 8.87598 35.574 8.73497 35.339 8.72997Z" fill="black"/>
<path d="M50.5291 24.035C50.3523 24.5208 50.1452 24.995 49.9091 25.455C48.8764 27.4728 47.3152 29.1724 45.3922 30.3725C43.4692 31.5726 41.2564 32.228 38.9901 32.269H38.7621H38.5251C36.1735 32.2246 33.8819 31.5188 31.9128 30.2325C29.9437 28.9463 28.3767 27.1315 27.3911 24.996C27.2831 24.7613 27.1831 24.5226 27.0911 24.28C27.8343 23.1183 28.7146 22.0503 29.7131 21.0989C30.6331 20.5079 36.1201 20.0469 36.1201 20.0469C37.1381 23.1359 41.9031 20.113 41.9031 20.113C41.9031 20.113 47.7941 20.947 48.7031 21.493C49.5082 22.1803 50.1348 23.0525 50.5291 24.035Z" fill="#DACC3E"/>
<path d="M43.432 9.58499C43.1869 9.44531 42.9718 9.25853 42.7992 9.03543C42.6265 8.81233 42.4997 8.5573 42.426 8.285C42.2811 7.73007 42.2095 7.15853 42.213 6.58499C42.3793 6.60491 42.5479 6.57714 42.699 6.50497C43.2266 7.44288 43.4805 8.50998 43.432 9.58499Z" fill="black"/>
<path d="M35.096 5.67999C34.7538 5.75286 34.4454 5.93713 34.219 6.20398C34.1167 6.37647 34.0725 6.57728 34.093 6.77679C34.1136 6.97631 34.1977 7.16392 34.333 7.31195C34.4727 7.45564 34.6439 7.56492 34.8331 7.63104C35.0223 7.69717 35.2243 7.71837 35.4231 7.69299C35.8216 7.63797 36.1964 7.47118 36.5041 7.21198C36.8503 6.93976 37.1519 6.61521 37.398 6.25" fill="black"/>
<path d="M43.175 7.60098C42.9931 7.00753 42.7099 6.44999 42.338 5.95297C41.9506 5.43564 41.4649 4.99985 40.9088 4.67056C40.3526 4.34126 39.7369 4.12498 39.097 4.03402C38.4558 3.95115 37.8042 4.01262 37.1898 4.21401C36.5754 4.41541 36.0138 4.75164 35.546 5.19802C35.4307 5.31149 35.3221 5.43169 35.221 5.55801L31.783 4.67501L31.717 4.93002L35.048 5.785L43.26 7.89401C43.2333 7.79534 43.205 7.69764 43.175 7.60098Z" fill="#6987F3"/>
<path d="M28.1962 53.543L22.7742 52.758L24.1631 46.321L28.1962 53.543ZM23.1102 52.525L27.6761 53.186L24.2762 47.1039L23.1102 52.525Z" fill="black"/>
</svg>
