<svg width="67" height="67" viewBox="0 0 67 67" fill="none" xmlns="http://www.w3.org/2000/svg">
<mask id="mask0_10_8614" style="mask-type:alpha" x="0" y="0" width="67" height="67">
<path d="M59 0H8C3.58172 0 0 3.58172 0 8V59C0 63.4183 3.58172 67 8 67H59C63.4183 67 67 63.4183 67 59V8C67 3.58172 63.4183 0 59 0Z" fill="#FCA6A5"/>
</mask>
<g mask="url(#mask0_10_8614)">
<path d="M49.5481 50.3168L60.7071 51.1908L59.576 36.6498L51.86 36.0498L51.5881 37.7278L50.7521 42.8928L49.5481 50.3168Z" fill="#F8C49E"/>
<path d="M50.752 42.8898C52.227 43.0123 53.7092 42.7614 55.0617 42.1602C56.4142 41.559 57.5936 40.6269 58.491 39.4498C56.265 38.9208 54.063 38.3088 51.837 37.7798C51.755 37.7598 51.672 37.7408 51.587 37.7238L50.752 42.8898Z" fill="black"/>
<path d="M68.6569 35.2158C68.3479 35.7351 67.9131 36.1682 67.3927 36.4752C66.8722 36.7823 66.2829 36.9534 65.6789 36.9728C65.1122 37.0195 64.5461 36.8761 64.0699 36.5654C63.5936 36.2547 63.2345 35.7943 63.0489 35.2568C62.5255 36.5229 61.723 37.6546 60.7015 38.5676C59.68 39.4806 58.4656 40.1513 57.1489 40.5298C55.8255 40.8869 54.4376 40.9344 53.0929 40.6686C51.7482 40.4027 50.4829 39.8307 49.3949 38.9968C48.3225 38.1437 47.4657 37.0503 46.8938 35.8049C46.322 34.5596 46.0511 33.1972 46.1029 31.8278C46.3404 29.6697 47.0158 27.5828 48.0879 25.6948C48.3689 25.1218 48.6609 24.5448 48.9779 23.9798C49.0926 23.7758 49.2099 23.5735 49.3299 23.3728L49.3749 23.2998C49.4809 23.1248 49.5929 22.9508 49.7059 22.7818C49.9169 22.4658 50.1389 22.1588 50.3749 21.8658C50.8861 21.2165 51.4879 20.644 52.1619 20.1658C53.4104 19.3127 54.8838 18.8488 56.3959 18.8328H56.5459C56.9814 18.8336 57.4161 18.869 57.8459 18.9388C57.9169 18.9488 57.9879 18.9638 58.0609 18.9768C58.3309 19.0295 58.5979 19.0963 58.8609 19.1768C59.9755 19.5354 61.0084 20.1101 61.9007 20.8682C62.7929 21.6262 63.527 22.5528 64.0609 23.5948C64.77 24.9891 65.141 26.5306 65.1439 28.0948C65.1439 28.2538 65.1439 28.4128 65.1379 28.5728C65.1236 28.9939 65.0828 29.4138 65.0159 29.8298C64.9859 30.0298 64.9499 30.2238 64.9089 30.4168L65.0089 30.3548C65.4102 30.1671 65.8504 30.0772 66.2931 30.0927C66.7359 30.1082 67.1687 30.2285 67.5559 30.4438C67.9626 30.6593 68.3164 30.9624 68.5917 31.3313C68.867 31.7002 69.057 32.1256 69.1479 32.5768C69.3216 33.4869 69.1462 34.429 68.6569 35.2158Z" fill="#F8C49E"/>
<path d="M64.8969 34.6978L64.5459 34.5028L65.2929 32.0728L65.6849 32.1928L65.1329 33.9928C65.4841 33.7977 65.8859 33.7125 66.2861 33.7481C66.6864 33.7838 67.0667 33.9387 67.3779 34.1928L67.1189 34.5108C66.7964 34.2473 66.3838 34.12 65.9689 34.1559C65.554 34.1917 65.1695 34.3879 64.8969 34.7028V34.6978Z" fill="black"/>
<path d="M52.8171 32.8268C52.6347 32.8253 52.4582 32.7614 52.3171 32.6458C52.2356 32.5851 52.167 32.5088 52.1155 32.4212C52.064 32.3336 52.0305 32.2365 52.0171 32.1358C52.0166 31.8874 52.072 31.642 52.1791 31.4178L53.4431 28.2568L53.8241 28.4088L52.5601 31.5698C52.4776 31.7379 52.4319 31.9216 52.4261 32.1088C52.4529 32.2023 52.5116 32.2834 52.592 32.3382C52.6723 32.393 52.7693 32.418 52.8661 32.4088L52.9281 32.8138C52.8915 32.8209 52.8543 32.8252 52.8171 32.8268Z" fill="black"/>
<path d="M53.8549 34.7608C53.6571 34.7617 53.4605 34.7299 53.2729 34.6668L53.4049 34.2788C53.5926 34.3424 53.7916 34.3659 53.989 34.3478C54.1864 34.3297 54.3778 34.2704 54.5508 34.1737C54.7239 34.077 54.8747 33.9451 54.9936 33.7865C55.1125 33.6278 55.1967 33.446 55.2409 33.2528L55.6409 33.3438C55.5491 33.7481 55.3221 34.1089 54.9973 34.3666C54.6725 34.6243 54.2695 34.7633 53.8549 34.7608Z" fill="black"/>
<path d="M56.449 29.5388C56.399 29.8308 56.5161 30.0938 56.7111 30.1278C56.9061 30.1618 57.1031 29.9518 57.1531 29.6598C57.2031 29.3678 57.0861 29.1048 56.8911 29.0708C56.6961 29.0368 56.499 29.2478 56.449 29.5388Z" fill="black"/>
<path d="M50.4439 27.9068C50.3939 28.1988 50.5119 28.4618 50.7059 28.4958C50.8999 28.5298 51.0979 28.3198 51.1479 28.0278C51.1979 27.7358 51.0808 27.4728 50.8868 27.4388C50.6928 27.4048 50.4939 27.6158 50.4439 27.9068Z" fill="black"/>
<path d="M50.5929 26.3028C50.3929 26.2822 50.1969 26.2331 50.0109 26.1568C49.7109 25.9848 49.7789 25.7438 50.1209 25.6568C50.5153 25.5955 50.9176 25.607 51.3079 25.6908C51.594 25.7137 51.8704 25.8049 52.1139 25.9568C52.1536 25.9838 52.1859 26.0203 52.2077 26.0631C52.2295 26.1059 52.2401 26.1534 52.2386 26.2014C52.2371 26.2494 52.2235 26.2962 52.1991 26.3375C52.1747 26.3789 52.1402 26.4133 52.0989 26.4378C51.7109 26.7148 51.0549 26.3938 50.5929 26.3028Z" fill="black"/>
<path d="M57.88 28.2188C58.064 28.2996 58.2587 28.3538 58.458 28.3798C58.803 28.3798 58.863 28.1358 58.608 27.8938C58.2952 27.6456 57.9397 27.4565 57.559 27.3358C57.2986 27.2145 57.013 27.1572 56.726 27.1688C56.6781 27.1727 56.6321 27.1886 56.592 27.2151C56.552 27.2416 56.5192 27.2777 56.4969 27.3202C56.4745 27.3627 56.4633 27.4102 56.4642 27.4582C56.4651 27.5062 56.4781 27.5532 56.502 27.5948C56.704 28.0248 57.436 28.0738 57.88 28.2188Z" fill="black"/>
<path d="M19.452 45.3838L7.98096 45.4528L10.2109 30.6738L18.1429 30.6258L18.298 32.3618L18.7709 37.7028L19.452 45.3838Z" fill="#B77548"/>
<path d="M18.77 37.7018C17.2534 37.7179 15.7571 37.352 14.4191 36.6377C13.0811 35.9235 11.9445 34.8839 11.114 33.6148C13.428 33.2378 15.724 32.7758 18.038 32.3988C18.123 32.3848 18.21 32.3708 18.298 32.3608L18.77 37.7018Z" fill="black"/>
<path d="M0.901949 27.0878C1.12793 27.6644 1.49534 28.1749 1.97031 28.5722C2.44528 28.9696 3.01256 29.2411 3.61997 29.3618C4.18566 29.5033 4.78235 29.4522 5.31583 29.2168C5.8493 28.9814 6.28915 28.575 6.56595 28.0618C6.88434 29.43 7.50729 30.7087 8.3884 31.8028C9.26951 32.8969 10.3861 33.7781 11.6549 34.3808C12.9331 34.9627 14.3283 35.2422 15.732 35.1976C17.1357 35.1531 18.5102 34.7856 19.7489 34.1238C20.9764 33.4407 22.0259 32.4782 22.8123 31.3143C23.5988 30.1503 24.1002 28.8175 24.276 27.4238C24.3969 25.2026 24.0628 22.9802 23.294 20.8928C22.9068 19.4858 22.3791 18.1213 21.719 16.8198C21.6603 16.7138 21.6009 16.6085 21.5409 16.5038C21.3819 16.2308 21.2109 15.9668 21.0269 15.7108C20.9269 15.5668 20.817 15.4278 20.703 15.2908L20.6789 15.2628C20.4983 15.0389 20.304 14.8265 20.097 14.6268C18.5632 13.1739 16.517 12.3866 14.4049 12.4368C14.0982 12.4403 13.7919 12.4627 13.4879 12.5038C12.3002 12.6796 11.1588 13.0881 10.1292 13.7058C9.09958 14.3236 8.20201 15.1385 7.48795 16.1038C7.24395 16.4319 7.02117 16.7753 6.82096 17.1318C6.45638 17.7782 6.1646 18.4631 5.95096 19.1738C5.89496 19.3528 5.84292 19.5358 5.79892 19.7188C5.54579 20.7452 5.44275 21.8028 5.49295 22.8588C5.11781 22.5671 4.6746 22.3757 4.20505 22.3025C3.73549 22.2294 3.25502 22.277 2.80893 22.4408C2.36186 22.5916 1.95368 22.8395 1.61362 23.1666C1.27356 23.4937 1.01005 23.8919 0.841952 24.3328C0.515268 25.2261 0.536685 26.2096 0.901949 27.0878Z" fill="#B77548"/>
<path d="M4.65997 26.8718L5.03796 26.7368L4.70197 24.2558L4.29596 24.3108L4.54297 26.1358C4.23268 25.8916 3.85655 25.7458 3.46277 25.7169C3.06899 25.688 2.67558 25.7775 2.33301 25.9738L2.53296 26.3298C2.88778 26.1265 3.30779 26.0693 3.70404 26.1703C4.10029 26.2713 4.44173 26.5225 4.65601 26.8708L4.65997 26.8718Z" fill="black"/>
<path d="M17.4438 27.3238C17.5864 27.3228 17.7263 27.2849 17.8499 27.2138C17.9413 27.166 18.0222 27.1004 18.088 27.0209C18.1538 26.9414 18.203 26.8496 18.2328 26.7508C18.274 26.5002 18.2586 26.2437 18.1879 25.9998L17.4369 22.5928L17.0369 22.6808L17.7878 26.0878C17.8435 26.2724 17.8589 26.4668 17.8329 26.6578C17.798 26.7447 17.7325 26.8158 17.6489 26.8578C17.6018 26.8864 17.5492 26.9046 17.4946 26.9113C17.4399 26.9181 17.3844 26.9131 17.3318 26.8968L17.2048 27.2868C17.282 27.3118 17.3627 27.3243 17.4438 27.3238Z" fill="black"/>
<path d="M16.2519 29.1208C16.3504 29.1207 16.4487 29.1127 16.5459 29.0968L16.4799 28.6968C16.2788 28.7299 16.0729 28.7205 15.8756 28.6691C15.6783 28.6177 15.494 28.5255 15.3346 28.3985C15.1752 28.2715 15.0441 28.1124 14.95 27.9316C14.8558 27.7508 14.8006 27.5523 14.7879 27.3488L14.3789 27.3738C14.4093 27.849 14.6201 28.2946 14.9683 28.6194C15.3165 28.9442 15.7757 29.1236 16.2519 29.1208Z" fill="black"/>
<path d="M14.1939 23.3878C14.1939 23.6878 14.033 23.9378 13.831 23.9388C13.629 23.9398 13.4639 23.6958 13.4619 23.3918C13.4599 23.0878 13.6229 22.8408 13.8249 22.8398C14.0269 22.8388 14.1919 23.0848 14.1939 23.3878Z" fill="black"/>
<path d="M20.536 22.7408C20.536 23.0408 20.375 23.2908 20.173 23.2918C19.971 23.2928 19.806 23.0488 19.804 22.7448C19.802 22.4408 19.965 22.1938 20.167 22.1938C20.369 22.1938 20.534 22.4368 20.536 22.7408Z" fill="black"/>
<path d="M13.0439 21.7718C12.861 21.8217 12.6698 21.834 12.482 21.8078C12.155 21.7078 12.115 21.3738 12.376 21.1388C12.6814 20.9158 13.0393 20.7756 13.415 20.7318C13.6778 20.654 13.9589 20.6649 14.215 20.7628C14.316 20.8241 14.3906 20.9209 14.4242 21.0342C14.4579 21.1475 14.4481 21.2693 14.397 21.3758C14.176 21.8648 13.4759 21.7098 13.0439 21.7718Z" fill="black"/>
<path d="M20.516 21.1868C20.7048 21.2065 20.8956 21.1878 21.077 21.1318C21.383 20.9758 21.37 20.6448 21.077 20.4538C20.7395 20.283 20.3638 20.202 19.9859 20.2188C19.7125 20.1837 19.4351 20.24 19.1969 20.3788C19.107 20.4555 19.0488 20.5629 19.0339 20.6801C19.0189 20.7974 19.0482 20.916 19.116 21.0128C19.416 21.4638 20.08 21.1978 20.516 21.1868Z" fill="black"/>
<path d="M40.615 67.7438C40.615 67.7438 32.48 45.0438 29.467 43.8438C26.454 42.6438 19.1219 41.6638 19.1219 41.6638C19.1219 41.6638 15.863 47.0468 8.60498 41.3278C8.60498 41.3278 -1.76606 42.9408 -3.17206 44.3468C-4.57806 45.7528 -9.49902 67.7468 -9.49902 67.7468L40.615 67.7438Z" fill="#FED766"/>
<path d="M5.49689 22.8628C6.58441 21.9909 7.47755 20.9012 8.1189 19.6637C8.76024 18.4261 9.13565 17.0681 9.22095 15.6768C11.956 15.9426 14.6948 15.2091 16.9309 13.6118C17.4537 14.3912 18.1343 15.0522 18.9288 15.5517C19.7233 16.0513 20.6139 16.3784 21.5429 16.5118C21.3839 16.2388 21.2129 15.9748 21.0289 15.7188C20.9289 15.5748 20.8189 15.4358 20.7049 15.2988L20.6809 15.2708C20.5003 15.0469 20.306 14.8345 20.0989 14.6348C18.5652 13.1819 16.519 12.3946 14.4069 12.4448C14.1002 12.4483 13.7939 12.4707 13.4899 12.5118C12.3022 12.6876 11.1608 13.0961 10.1312 13.7139C9.10156 14.3316 8.20399 15.1465 7.48993 16.1118C7.24593 16.4399 7.02315 16.7833 6.82294 17.1398C6.45838 17.7862 6.1666 18.4711 5.95294 19.1818C5.89694 19.3608 5.8449 19.5438 5.8009 19.7268C5.54883 20.752 5.44642 21.8083 5.49689 22.8628Z" fill="black"/>
<path d="M31.533 67.7428C31.533 67.7428 35.576 52.5778 38.388 51.1708C41.2 49.7638 50.139 46.6558 50.139 46.6558C50.139 46.6558 52.239 51.8868 60.427 47.6108C60.427 47.6108 69.494 48.3308 70.562 50.4028C71.63 52.4748 75.849 67.7558 75.849 67.7558L31.533 67.7428Z" fill="#FC7753"/>
<path d="M65.141 28.0918C63.7432 28.0171 62.3783 27.6393 61.141 26.9848C59.8816 26.3543 58.7726 25.4603 57.8892 24.3635C57.0057 23.2666 56.3686 21.9926 56.021 20.6278C54.1535 22.22 51.817 23.1587 49.3669 23.3008C49.4729 23.1258 49.5849 22.9518 49.6979 22.7828C49.9089 22.4668 50.1309 22.1598 50.3669 21.8668C50.8781 21.2175 51.48 20.645 52.154 20.1668C53.4038 19.3146 54.8783 18.8521 56.391 18.8378H56.541C56.9764 18.8386 57.4111 18.874 57.8409 18.9438C57.9119 18.9538 57.983 18.9688 58.056 18.9818C58.3259 19.0345 58.593 19.1012 58.856 19.1818C59.9705 19.5404 61.0034 20.1152 61.8957 20.8732C62.7879 21.6313 63.522 22.5578 64.056 23.5998C64.7646 24.9914 65.1362 26.5301 65.141 28.0918Z" fill="black"/>
<path d="M64.2761 22.2258C64.8144 22.2458 65.3499 22.1389 65.8395 21.914C66.329 21.689 66.7589 21.3522 67.0944 20.9306C67.4298 20.5091 67.6615 20.0146 67.7709 19.4871C67.8802 18.9595 67.8641 18.4137 67.7238 17.8935C67.5834 17.3734 67.3229 16.8934 66.9631 16.4924C66.6033 16.0914 66.1543 15.7806 65.6523 15.585C65.1504 15.3893 64.6095 15.3143 64.0732 15.3661C63.537 15.4178 63.0204 15.5948 62.5651 15.8828C61.9613 16.2855 61.4992 16.8675 61.2438 17.5467C60.9885 18.226 60.9528 18.9683 61.1418 19.669C61.3308 20.3696 61.735 20.9933 62.2973 21.452C62.8596 21.9107 63.5517 22.1814 64.2761 22.2258Z" fill="black"/>
<path d="M30.795 64.6428C30.2927 65.7488 29.6581 66.7897 28.9051 67.7428H12.5401C11.4514 66.5271 10.617 65.1059 10.086 63.5628C9.82388 62.7656 9.80186 61.9088 10.0227 61.0992C10.2435 60.2895 10.6974 59.5626 11.328 59.0088C11.7862 58.6718 12.3276 58.466 12.894 58.4138C13.4603 58.3616 14.0302 58.4649 14.5423 58.7124C15.0543 58.96 15.4891 59.3426 15.7999 59.819C16.1107 60.2953 16.2857 60.8474 16.3061 61.4158C16.4622 58.8151 17.5186 56.3497 19.294 54.4428C20.1905 53.5085 21.3108 52.8188 22.5487 52.439C23.7865 52.0593 25.1009 52.0021 26.367 52.2728C27.5671 52.6278 28.6589 53.2783 29.5423 54.1648C30.4256 55.0513 31.0724 56.1455 31.4231 57.3468C32.0955 59.7754 31.8726 62.3648 30.795 64.6428Z" fill="white"/>
<path d="M19.1889 67.8538L18.8889 67.5758C19.0409 67.4118 22.6379 63.5698 25.2889 64.3118C26.3079 64.5978 27.0369 65.5118 27.4619 67.0438C28.2249 65.1648 30.8209 59.7938 35.5019 60.1578L35.4709 60.5668C30.1559 60.1528 27.6389 67.7298 27.6139 67.8068L27.2139 67.7838C26.8599 66.0228 26.1739 64.9838 25.1759 64.7078C22.7649 64.0288 19.2239 67.8158 19.1889 67.8538Z" fill="black"/>
<path d="M55.3309 67.7738L54.9219 67.7438C55.0037 66.522 54.7933 65.2982 54.3079 64.1739C53.8226 63.0496 53.0762 62.0572 52.1309 61.2788L52.0309 61.1958C51.9402 61.6619 51.7489 62.1026 51.4703 62.487C51.1917 62.8715 50.8325 63.1905 50.4179 63.4218C50.1271 63.557 49.8109 63.6285 49.4903 63.6316C49.1697 63.6347 48.8522 63.5693 48.5589 63.4398C48.3249 63.3496 48.1146 63.2069 47.9443 63.0229C47.7739 62.8388 47.648 62.6182 47.5761 62.378C47.5041 62.1377 47.4882 61.8842 47.5294 61.6368C47.5707 61.3894 47.6679 61.1548 47.8139 60.9508C47.9909 60.6784 48.2224 60.4457 48.4938 60.2672C48.7652 60.0887 49.0707 59.9684 49.3909 59.9138C50.2155 59.8254 51.045 60.03 51.7339 60.4918C51.8135 59.2501 51.4528 58.0202 50.7152 57.0182C49.9775 56.0163 48.9101 55.3065 47.7009 55.0138L47.7829 54.6138C49.1251 54.9371 50.3042 55.7365 51.1015 56.8635C51.8988 57.9905 52.2599 59.3686 52.1179 60.7418V60.7478C52.2179 60.8198 52.3079 60.8908 52.3949 60.9608C53.39 61.7818 54.1752 62.828 54.6857 64.0127C55.1963 65.1974 55.4174 66.4867 55.3309 67.7738ZM49.7959 60.2938C49.6788 60.2937 49.5617 60.3024 49.4459 60.3198C49.1833 60.3651 48.9329 60.4641 48.7104 60.6107C48.4879 60.7574 48.2981 60.9484 48.1529 61.1718C48.0452 61.3271 47.9721 61.5037 47.9386 61.6897C47.9051 61.8757 47.912 62.0667 47.9589 62.2498C48.0172 62.4335 48.1157 62.6019 48.2471 62.7429C48.3786 62.8838 48.5397 62.9938 48.7189 63.0648C48.9571 63.171 49.2152 63.2251 49.476 63.2234C49.7367 63.2216 49.9942 63.1642 50.2309 63.0548C50.6146 62.8335 50.9428 62.5277 51.1909 62.1608C51.439 61.7939 51.6004 61.3753 51.6629 60.9368C51.1157 60.5465 50.4673 60.3232 49.7959 60.2938Z" fill="white"/>
<path d="M34.5889 43.6428C34.2874 44.0557 33.8702 44.3699 33.3901 44.5457C32.91 44.7215 32.3885 44.751 31.8917 44.6304C31.3948 44.5098 30.9449 44.2447 30.5988 43.8684C30.2526 43.4921 30.0258 43.0216 29.9471 42.5164C29.8684 42.0113 29.9412 41.4941 30.1564 41.0303C30.3716 40.5665 30.7195 40.177 31.1561 39.9109C31.5927 39.6449 32.0983 39.5142 32.6091 39.5356C33.12 39.5569 33.613 39.7293 34.0259 40.0308C34.3001 40.2309 34.5322 40.4831 34.7089 40.773C34.8857 41.0629 35.0035 41.3847 35.0558 41.7201C35.1081 42.0556 35.0938 42.398 35.0137 42.7279C34.9336 43.0578 34.7892 43.3687 34.5889 43.6428Z" fill="#FC7753"/>
<path d="M36.81 43.9948C36.2169 43.9944 35.6326 43.8511 35.1067 43.5768C34.5807 43.3026 34.1287 42.9055 33.7888 42.4194C33.449 41.9333 33.2314 41.3724 33.1544 40.7842C33.0775 40.1961 33.1436 39.5981 33.3469 39.0409C33.5503 38.4837 33.8851 37.9838 34.3228 37.5835C34.7605 37.1832 35.2883 36.8944 35.8614 36.7415C36.4345 36.5886 37.036 36.5761 37.615 36.7052C38.1939 36.8342 38.7331 37.101 39.187 37.4828C39.7668 37.9698 40.1826 38.6234 40.3781 39.3548C40.5735 40.0863 40.5391 40.8602 40.2795 41.5714C40.0199 42.2826 39.5477 42.8967 38.927 43.3303C38.3063 43.7638 37.5671 43.9958 36.81 43.9948ZM36.8161 37.0288C36.0454 37.0285 35.2993 37.2997 34.7087 37.7948C34.1181 38.2899 33.7209 38.9773 33.5868 39.7362C33.4526 40.4951 33.5901 41.2769 33.9751 41.9445C34.3601 42.6121 34.968 43.1227 35.6921 43.3866C36.4162 43.6505 37.21 43.6509 37.9343 43.3877C38.6587 43.1244 39.2671 42.6144 39.6527 41.9472C40.0384 41.28 40.1766 40.4982 40.0432 39.7392C39.9097 38.9802 39.5132 38.2925 38.9231 37.7968C38.3335 37.3 37.5871 37.0279 36.8161 37.0288Z" fill="black"/>
<path d="M45.2628 31.6895L44.1238 29.4061C45.1692 28.3149 45.8159 26.9029 45.959 25.3986C46.1022 23.8942 45.7335 22.3856 44.9126 21.1168C42.1367 16.14 36.0187 15.3305 33.5919 18.3853C31.3057 21.264 32.4691 26.0009 36.8425 29.1882C40.7214 32.0093 43.4055 30.3682 43.4055 30.3682L45.2628 31.6895Z" fill="#747BD1"/>
<path d="M37.0581 24.9998V22.1814H36.6206V23.3728H35.1733V22.1814H34.7358V24.9998H35.1733V23.7517H36.6206V24.9998H37.0581ZM38.4155 23.197C38.7241 23.197 38.9331 23.4158 38.9429 23.7459H37.8667C37.8901 23.4197 38.1108 23.197 38.4155 23.197ZM38.9409 24.3787C38.8823 24.5642 38.689 24.6814 38.4429 24.6814C38.0952 24.6814 37.8647 24.4392 37.8647 24.072V24.0466H39.3667V23.8982C39.3667 23.2556 38.9995 22.8513 38.4175 22.8513C37.8237 22.8513 37.437 23.283 37.437 23.947C37.437 24.6111 37.8198 25.0252 38.4351 25.0252C38.9116 25.0252 39.2847 24.7595 39.3452 24.3787H38.9409ZM39.7261 24.9998H40.1499V22.0545H39.7261V24.9998ZM40.6206 24.9998H41.0444V22.0545H40.6206V24.9998ZM42.4058 25.0252C43.019 25.0252 43.4077 24.6072 43.4077 23.9392C43.4077 23.2713 43.0171 22.8513 42.4058 22.8513C41.7944 22.8513 41.4019 23.2732 41.4019 23.9392C41.4019 24.6072 41.7925 25.0252 42.4058 25.0252ZM42.4058 24.6736C42.0464 24.6736 41.8315 24.4021 41.8315 23.9392C41.8315 23.4783 42.0464 23.2029 42.4058 23.2029C42.7651 23.2029 42.978 23.4763 42.978 23.9392C42.978 24.4021 42.7651 24.6736 42.4058 24.6736Z" fill="white"/>
<path d="M21.4271 14.2552L23.049 12.4391L22.2052 8.60088L36.3923 5.09435L38.2924 13.2556L24.2673 17.2994L23.4293 13.9897L21.4271 14.2552Z" fill="#EBCE4F"/>
<path d="M27.0348 12.1742L25.7238 12.5013L25.512 11.6525L26.753 11.3429L26.665 10.9905L25.4241 11.3001L25.2247 10.5006L26.5357 10.1736L26.4445 9.80791L24.7091 10.2409L25.3911 12.9747L27.1265 12.5417L27.0348 12.1742ZM28.0955 11.489L28.7463 12.1376L29.1991 12.0246L28.2685 11.15L28.6934 9.96528L28.2425 10.0778L27.9764 10.9391L27.9669 10.9414L27.3237 10.307L26.8633 10.4219L27.7968 11.2838L27.369 12.4812L27.8142 12.3701L28.086 11.4913L28.0955 11.489ZM30.0793 11.479C29.8425 11.5381 29.6607 11.4627 29.6167 11.2865C29.5713 11.1047 29.6912 10.9641 29.9673 10.8771L30.459 10.7182L30.4992 10.8792C30.5668 11.1501 30.3843 11.4029 30.0793 11.479ZM30.0512 11.8342C30.3316 11.7642 30.5524 11.5602 30.6103 11.3083L30.6197 11.306L30.7053 11.6489L31.0974 11.551L30.7453 10.1396C30.6437 9.73228 30.2536 9.54787 29.7515 9.67312C29.2892 9.78845 29.0116 10.1435 29.0909 10.5101L29.4755 10.4141C29.4671 10.2271 29.6012 10.0709 29.8247 10.0151C30.0995 9.94654 30.2888 10.0361 30.3474 10.2711L30.3872 10.4302L29.8401 10.6009C29.3404 10.7598 29.1139 11.0377 29.2037 11.3976C29.2954 11.7652 29.6401 11.9368 30.0512 11.8342ZM31.5105 11.448L31.9216 11.3454L31.6068 10.0837C31.5397 9.81464 31.6724 9.57223 31.9262 9.5089C32.1668 9.44887 32.3581 9.56215 32.4177 9.80086L32.7514 11.1384L33.1549 11.0377L32.8363 9.76081C32.7706 9.49747 32.9019 9.26548 33.1539 9.20262C33.4097 9.13881 33.5943 9.25777 33.6614 9.52679L33.9866 10.8302L34.3958 10.7281L34.0461 9.32618C33.9435 8.91507 33.6116 8.71411 33.2062 8.81526C32.9125 8.88852 32.7078 9.10058 32.6618 9.37571L32.6523 9.37807C32.5051 9.14311 32.2627 9.05064 31.9766 9.12201C31.7076 9.18913 31.5209 9.38463 31.4839 9.63939L31.4763 9.64128L31.3893 9.29269L30.9971 9.39053L31.5105 11.448Z" fill="white"/>
</g>
</svg>
