<svg width="173" height="127" viewBox="0 0 173 127" fill="none" xmlns="http://www.w3.org/2000/svg">
<path d="M119.294 91.5769L141.744 93.3349L139.469 64.0809L123.944 62.8649L123.396 66.2419L121.716 76.6349L119.294 91.5769Z" fill="#F8C49E"/>
<path d="M121.717 76.6319C124.685 76.8787 127.667 76.3741 130.388 75.1647C133.109 73.9553 135.482 72.08 137.287 69.7119C132.809 68.6479 128.378 67.4119 123.9 66.3529C123.735 66.3129 123.569 66.2739 123.4 66.2409L121.717 76.6319Z" fill="black"/>
<path d="M157.738 61.1919C157.116 62.2365 156.241 63.1078 155.194 63.7256C154.147 64.3433 152.961 64.6877 151.746 64.7269C149.321 64.7319 147.162 63.5959 146.454 61.2749C145.4 63.823 143.785 66.1003 141.729 67.9372C139.673 69.7741 137.228 71.1232 134.578 71.8839C131.916 72.6024 129.123 72.6978 126.418 72.1628C123.713 71.6278 121.167 70.4768 118.978 68.7989C116.821 67.0825 115.098 64.8828 113.948 62.3776C112.797 59.8723 112.253 57.1316 112.357 54.3769C112.572 50.0289 114.424 45.9419 116.35 42.0379C116.915 40.8859 117.504 39.7239 118.14 38.5889C118.371 38.1782 118.608 37.7713 118.849 37.3679C118.879 37.3199 118.91 37.2679 118.94 37.2209C119.154 36.8689 119.378 36.5209 119.606 36.1789C120.031 35.5429 120.477 34.9249 120.953 34.3359C121.982 33.03 123.192 31.8786 124.548 30.9169C127.06 29.2005 130.024 28.2672 133.066 28.2349C133.166 28.2349 133.266 28.2349 133.366 28.2349C134.241 28.2369 135.114 28.3084 135.978 28.4489C136.122 28.4689 136.264 28.4989 136.411 28.5259C136.955 28.6311 137.493 28.7646 138.023 28.9259C140.266 29.6467 142.345 30.8027 144.142 32.3278C145.938 33.8529 147.415 35.7171 148.49 37.8139C149.916 40.618 150.662 43.7182 150.668 46.8639C150.668 47.1849 150.668 47.5039 150.656 47.8259C150.627 48.6729 150.545 49.5172 150.411 50.3539C150.35 50.7539 150.278 51.1459 150.196 51.5349L150.406 51.4099C151.213 51.0319 152.098 50.8509 152.989 50.8818C153.88 50.9128 154.75 51.1548 155.529 51.5879C156.347 52.0218 157.058 52.6318 157.611 53.3738C158.165 54.1158 158.546 54.9715 158.729 55.8789C159.078 57.7115 158.725 59.6085 157.738 61.1919Z" fill="#F8C49E"/>
<path d="M150.175 60.1569L149.469 59.7649L150.969 54.8759L151.758 55.1179L150.648 58.7319C151.354 58.3391 152.162 58.1672 152.967 58.2385C153.772 58.3098 154.538 58.621 155.164 59.1319L154.644 59.7719C153.995 59.2427 153.165 58.987 152.331 59.0589C151.496 59.1307 150.722 59.5245 150.173 60.1569H150.175Z" fill="black"/>
<path d="M125.871 56.3879C125.504 56.3856 125.149 56.2571 124.865 56.024C124.702 55.9016 124.565 55.7478 124.461 55.5716C124.358 55.3954 124.292 55.2003 124.265 54.998C124.264 54.4983 124.376 54.0048 124.591 53.554L127.135 47.1949L127.901 47.5009L125.359 53.86C125.193 54.1979 125.1 54.5674 125.088 54.9439C125.141 55.1331 125.258 55.2979 125.419 55.4095C125.581 55.5212 125.777 55.5726 125.972 55.5549L126.097 56.3709C126.022 56.3822 125.947 56.3879 125.871 56.3879Z" fill="black"/>
<path d="M127.962 60.2709C127.564 60.2723 127.168 60.2081 126.791 60.0809L127.056 59.3C127.434 59.4279 127.834 59.4753 128.231 59.439C128.628 59.4026 129.013 59.2834 129.362 59.089C129.71 58.8946 130.013 58.6293 130.253 58.3103C130.492 57.9913 130.662 57.6256 130.751 57.2369L131.551 57.42C131.367 58.2327 130.911 58.9582 130.258 59.4766C129.605 59.995 128.795 60.2752 127.962 60.2709Z" fill="black"/>
<path d="M133.176 49.7709C133.076 50.3579 133.311 50.8879 133.703 50.9549C134.095 51.0219 134.492 50.5999 134.593 50.0139C134.694 49.4279 134.458 48.8969 134.066 48.8299C133.674 48.7629 133.276 49.1849 133.176 49.7709Z" fill="black"/>
<path d="M121.099 46.4879C120.999 47.0749 121.235 47.6049 121.626 47.6719C122.017 47.7389 122.415 47.3169 122.516 46.7309C122.617 46.1449 122.381 45.6139 121.991 45.5469C121.601 45.4799 121.199 45.9019 121.099 46.4879Z" fill="black"/>
<path d="M121.396 43.2609C120.994 43.2193 120.599 43.1203 120.225 42.9669C119.625 42.6209 119.759 42.1369 120.447 41.9669C121.241 41.8437 122.05 41.8671 122.835 42.0359C123.411 42.0822 123.967 42.266 124.457 42.5719C124.537 42.6261 124.602 42.6996 124.646 42.7857C124.69 42.8717 124.712 42.9675 124.709 43.0641C124.706 43.1607 124.678 43.255 124.629 43.3382C124.58 43.4214 124.51 43.4908 124.427 43.5399C123.646 44.0899 122.319 43.4459 121.396 43.2609Z" fill="black"/>
<path d="M136.057 47.1159C136.428 47.2782 136.819 47.387 137.22 47.4389C137.914 47.4389 138.036 46.9479 137.52 46.4609C136.891 45.9619 136.177 45.5817 135.411 45.3389C134.888 45.0955 134.313 44.9806 133.736 45.0039C133.64 45.0117 133.547 45.0437 133.466 45.0969C133.386 45.1501 133.32 45.2228 133.275 45.3083C133.23 45.3937 133.207 45.4892 133.209 45.5858C133.21 45.6824 133.236 45.7771 133.284 45.8609C133.691 46.7259 135.164 46.8189 136.057 47.1159Z" fill="black"/>
<path d="M58.7469 81.6489L35.6699 81.7869L40.1559 52.0539L56.1129 51.9539L56.424 55.4459L57.3749 66.1909L58.7469 81.6489Z" fill="#B77548"/>
<path d="M57.3741 66.1939C54.3234 66.2257 51.3137 65.4891 48.6224 64.0521C45.9311 62.615 43.6448 60.5237 41.9741 57.9709C46.6281 57.2129 51.2491 56.2829 55.9031 55.5249C56.0751 55.4969 56.2491 55.4689 56.4261 55.4479L57.3741 66.1939Z" fill="black"/>
<path d="M21.428 44.8469C21.8833 46.0068 22.6232 47.0335 23.5794 47.8325C24.5357 48.6314 25.6776 49.177 26.8999 49.4189C29.3499 49.8279 31.7229 49.0399 32.8269 46.8109C33.4675 49.5633 34.7208 52.1358 36.4934 54.3368C38.266 56.5377 40.5122 58.3104 43.0649 59.5229C45.6365 60.6936 48.4432 61.256 51.2673 61.1663C54.0914 61.0767 56.8568 60.3374 59.3489 59.0059C61.8185 57.6318 63.9298 55.6956 65.5119 53.3539C67.0941 51.0122 68.1026 48.3308 68.4559 45.5269C68.9669 41.0959 67.775 36.6549 66.48 32.3869C65.7012 29.556 64.6399 26.8105 63.3119 24.1919C63.1946 23.9779 63.0753 23.7659 62.954 23.5559C62.633 23.0069 62.2899 22.4749 61.9189 21.9559C61.7119 21.6669 61.4969 21.3859 61.2669 21.1109C61.2509 21.0909 61.2369 21.0739 61.2179 21.0539C60.8546 20.6033 60.4635 20.1758 60.0469 19.7739C56.9618 16.8504 52.845 15.2668 48.5959 15.3689C47.9791 15.376 47.3632 15.4211 46.7519 15.5039C44.3634 15.8583 42.0683 16.6803 39.998 17.923C37.9277 19.1657 36.1229 20.8046 34.6869 22.7459C34.1948 23.4075 33.7456 24.0999 33.342 24.8189C32.6086 26.1194 32.0217 27.4971 31.592 28.9269C31.479 29.2869 31.3759 29.6539 31.2919 30.0269C30.7826 32.0914 30.5751 34.2189 30.6759 36.3429C29.9208 35.7568 29.029 35.3722 28.0845 35.2251C27.14 35.078 26.1736 35.1732 25.2759 35.5019C24.3766 35.8055 23.5555 36.3042 22.8716 36.9624C22.1877 37.6206 21.6578 38.4219 21.3199 39.3089C20.6598 41.1031 20.6983 43.0799 21.428 44.8469Z" fill="#B77548"/>
<path d="M28.988 44.4059L29.748 44.1339L29.0721 39.1429L28.2551 39.2539L28.7551 42.9259C28.1308 42.4348 27.3741 42.1413 26.5819 42.0832C25.7897 42.0252 24.9983 42.2051 24.3091 42.5999L24.7191 43.3169C25.4331 42.9078 26.2783 42.7928 27.0757 42.996C27.8731 43.1993 28.56 43.7049 28.9911 44.4059H28.988Z" fill="black"/>
<path d="M54.7111 45.3169C54.9978 45.3153 55.2793 45.2395 55.5281 45.0969C55.7118 45.0007 55.8746 44.8688 56.0068 44.709C56.139 44.5491 56.238 44.3645 56.298 44.1659C56.3808 43.6622 56.3501 43.1463 56.2081 42.6559L54.6981 35.8019L53.8931 35.9789L55.4031 42.8339C55.5151 43.205 55.5461 43.5958 55.4941 43.9799C55.4231 44.1539 55.2912 44.2961 55.123 44.3799C55.0283 44.4373 54.9224 44.474 54.8124 44.4874C54.7025 44.5009 54.5909 44.4908 54.485 44.4579L54.2291 45.2419C54.3847 45.2925 54.5474 45.3178 54.7111 45.3169Z" fill="black"/>
<path d="M52.3151 48.9299C52.5131 48.9298 52.7107 48.9137 52.9061 48.8819L52.7731 48.0679C52.3686 48.1338 51.9549 48.1142 51.5585 48.0105C51.162 47.9067 50.7917 47.721 50.4714 47.4654C50.1511 47.2099 49.8879 46.89 49.6987 46.5265C49.5096 46.163 49.3986 45.7639 49.3731 45.3549L48.5491 45.4049C48.6076 46.3631 49.031 47.2624 49.7322 47.9181C50.4334 48.5737 51.3591 48.9358 52.3191 48.9299H52.3151Z" fill="black"/>
<path d="M48.1681 37.3929C48.1681 38.0029 47.8451 38.4989 47.4381 38.5019C47.0311 38.5049 46.6991 38.0119 46.6951 37.4019C46.6911 36.7919 47.0181 36.2939 47.4251 36.2919C47.8321 36.2899 48.1681 36.7929 48.1681 37.3929Z" fill="black"/>
<path d="M60.9281 36.0939C60.9281 36.7039 60.6052 37.1999 60.1982 37.2029C59.7912 37.2059 59.4591 36.7129 59.4551 36.1029C59.4511 35.4929 59.7782 34.9949 60.1852 34.9939C60.5922 34.9929 60.9241 35.4839 60.9281 36.0939Z" fill="black"/>
<path d="M45.8541 34.1369C45.4859 34.2377 45.1012 34.2625 44.7231 34.2099C44.0641 33.9999 43.9841 33.3369 44.5091 32.8639C45.1234 32.4149 45.8434 32.1324 46.5991 32.0439C47.1303 31.8858 47.6988 31.908 48.2161 32.1069C48.4196 32.2303 48.5699 32.425 48.6378 32.6531C48.7056 32.8812 48.6861 33.1264 48.5831 33.3409C48.1331 34.3369 46.7251 34.0199 45.8541 34.1369Z" fill="black"/>
<path d="M60.8889 32.9689C61.2689 33.0085 61.6529 32.9707 62.0179 32.8579C62.6349 32.5449 62.6069 31.8789 62.0129 31.4939C61.3343 31.1506 60.5787 30.9877 59.8189 31.0209C59.2689 30.9504 58.711 31.0636 58.2319 31.3429C58.0505 31.4969 57.9331 31.7131 57.9028 31.9491C57.8725 32.1852 57.9314 32.424 58.0679 32.6189C58.6719 33.5279 60.0109 32.9919 60.8889 32.9689Z" fill="black"/>
<path d="M101.323 126.632C101.323 126.632 84.957 80.9669 78.895 78.5419C72.833 76.1169 58.082 74.1549 58.082 74.1549C58.082 74.1549 51.525 84.9849 36.923 73.4789C36.923 73.4789 16.058 76.7239 13.229 79.5529C10.4 82.3819 0.5 126.631 0.5 126.631L101.323 126.632Z" fill="#FED766"/>
<path d="M30.6701 36.3399C32.8582 34.5859 34.6552 32.3936 35.9456 29.9038C37.236 27.4141 37.9914 24.6819 38.1631 21.8829C43.5631 22.1669 49.3972 21.1609 53.6742 17.7289C54.7266 19.2958 56.0964 20.6242 57.6948 21.6281C59.2932 22.6321 61.0847 23.2892 62.9532 23.5569C62.6322 23.0079 62.2891 22.4759 61.9181 21.9569C61.7111 21.6679 61.4961 21.3869 61.2661 21.1119C61.2501 21.0919 61.2361 21.0749 61.2171 21.0549C60.8538 20.6043 60.4627 20.1768 60.0461 19.7749C56.9609 16.8515 52.8442 15.2679 48.5951 15.3699C47.9783 15.377 47.3624 15.4221 46.7511 15.5049C44.3626 15.8592 42.0675 16.6813 39.9972 17.924C37.9269 19.1667 36.1221 20.8056 34.6861 22.7469C34.1943 23.4081 33.7454 24.1002 33.3421 24.8189C32.6089 26.1194 32.0219 27.4971 31.5921 28.9269C31.4791 29.2869 31.3761 29.6539 31.2921 30.0269C30.7812 32.0901 30.5716 34.2166 30.6701 36.3399Z" fill="black"/>
<path d="M83.051 126.632C83.051 126.632 91.1851 96.1219 96.8431 93.2929C102.501 90.4639 120.488 84.2119 120.488 84.2119C120.488 84.2119 124.71 94.7349 141.188 86.1339C141.188 86.1339 159.43 87.5819 161.578 91.7509C163.726 95.9199 172.211 126.664 172.211 126.664L83.051 126.632Z" fill="#FC7753"/>
<path d="M150.666 46.8609C147.856 46.7095 145.113 45.9497 142.626 44.6339C137.652 41.9749 133.483 37.3639 132.326 31.8439C128.569 35.0474 123.868 36.9359 118.939 37.2219C119.153 36.8699 119.377 36.5219 119.606 36.1799C120.031 35.5439 120.477 34.9259 120.952 34.3369C121.98 33.031 123.191 31.8796 124.547 30.9179C127.057 29.2033 130.018 28.2704 133.058 28.2369C133.158 28.2369 133.258 28.2369 133.358 28.2369C134.233 28.2389 135.106 28.3105 135.97 28.4509C136.114 28.4709 136.256 28.5009 136.403 28.5279C136.947 28.6331 137.485 28.7666 138.015 28.9279C140.258 29.6487 142.337 30.8047 144.133 32.3298C145.929 33.8549 147.407 35.7192 148.482 37.8159C149.909 40.618 150.657 43.7164 150.666 46.8609Z" fill="black"/>
<path d="M148.925 35.0599C150.008 35.1004 151.086 34.8858 152.071 34.4334C153.056 33.981 153.921 33.3034 154.597 32.4553C155.272 31.6072 155.738 30.6124 155.958 29.5509C156.179 28.4894 156.146 27.3911 155.864 26.3444C155.582 25.2977 155.058 24.332 154.334 23.5251C153.61 22.7182 152.706 22.0927 151.696 21.6991C150.686 21.3054 149.598 21.1546 148.519 21.2588C147.44 21.363 146.4 21.7193 145.484 22.2989C139.881 25.8489 142.304 34.8119 148.925 35.0599Z" fill="black"/>
<path d="M81.5659 120.394C80.5561 122.619 79.2802 124.713 77.7659 126.631H44.841C42.811 124.054 40.7669 121.38 39.9039 118.221C39.0159 114.974 39.6899 111.052 42.4039 109.059C43.3257 108.381 44.4149 107.968 45.5542 107.863C46.6934 107.758 47.8398 107.966 48.8698 108.464C49.8999 108.962 50.7746 109.731 51.4 110.689C52.0253 111.647 52.3776 112.758 52.419 113.901C52.7335 108.669 54.8591 103.709 58.431 99.8729C62.092 96.1899 67.631 94.2149 72.661 95.5079C75.0752 96.2222 77.2715 97.5311 79.0485 99.3146C80.8255 101.098 82.1265 103.299 82.832 105.716C84.1839 110.602 83.7346 115.811 81.5659 120.394Z" fill="white"/>
<path d="M58.2182 126.855L57.6182 126.295C57.9182 125.965 65.1612 118.235 70.4892 119.729C72.5392 120.305 74.0062 122.151 74.8602 125.229C76.3952 121.448 81.6192 110.644 91.0352 111.375L90.9722 112.197C80.2802 111.364 75.2152 126.608 75.1642 126.763L74.3642 126.717C73.6512 123.174 72.2722 121.092 70.2642 120.529C65.4082 119.159 58.2902 126.778 58.2182 126.855Z" fill="black"/>
<path d="M130.929 126.69L130.105 126.629C130.27 124.171 129.846 121.709 128.87 119.447C127.893 117.185 126.392 115.188 124.49 113.622C124.423 113.567 124.353 113.511 124.28 113.456C124.098 114.394 123.713 115.28 123.152 116.054C122.592 116.828 121.869 117.47 121.035 117.935C120.45 118.207 119.814 118.351 119.169 118.357C118.523 118.363 117.884 118.232 117.294 117.971C116.823 117.789 116.4 117.502 116.058 117.132C115.715 116.762 115.462 116.318 115.317 115.835C115.172 115.351 115.14 114.841 115.222 114.343C115.305 113.846 115.501 113.373 115.794 112.963C116.15 112.415 116.616 111.947 117.162 111.588C117.708 111.229 118.323 110.987 118.967 110.877C120.626 110.699 122.295 111.11 123.681 112.04C123.841 109.542 123.115 107.068 121.631 105.052C120.147 103.037 118 101.609 115.567 101.02L115.732 100.212C118.432 100.863 120.804 102.471 122.408 104.739C124.012 107.006 124.739 109.778 124.453 112.541V112.553C124.653 112.697 124.835 112.841 125.01 112.982C127.015 114.633 128.597 116.737 129.626 119.121C130.655 121.504 131.102 124.099 130.929 126.69ZM119.794 111.641C119.56 111.641 119.326 111.658 119.094 111.693C118.566 111.784 118.062 111.984 117.615 112.279C117.168 112.574 116.786 112.958 116.494 113.408C116.278 113.72 116.131 114.076 116.064 114.45C115.997 114.824 116.011 115.209 116.105 115.577C116.223 115.946 116.421 116.285 116.686 116.569C116.95 116.852 117.275 117.073 117.635 117.216C118.114 117.429 118.633 117.538 119.158 117.534C119.682 117.531 120.2 117.415 120.676 117.195C121.448 116.75 122.108 116.134 122.607 115.396C123.106 114.658 123.431 113.816 123.556 112.934C122.453 112.15 121.146 111.702 119.794 111.645V111.641Z" fill="white"/>
<path d="M89.1999 78.1469C88.5933 78.9774 87.7541 79.6093 86.7884 79.9628C85.8227 80.3164 84.7738 80.3756 83.7744 80.1331C82.775 79.8905 81.8699 79.3571 81.1737 78.6002C80.4775 77.8433 80.0213 76.8969 79.8629 75.8808C79.7044 74.8647 79.8509 73.8244 80.2836 72.8915C80.7164 71.9586 81.4161 71.1749 82.2943 70.6396C83.1724 70.1044 84.1895 69.8415 85.217 69.8843C86.2445 69.927 87.2363 70.2735 88.0669 70.8799C88.6185 71.2826 89.0854 71.79 89.4409 72.3732C89.7964 72.9564 90.0335 73.6039 90.1387 74.2787C90.2439 74.9535 90.2152 75.6425 90.0541 76.3062C89.893 76.9699 89.6027 77.5954 89.1999 78.1469Z" fill="#FC7753"/>
<path d="M93.668 78.8559C92.4748 78.8551 91.2994 78.5666 90.2415 78.0149C89.1835 77.4632 88.2742 76.6645 87.5906 75.6865C86.907 74.7086 86.4693 73.5802 86.3146 72.3971C86.1599 71.214 86.2927 70.011 86.7019 68.8902C87.111 67.7694 87.7844 66.7637 88.6649 65.9585C89.5455 65.1533 90.6071 64.5723 91.76 64.2647C92.9128 63.9571 94.1229 63.9321 95.2875 64.1917C96.4521 64.4513 97.5369 64.9878 98.45 65.7559C99.6157 66.7358 100.452 68.0506 100.845 69.5219C101.237 70.9932 101.168 72.5498 100.646 73.9803C100.124 75.4108 99.1739 76.646 97.9256 77.5182C96.6773 78.3905 95.1908 78.8575 93.668 78.8559ZM93.68 64.8419C92.1282 64.8411 90.6257 65.3872 89.4365 66.3842C88.2473 67.3812 87.4474 68.7653 87.1774 70.2935C86.9074 71.8216 87.1845 73.396 87.96 74.7402C88.7355 76.0844 89.9598 77.1123 91.4179 77.6434C92.876 78.1745 94.4747 78.1748 95.933 77.6443C97.3913 77.1138 98.6161 76.0864 99.3921 74.7425C100.168 73.3987 100.446 71.8244 100.176 70.2961C99.9071 68.7678 99.1078 67.3834 97.919 66.3859C96.7335 65.3874 95.233 64.8405 93.683 64.8419H93.68Z" fill="black"/>
<path d="M110.68 54.1038L108.375 49.5137C108.375 49.5137 115.541 42.8557 109.961 32.8382C104.381 22.8207 92.0762 21.1877 87.1937 27.3334C82.594 33.1228 84.9331 42.6542 93.7323 49.0654C101.535 54.7414 106.934 51.4423 106.934 51.4423L110.68 54.1038Z" fill="#747BD1"/>
<path d="M94.6296 40.9999V34.6586H93.6453V37.3393H90.3889V34.6586H89.4045V40.9999H90.3889V38.1918H93.6453V40.9999H94.6296ZM97.6838 36.9438C98.3782 36.9438 98.8484 37.436 98.8704 38.1786H96.449C96.5017 37.4448 96.9983 36.9438 97.6838 36.9438ZM98.866 39.6025C98.7341 40.02 98.2991 40.2836 97.7454 40.2836C96.9631 40.2836 96.4446 39.7387 96.4446 38.9125V38.8554H99.824V38.5214C99.824 37.0756 98.9978 36.166 97.6882 36.166C96.3523 36.166 95.4822 37.1371 95.4822 38.6313C95.4822 40.1254 96.3435 41.0571 97.7278 41.0571C98.8 41.0571 99.6394 40.4594 99.7756 39.6025H98.866ZM100.633 40.9999H101.586V34.373H100.633V40.9999ZM102.645 40.9999H103.599V34.373H102.645V40.9999ZM106.662 41.0571C108.042 41.0571 108.916 40.1166 108.916 38.6137C108.916 37.1108 108.037 36.166 106.662 36.166C105.286 36.166 104.403 37.1152 104.403 38.6137C104.403 40.1166 105.282 41.0571 106.662 41.0571ZM106.662 40.2661C105.853 40.2661 105.37 39.6552 105.37 38.6137C105.37 37.5766 105.853 36.957 106.662 36.957C107.47 36.957 107.949 37.5722 107.949 38.6137C107.949 39.6552 107.47 40.2661 106.662 40.2661Z" fill="white"/>
<path d="M62.7209 19.0219L65.9832 15.3665L64.2862 7.64393L92.8285 0.592114L96.6541 17.0108L68.4377 25.1419L66.7526 18.4856L62.7209 19.0219Z" fill="#599BF0"/>
<path d="M74.4725 15.6078L71.5228 16.3437L71.0463 14.4341L73.8384 13.7375L73.6406 12.9446L70.8485 13.6412L70.3997 11.8423L73.3495 11.1064L73.1443 10.2837L69.2396 11.2579L70.7742 17.4089L74.6789 16.4348L74.4725 15.6078ZM76.8591 14.0661L78.3235 15.5255L79.3423 15.2713L77.2483 13.3033L78.2044 10.6378L77.1898 10.8909L76.5911 12.8288L76.5698 12.8342L75.1224 11.4067L74.0866 11.6651L76.1869 13.6044L75.2245 16.2987L76.2262 16.0487L76.8377 14.0714L76.8591 14.0661ZM81.3226 14.0437C80.7898 14.1767 80.3807 14.007 80.2818 13.6106C80.1797 13.2014 80.4494 12.8851 81.0708 12.6893L82.177 12.3318L82.2674 12.6941C82.4194 13.3037 82.0089 13.8725 81.3226 14.0437ZM81.2594 14.8429C81.8903 14.6855 82.387 14.2265 82.5173 13.6596L82.5386 13.6543L82.7311 14.4259L83.6135 14.2057L82.8212 11.03C82.5925 10.1136 81.7147 9.69863 80.5851 9.98045C79.545 10.2399 78.9202 11.0388 79.0988 11.8636L79.9642 11.6477C79.9452 11.2268 80.2469 10.8753 80.7499 10.7499C81.368 10.5957 81.7941 10.7972 81.926 11.3258L82.0153 11.6839L80.7844 12.0679C79.6601 12.4254 79.1505 13.0507 79.3525 13.8606C79.5588 14.6875 80.3344 15.0736 81.2594 14.8429ZM84.5427 13.9739L85.4677 13.7431L84.7595 10.9042C84.6085 10.2989 84.9071 9.75346 85.4783 9.61095C86.0196 9.47589 86.45 9.73076 86.584 10.2679L87.3348 13.2773L88.2428 13.0508L87.526 10.1777C87.3782 9.58523 87.6736 9.06326 88.2405 8.92182C88.816 8.77825 89.2314 9.0459 89.3824 9.6512L90.1141 12.5839L91.0348 12.3542L90.2479 9.19983C90.0171 8.27483 89.2704 7.82267 88.3581 8.05026C87.6974 8.2151 87.2369 8.69224 87.1332 9.31127L87.1119 9.31659C86.7808 8.78792 86.2353 8.57987 85.5916 8.74045C84.9863 8.89147 84.5663 9.33133 84.4829 9.90456L84.4659 9.90881L84.2702 9.12448L83.3878 9.34461L84.5427 13.9739Z" fill="white"/>
</svg>
