<svg width="43" height="45" viewBox="0 0 43 45" fill="none" xmlns="http://www.w3.org/2000/svg">
<path d="M38.4922 28.5291C38.2931 28.5291 38.102 28.6082 37.9612 28.749C37.8204 28.8899 37.7412 29.0809 37.7412 29.2801V30.7801C37.736 30.8818 37.7515 30.9836 37.7868 31.0791C37.8221 31.1747 37.8765 31.2621 37.9467 31.336C38.0168 31.4098 38.1013 31.4687 38.1949 31.5089C38.2885 31.5491 38.3893 31.5698 38.4912 31.5698C38.5931 31.5698 38.6939 31.5491 38.7876 31.5089C38.8812 31.4687 38.9656 31.4098 39.0358 31.336C39.106 31.2621 39.1604 31.1747 39.1957 31.0791C39.231 30.9836 39.2465 30.8818 39.2412 30.7801V29.2801C39.2412 29.0812 39.1624 28.8905 39.022 28.7497C38.8816 28.6089 38.6911 28.5296 38.4922 28.5291V28.5291Z" fill="#428DFF"/>
<path d="M5.45803 26.278C5.8728 26.278 6.20903 25.9418 6.20903 25.527C6.20903 25.1122 5.8728 24.776 5.45803 24.776C5.04327 24.776 4.70703 25.1122 4.70703 25.527C4.70703 25.9418 5.04327 26.278 5.45803 26.278Z" fill="#428DFF"/>
<path d="M38.4921 0H8.46105C7.46576 0.00105883 6.51153 0.396908 5.80775 1.10069C5.10396 1.80447 4.70811 2.7587 4.70705 3.754V22.523C4.7018 22.6248 4.7173 22.7265 4.75262 22.8221C4.78794 22.9176 4.84233 23.005 4.91249 23.0789C4.98265 23.1528 5.06711 23.2116 5.16073 23.2518C5.25435 23.292 5.35517 23.3127 5.45705 23.3127C5.55894 23.3127 5.65976 23.292 5.75338 23.2518C5.847 23.2116 5.93146 23.1528 6.00162 23.0789C6.07178 23.005 6.12617 22.9176 6.16149 22.8221C6.19681 22.7265 6.21231 22.6248 6.20705 22.523V3.754C6.20679 3.45793 6.26491 3.16471 6.37809 2.89112C6.49128 2.61753 6.65729 2.36895 6.86665 2.15959C7.07601 1.95024 7.32459 1.78422 7.59818 1.67104C7.87176 1.55786 8.16498 1.49974 8.46105 1.5H38.4921C39.0893 1.5 39.6621 1.73726 40.0845 2.1596C40.5068 2.58193 40.7441 3.15473 40.7441 3.752V33.032H35.4891C34.4938 33.0331 33.5395 33.4289 32.8357 34.1327C32.132 34.8365 31.7361 35.7907 31.7351 36.786V42.041H13.7161C13.6143 42.0357 13.5126 42.0512 13.417 42.0866C13.3214 42.1219 13.234 42.1763 13.1602 42.2464C13.0863 42.3166 13.0274 42.4011 12.9872 42.4947C12.947 42.5883 12.9263 42.6891 12.9263 42.791C12.9263 42.8929 12.947 42.9937 12.9872 43.0873C13.0274 43.1809 13.0863 43.2654 13.1602 43.3356C13.234 43.4057 13.3214 43.4601 13.417 43.4954C13.5126 43.5308 13.6143 43.5463 13.7161 43.541H32.4861C32.6852 43.541 32.8762 43.4618 33.0171 43.321L42.0261 34.312C42.1669 34.1712 42.246 33.9802 42.2461 33.781V3.754C42.245 2.7587 41.8491 1.80447 41.1454 1.10069C40.4416 0.396908 39.4874 0.00105883 38.4921 0V0ZM35.4921 34.536H39.6861L33.2401 40.982V36.788C33.2401 36.1913 33.4769 35.6189 33.8986 35.1967C34.3203 34.7744 34.8923 34.5368 35.4891 34.536H35.4921Z" fill="#428DFF"/>
<path d="M4.70705 30.779C4.71698 30.9712 4.80033 31.1523 4.9399 31.2848C5.07946 31.4173 5.26458 31.4912 5.45705 31.4912C5.64953 31.4912 5.83465 31.4173 5.97421 31.2848C6.11378 31.1523 6.19713 30.9712 6.20705 30.779V28.53C6.21231 28.4282 6.19681 28.3265 6.16149 28.2309C6.12617 28.1353 6.07178 28.048 6.00162 27.9741C5.93146 27.9002 5.847 27.8414 5.75338 27.8012C5.65976 27.761 5.55894 27.7402 5.45705 27.7402C5.35517 27.7402 5.25435 27.761 5.16073 27.8012C5.06711 27.8414 4.98265 27.9002 4.91249 27.9741C4.84233 28.048 4.78794 28.1353 4.75262 28.2309C4.7173 28.3265 4.7018 28.4282 4.70705 28.53V30.779Z" fill="#428DFF"/>
<path d="M9.96211 6.00503H11.4621C11.6543 5.9951 11.8354 5.91175 11.9679 5.77219C12.1005 5.63262 12.1744 5.4475 12.1744 5.25503C12.1744 5.06256 12.1005 4.87743 11.9679 4.73787C11.8354 4.59831 11.6543 4.51496 11.4621 4.50503H9.96211C9.86036 4.49977 9.7586 4.51527 9.66303 4.55059C9.56747 4.58591 9.48008 4.64031 9.40621 4.71047C9.33233 4.78063 9.2735 4.86509 9.2333 4.95871C9.19309 5.05232 9.17236 5.15314 9.17236 5.25503C9.17236 5.35691 9.19309 5.45773 9.2333 5.55135C9.2735 5.64497 9.33233 5.72943 9.40621 5.79959C9.48008 5.86975 9.56747 5.92415 9.66303 5.95946C9.7586 5.99478 9.86036 6.01028 9.96211 6.00503V6.00503Z" fill="#428DFF"/>
<path d="M36.99 4.50503H14.467C14.3652 4.49977 14.2635 4.51527 14.1679 4.55059C14.0723 4.58591 13.985 4.64031 13.9111 4.71047C13.8372 4.78063 13.7784 4.86509 13.7382 4.95871C13.698 5.05232 13.6772 5.15314 13.6772 5.25503C13.6772 5.35691 13.698 5.45773 13.7382 5.55135C13.7784 5.64497 13.8372 5.72943 13.9111 5.79959C13.985 5.86975 14.0723 5.92415 14.1679 5.95946C14.2635 5.99478 14.3652 6.01028 14.467 6.00503H36.99C37.1822 5.9951 37.3633 5.91175 37.4958 5.77219C37.6283 5.63262 37.7022 5.4475 37.7022 5.25503C37.7022 5.06256 37.6283 4.87743 37.4958 4.73787C37.3633 4.59831 37.1822 4.51496 36.99 4.50503V4.50503Z" fill="#428DFF"/>
<path d="M9.96226 10.509H11.4623C11.6545 10.4991 11.8355 10.4158 11.9681 10.2762C12.1006 10.1366 12.1745 9.9515 12.1745 9.75903C12.1745 9.56656 12.1006 9.38144 11.9681 9.24187C11.8355 9.10231 11.6545 9.01896 11.4623 9.00903H9.96226C9.77004 9.01896 9.58898 9.10231 9.45644 9.24187C9.3239 9.38144 9.25 9.56656 9.25 9.75903C9.25 9.9515 9.3239 10.1366 9.45644 10.2762C9.58898 10.4158 9.77004 10.4991 9.96226 10.509V10.509Z" fill="#428DFF"/>
<path d="M14.467 10.5091H31.735C31.9272 10.4991 32.1083 10.4158 32.2408 10.2762C32.3733 10.1367 32.4472 9.95153 32.4472 9.75906C32.4472 9.56659 32.3733 9.38146 32.2408 9.2419C32.1083 9.10233 31.9272 9.01899 31.735 9.00906H14.467C14.3652 9.0038 14.2635 9.0193 14.1679 9.05462C14.0723 9.08994 13.985 9.14433 13.9111 9.21449C13.8372 9.28466 13.7784 9.36911 13.7382 9.46273C13.698 9.55635 13.6772 9.65717 13.6772 9.75906C13.6772 9.86094 13.698 9.96176 13.7382 10.0554C13.7784 10.149 13.8372 10.2335 13.9111 10.3036C13.985 10.3738 14.0723 10.4282 14.1679 10.4635C14.2635 10.4988 14.3652 10.5143 14.467 10.5091Z" fill="#428DFF"/>
<path d="M9.96211 15.0139H11.4621C11.6543 15.004 11.8354 14.9207 11.9679 14.7811C12.1005 14.6415 12.1744 14.4564 12.1744 14.2639C12.1744 14.0715 12.1005 13.8863 11.9679 13.7468C11.8354 13.6072 11.6543 13.5239 11.4621 13.5139H9.96211C9.86036 13.5087 9.7586 13.5242 9.66303 13.5595C9.56747 13.5948 9.48008 13.6492 9.40621 13.7194C9.33233 13.7895 9.2735 13.874 9.2333 13.9676C9.19309 14.0612 9.17236 14.1621 9.17236 14.2639C9.17236 14.3658 9.19309 14.4666 9.2333 14.5603C9.2735 14.6539 9.33233 14.7383 9.40621 14.8085C9.48008 14.8787 9.56747 14.9331 9.66303 14.9684C9.7586 15.0037 9.86036 15.0192 9.96211 15.0139V15.0139Z" fill="#428DFF"/>
<path d="M14.467 15.0139H18.967C19.1592 15.004 19.3403 14.9207 19.4728 14.7811C19.6053 14.6415 19.6792 14.4564 19.6792 14.2639C19.6792 14.0715 19.6053 13.8863 19.4728 13.7468C19.3403 13.6072 19.1592 13.5239 18.967 13.5139H14.467C14.3652 13.5087 14.2635 13.5242 14.1679 13.5595C14.0723 13.5948 13.985 13.6492 13.9111 13.7194C13.8372 13.7895 13.7784 13.874 13.7382 13.9676C13.698 14.0612 13.6772 14.1621 13.6772 14.2639C13.6772 14.3658 13.698 14.4666 13.7382 14.5603C13.7784 14.6539 13.8372 14.7383 13.9111 14.8085C13.985 14.8787 14.0723 14.9331 14.1679 14.9684C14.2635 15.0037 14.3652 15.0192 14.467 15.0139Z" fill="#428DFF"/>
<path d="M39.2412 15.767C39.2465 15.6653 39.231 15.5635 39.1957 15.468C39.1604 15.3724 39.106 15.285 39.0358 15.2111C38.9656 15.1373 38.8812 15.0784 38.7876 15.0382C38.6939 14.998 38.5931 14.9773 38.4912 14.9773C38.3893 14.9773 38.2885 14.998 38.1949 15.0382C38.1013 15.0784 38.0168 15.1373 37.9467 15.2111C37.8765 15.285 37.8221 15.3724 37.7868 15.468C37.7515 15.5635 37.736 15.6653 37.7412 15.767V26.278C37.7512 26.4703 37.8345 26.6513 37.9741 26.7839C38.1136 26.9164 38.2988 26.9903 38.4912 26.9903C38.6837 26.9903 38.8688 26.9164 39.0084 26.7839C39.148 26.6513 39.2313 26.4703 39.2412 26.278V15.767Z" fill="#428DFF"/>
<path d="M3.70316 36.026L1.09416 42.973C1.00913 43.1996 0.980189 43.4434 1.00982 43.6836C1.03944 43.9238 1.12676 44.1533 1.26431 44.3525C1.40185 44.5516 1.58555 44.7145 1.79971 44.8273C2.01387 44.94 2.25213 44.9993 2.49416 45C2.67703 44.9988 2.8582 44.9649 3.02916 44.9L9.97616 42.294C10.0769 42.2586 10.1687 42.2016 10.2452 42.127L25.6382 26.732L27.7612 24.609L29.3532 23.017C29.6324 22.7383 29.8539 22.4074 30.0051 22.043C30.1562 21.6786 30.234 21.288 30.234 20.8935C30.234 20.499 30.1562 20.1084 30.0051 19.744C29.8539 19.3796 29.6324 19.0487 29.3532 18.77L27.2302 16.646C26.9515 16.3668 26.6205 16.1452 26.2561 15.9941C25.8918 15.8429 25.5011 15.7651 25.1067 15.7651C24.7122 15.7651 24.3216 15.8429 23.9572 15.9941C23.5928 16.1452 23.2618 16.3668 22.9832 16.646L21.3912 18.238L19.2682 20.366L3.87216 35.757C3.79689 35.8333 3.73921 35.9251 3.70316 36.026V36.026ZM2.50316 43.499L4.70316 37.643L8.36116 41.303L2.50316 43.499ZM25.1072 25.14L22.9832 23.016L20.8602 20.893L21.9222 19.831L26.1692 24.078L25.1072 25.14ZM24.0452 17.707C24.3312 17.4336 24.7115 17.2811 25.1072 17.2811C25.5028 17.2811 25.8832 17.4336 26.1692 17.707L28.2922 19.83C28.4319 19.9693 28.5427 20.1349 28.6183 20.3171C28.6939 20.4993 28.7328 20.6947 28.7328 20.892C28.7328 21.0893 28.6939 21.2847 28.6183 21.4669C28.5427 21.6491 28.4319 21.8147 28.2922 21.954L27.2302 23.016L22.9832 18.766L24.0452 17.707ZM19.7982 21.955L21.3902 23.547L16.0812 28.856C16.0101 28.9254 15.9535 29.0083 15.9146 29.0997C15.8758 29.1912 15.8555 29.2895 15.8549 29.3888C15.8543 29.4882 15.8734 29.5867 15.9112 29.6786C15.949 29.7705 16.0046 29.8541 16.0748 29.9243C16.1451 29.9946 16.2286 30.0502 16.3205 30.088C16.4125 30.1257 16.511 30.1449 16.6103 30.1443C16.7097 30.1437 16.808 30.1234 16.8994 30.0845C16.9909 30.0457 17.0737 29.9891 17.1432 29.918L22.4522 24.609L24.0452 26.202L9.71116 40.536L8.11916 38.943L14.4892 32.573C14.6272 32.4316 14.704 32.2415 14.7029 32.0438C14.7017 31.8462 14.6227 31.657 14.4829 31.5172C14.3432 31.3775 14.154 31.2985 13.9563 31.2973C13.7587 31.2961 13.5686 31.3729 13.4272 31.511L7.05716 37.881L5.46516 36.288L19.7982 21.955Z" fill="#428DFF"/>
</svg>
