<svg width="26" height="25" viewBox="0 0 26 25" fill="none" xmlns="http://www.w3.org/2000/svg">
<path d="M25.8027 12.633C25.8027 14.858 25.1429 17.0331 23.9068 18.8832C22.6706 20.7332 20.9136 22.1752 18.8579 23.0266C16.8023 23.8781 14.5403 24.1009 12.358 23.6668C10.1757 23.2327 8.17113 22.1613 6.59779 20.5879C5.02445 19.0146 3.95299 17.01 3.5189 14.8278C3.08482 12.6455 3.30761 10.3835 4.1591 8.32781C5.01058 6.27214 6.45252 4.51513 8.30257 3.27896C10.1526 2.0428 12.3277 1.383 14.5527 1.383C17.5364 1.383 20.3979 2.56826 22.5077 4.67804C24.6175 6.78783 25.8027 9.64931 25.8027 12.633Z" fill="#3C8DEF" fill-opacity="0.4"/>
<path d="M13.4197 1.38302C13.6124 1.38302 13.804 1.38802 13.9947 1.39802C11.157 1.55513 8.48728 2.79307 6.534 4.85748C4.58073 6.92189 3.49227 9.656 3.49227 12.498C3.49227 15.34 4.58073 18.0741 6.534 20.1386C8.48728 22.203 11.157 23.4409 13.9947 23.598C13.804 23.6073 13.6124 23.6124 13.4197 23.613C11.951 23.6269 10.4941 23.3497 9.13314 22.7973C7.7722 22.2449 6.53422 21.4283 5.49073 20.3946C4.44723 19.361 3.61891 18.1308 3.05361 16.7751C2.48832 15.4195 2.19727 13.9653 2.19727 12.4965C2.19727 11.0277 2.48832 9.57352 3.05361 8.21788C3.61891 6.86225 4.44723 5.63207 5.49073 4.59842C6.53422 3.56478 7.7722 2.74816 9.13314 2.19575C10.4941 1.64334 11.951 1.36609 13.4197 1.38002" fill="white"/>
<path d="M7.6701 14.417C7.56853 14.417 7.47111 14.3766 7.39928 14.3048C7.32746 14.233 7.28711 14.1355 7.28711 14.034V10.2C7.28711 10.0983 7.32751 10.0007 7.39943 9.9288C7.47135 9.85688 7.5689 9.81647 7.67061 9.81647C7.77232 9.81647 7.86986 9.85688 7.94178 9.9288C8.0137 10.0007 8.05411 10.0983 8.05411 10.2V14.033C8.05411 14.1346 8.01375 14.232 7.94193 14.3038C7.8701 14.3756 7.77268 14.416 7.6711 14.416" fill="#4785EB"/>
<path d="M9.96991 14.417C9.91961 14.417 9.8698 14.4071 9.82333 14.3878C9.77687 14.3686 9.73465 14.3404 9.69908 14.3048C9.66352 14.2692 9.63531 14.227 9.61606 14.1805C9.59681 14.1341 9.58691 14.0843 9.58691 14.034V10.2C9.58691 10.0983 9.62731 10.0007 9.69923 9.9288C9.77115 9.85688 9.8687 9.81647 9.97041 9.81647C10.0721 9.81647 10.1697 9.85688 10.2416 9.9288C10.3135 10.0007 10.3539 10.0983 10.3539 10.2V14.033C10.3539 14.1346 10.3136 14.232 10.2417 14.3038C10.1699 14.3756 10.0725 14.416 9.9709 14.416" fill="#4785EB"/>
<path d="M9.96994 14.416C9.90369 14.4161 9.83856 14.399 9.78089 14.3664C9.72323 14.3338 9.67501 14.2868 9.64093 14.23L7.34093 10.397C7.28855 10.3099 7.27293 10.2055 7.2975 10.1069C7.32206 10.0082 7.38481 9.92341 7.47193 9.87103C7.55906 9.81865 7.66342 9.80302 7.76207 9.82758C7.86071 9.85215 7.94556 9.9149 7.99794 10.002L10.2979 13.835C10.333 13.8931 10.352 13.9595 10.353 14.0274C10.354 14.0953 10.337 14.1622 10.3036 14.2213C10.2702 14.2804 10.2218 14.3296 10.1631 14.3638C10.1045 14.398 10.0378 14.4161 9.96994 14.416Z" fill="#4785EB"/>
<path d="M16.4872 14.417C16.4049 14.4169 16.3247 14.3903 16.2587 14.3411C16.1926 14.2919 16.1441 14.2228 16.1203 14.144L14.9702 10.311C14.9411 10.2137 14.9518 10.1087 15 10.0193C15.0481 9.92982 15.1299 9.86318 15.2272 9.834C15.3246 9.80483 15.4295 9.81551 15.519 9.86371C15.6084 9.91191 15.6751 9.99367 15.7042 10.091L16.8542 13.924C16.8835 14.0215 16.8728 14.1265 16.8247 14.2162C16.7765 14.3058 16.6947 14.3726 16.5972 14.402C16.5615 14.4125 16.5245 14.4179 16.4872 14.418" fill="#4785EB"/>
<path d="M16.4867 14.417C16.4495 14.4169 16.4124 14.4116 16.3767 14.401C16.2793 14.3717 16.1975 14.3048 16.1493 14.2152C16.1011 14.1256 16.0905 14.0205 16.1197 13.923L17.2697 10.09C17.2989 9.99269 17.3655 9.91094 17.455 9.86275C17.5444 9.81455 17.6494 9.80385 17.7467 9.83302C17.8441 9.8622 17.9258 9.92885 17.974 10.0183C18.0222 10.1078 18.0329 10.2127 18.0037 10.31L16.8537 14.143C16.8299 14.2219 16.7814 14.291 16.7153 14.3401C16.6492 14.3893 16.5691 14.4159 16.4867 14.416" fill="#4785EB"/>
<path d="M18.787 14.417C18.7047 14.4169 18.6245 14.3903 18.5585 14.3411C18.4924 14.2919 18.4438 14.2228 18.42 14.144L17.27 10.311C17.2409 10.2137 17.2516 10.1087 17.2998 10.0193C17.348 9.92982 17.4297 9.86318 17.527 9.834C17.6244 9.80483 17.7293 9.81551 17.8188 9.86371C17.9082 9.91191 17.9749 9.99367 18.004 10.091L19.154 13.924C19.1833 14.0215 19.1726 14.1265 19.1244 14.2162C19.0762 14.3058 18.9945 14.3726 18.897 14.402C18.8613 14.4125 18.8243 14.4179 18.787 14.418" fill="#4785EB"/>
<path d="M18.7865 14.417C18.7493 14.4169 18.7122 14.4116 18.6765 14.401C18.5791 14.3717 18.4973 14.3048 18.4491 14.2152C18.4009 14.1256 18.3903 14.0205 18.4195 13.923L19.5695 10.09C19.5987 9.99269 19.6653 9.91094 19.7548 9.86275C19.8442 9.81455 19.9492 9.80385 20.0465 9.83302C20.1438 9.8622 20.2256 9.92885 20.2738 10.0183C20.322 10.1078 20.3327 10.2127 20.3035 10.31L19.1535 14.143C19.1297 14.2219 19.0812 14.291 19.0151 14.3401C18.949 14.3893 18.8689 14.4159 18.7865 14.416" fill="#4785EB"/>
<path d="M12.5 1.76701C10.3772 1.76701 8.3021 2.39648 6.53707 3.57584C4.77204 4.7552 3.39636 6.43146 2.58401 8.39266C1.77165 10.3539 1.5591 12.5119 1.97324 14.5939C2.38737 16.6759 3.40959 18.5883 4.91063 20.0894C6.41166 21.5904 8.3241 22.6126 10.4061 23.0268C12.4881 23.4409 14.6461 23.2284 16.6073 22.416C18.5685 21.6036 20.2448 20.228 21.4242 18.4629C22.6035 16.6979 23.233 14.6228 23.233 12.5C23.2296 9.65449 22.0977 6.92651 20.0856 4.91443C18.0735 2.90235 15.3455 1.77045 12.5 1.76701ZM12.5 24C10.2255 24 8.00211 23.3255 6.11095 22.0619C4.21978 20.7983 2.7458 19.0022 1.87539 16.9009C1.00498 14.7995 0.777244 12.4872 1.22097 10.2565C1.6647 8.02568 2.75997 5.97658 4.36828 4.36828C5.97658 2.75997 8.02568 1.6647 10.2565 1.22097C12.4872 0.777244 14.7995 1.00498 16.9009 1.87539C19.0022 2.7458 20.7983 4.21978 22.0619 6.11095C23.3255 8.00211 24 10.2255 24 12.5C23.9966 15.5489 22.7839 18.472 20.6279 20.6279C18.472 22.7839 15.5489 23.9966 12.5 24Z" fill="#3C8DEF"/>
<path d="M12.5 24C10.2255 24 8.00211 23.3255 6.11095 22.0619C4.21978 20.7983 2.7458 19.0022 1.87539 16.9009C1.00498 14.7995 0.777244 12.4872 1.22097 10.2565C1.6647 8.02568 2.75997 5.97658 4.36828 4.36828C5.97658 2.75997 8.02568 1.6647 10.2565 1.22097C12.4872 0.777244 14.7995 1.00498 16.9009 1.87539C19.0022 2.7458 20.7983 4.21978 22.0619 6.11095C23.3255 8.00211 24 10.2255 24 12.5C23.9966 15.5489 22.7839 18.472 20.6279 20.6279C18.472 22.7839 15.5489 23.9966 12.5 24M12.5 1.76701C10.3772 1.76701 8.3021 2.39648 6.53707 3.57584C4.77204 4.7552 3.39636 6.43146 2.58401 8.39266C1.77165 10.3539 1.5591 12.5119 1.97324 14.5939C2.38737 16.6759 3.40959 18.5883 4.91063 20.0894C6.41167 21.5904 8.3241 22.6126 10.4061 23.0268C12.4881 23.4409 14.6461 23.2284 16.6073 22.416C18.5685 21.6036 20.2448 20.228 21.4242 18.4629C22.6035 16.6979 23.233 14.6228 23.233 12.5C23.2296 9.65449 22.0977 6.92651 20.0856 4.91443C18.0735 2.90235 15.3455 1.77045 12.5 1.76701V1.76701Z" stroke="#3C8CEC" stroke-width="0.5"/>
<path d="M11.8859 14.417C11.7843 14.417 11.6869 14.3766 11.6151 14.3048C11.5433 14.233 11.5029 14.1355 11.5029 14.034V10.2C11.5029 10.0983 11.5433 10.0007 11.6152 9.9288C11.6872 9.85688 11.7847 9.81647 11.8864 9.81647C11.9881 9.81647 12.0857 9.85688 12.1576 9.9288C12.2295 10.0007 12.2699 10.0983 12.2699 10.2V14.033C12.2699 14.1346 12.2296 14.232 12.1577 14.3038C12.0859 14.3756 11.9885 14.416 11.8869 14.416" fill="#4785EB"/>
<path d="M13.4204 14.417H11.8874C11.7857 14.417 11.6881 14.3766 11.6162 14.3047C11.5443 14.2328 11.5039 14.1352 11.5039 14.0335C11.5039 13.9318 11.5443 13.8342 11.6162 13.7623C11.6881 13.6904 11.7857 13.65 11.8874 13.65H13.4204C13.5221 13.65 13.6197 13.6904 13.6916 13.7623C13.7635 13.8342 13.8039 13.9318 13.8039 14.0335C13.8039 14.1352 13.7635 14.2328 13.6916 14.3047C13.6197 14.3766 13.5221 14.417 13.4204 14.417Z" fill="#4785EB"/>
<path d="M13.4204 10.584H11.8874C11.7857 10.584 11.6881 10.5436 11.6162 10.4717C11.5443 10.3998 11.5039 10.3022 11.5039 10.2005C11.5039 10.0988 11.5443 10.0013 11.6162 9.92934C11.6881 9.85742 11.7857 9.81702 11.8874 9.81702H13.4204C13.5221 9.81702 13.6197 9.85742 13.6916 9.92934C13.7635 10.0013 13.8039 10.0988 13.8039 10.2005C13.8039 10.3022 13.7635 10.3998 13.6916 10.4717C13.6197 10.5436 13.5221 10.584 13.4204 10.584Z" fill="#4785EB"/>
<path d="M13.4204 12.499H11.8874C11.7857 12.499 11.6881 12.4586 11.6162 12.3867C11.5443 12.3148 11.5039 12.2172 11.5039 12.1155C11.5039 12.0138 11.5443 11.9162 11.6162 11.8443C11.6881 11.7724 11.7857 11.732 11.8874 11.732H13.4204C13.5221 11.732 13.6197 11.7724 13.6916 11.8443C13.7635 11.9162 13.8039 12.0138 13.8039 12.1155C13.8039 12.2172 13.7635 12.3148 13.6916 12.3867C13.6197 12.4586 13.5221 12.499 13.4204 12.499Z" fill="#4785EB"/>
</svg>
