<svg width="18" height="23" viewBox="0 0 18 23" fill="none" xmlns="http://www.w3.org/2000/svg">
<path d="M16.055 16.6V9.666C16.053 8.13214 15.559 6.63938 14.6454 5.40723C13.7319 4.17508 12.4471 3.26857 10.98 2.821C10.98 2.808 10.98 2.795 10.98 2.782V2.2C10.9948 1.63274 10.7842 1.08273 10.3944 0.670398C10.0045 0.258062 9.46719 0.0170023 8.9 0C8.3328 0.0170023 7.79546 0.258062 7.40561 0.670398C7.01577 1.08273 6.8052 1.63274 6.82 2.2V2.781C6.82 2.794 6.82 2.807 6.82 2.82C5.35329 3.26815 4.06904 4.17504 3.15606 5.40734C2.24309 6.63965 1.74955 8.13235 1.748 9.666V16.6C1.26186 16.6743 0.818369 16.9201 0.497751 17.293C0.177133 17.6659 0.000567807 18.1412 0 18.633L0 19.707C0.000264645 19.9286 0.0884279 20.1411 0.245151 20.2978C0.401874 20.4546 0.61436 20.5427 0.836 20.543H5.845C5.9986 21.2392 6.3853 21.8622 6.94111 22.3087C7.49692 22.7553 8.18853 22.9987 8.9015 22.9987C9.61447 22.9987 10.3061 22.7553 10.8619 22.3087C11.4177 21.8622 11.8044 21.2392 11.958 20.543H16.967C17.1886 20.5427 17.4011 20.4546 17.5578 20.2978C17.7146 20.1411 17.8027 19.9286 17.803 19.707V18.633C17.8026 18.1412 17.6261 17.6657 17.3055 17.2928C16.9848 16.9199 16.5412 16.6741 16.055 16.6ZM8.17 2.2C8.1556 1.99062 8.22405 1.78396 8.36061 1.62458C8.49716 1.4652 8.69088 1.36587 8.9 1.348C9.10966 1.36537 9.30404 1.46463 9.44105 1.62428C9.57805 1.78394 9.64666 1.99113 9.632 2.201V2.55C9.14526 2.50041 8.65474 2.50041 8.168 2.55L8.17 2.2ZM3.1 9.666C3.1 8.12615 3.7117 6.64937 4.80054 5.56054C5.88937 4.4717 7.36615 3.86 8.906 3.86C10.4458 3.86 11.9226 4.4717 13.0115 5.56054C14.1003 6.64937 14.712 8.12615 14.712 9.666V16.578H3.1V9.666ZM8.9 21.652C8.54586 21.6517 8.19982 21.546 7.90585 21.3486C7.61187 21.1511 7.38324 20.8707 7.249 20.543H10.549C10.4149 20.8704 10.1866 21.1506 9.89298 21.348C9.5994 21.5455 9.2538 21.6513 8.9 21.652ZM16.456 19.2H1.348V18.638C1.34826 18.4503 1.42294 18.2704 1.55566 18.1377C1.68838 18.0049 1.86831 17.9303 2.056 17.93H15.748C15.9357 17.9303 16.1156 18.0049 16.2483 18.1377C16.3811 18.2704 16.4557 18.4503 16.456 18.638V19.2Z" fill="white"/>
</svg>
