<svg width="25" height="20" viewBox="0 0 25 20" fill="none" xmlns="http://www.w3.org/2000/svg">
<path d="M23.219 3.31801L21.872 3.201V13.539C21.8716 13.6974 21.8393 13.854 21.777 13.9996C21.7147 14.1452 21.6238 14.2767 21.5095 14.3864C21.3953 14.4961 21.2601 14.5816 21.1121 14.6379C20.9641 14.6941 20.8063 14.72 20.648 14.714H1.83104L1.79004 14.914C1.77651 15.0712 1.79431 15.2296 1.84241 15.3799C1.89051 15.5302 1.96796 15.6695 2.07028 15.7897C2.17259 15.9098 2.29772 16.0085 2.43844 16.08C2.57916 16.1515 2.73265 16.1943 2.89004 16.206L21.747 18.242C22.0655 18.2785 22.3855 18.188 22.6376 17.9901C22.8898 17.7923 23.0538 17.503 23.094 17.185L24.318 4.61501C24.3316 4.45776 24.3138 4.29941 24.2657 4.14909C24.2176 3.99878 24.1401 3.8595 24.0378 3.73933C23.9355 3.61917 23.8104 3.52048 23.6696 3.44902C23.5289 3.37756 23.3754 3.33472 23.218 3.323" fill="#599BF0" fill-opacity="0.3"/>
<path d="M21.7491 18.278C22.0675 18.3145 22.3875 18.224 22.6396 18.0261C22.8918 17.8283 23.0558 17.539 23.0961 17.221L24.3201 4.651C24.3336 4.49376 24.3158 4.3354 24.2677 4.18509C24.2196 4.03478 24.1421 3.8955 24.0398 3.77533C23.9375 3.65516 23.8124 3.55648 23.6717 3.48502C23.5309 3.41355 23.3774 3.37073 23.2201 3.35901H22.9751C23.1557 3.47623 23.3008 3.64077 23.3944 3.83473C23.488 4.02869 23.5267 4.24461 23.5061 4.459L22.2821 17.029C22.2279 17.3405 22.0603 17.6209 21.8115 17.8161C21.5628 18.0113 21.2505 18.1075 20.9351 18.086L21.7491 18.278Z" fill="#3C8DEF" fill-opacity="0.3"/>
<path d="M20.4084 15.918H1.63245C1.47081 15.9213 1.31019 15.8918 1.16021 15.8315C1.01023 15.7711 0.873991 15.6811 0.759675 15.5668C0.645359 15.4525 0.55532 15.3162 0.494965 15.1662C0.43461 15.0163 0.405182 14.8556 0.408448 14.694V1.632C0.405182 1.47037 0.43461 1.30974 0.494965 1.15976C0.55532 1.00979 0.645359 0.873549 0.759675 0.759232C0.873991 0.644916 1.01023 0.554878 1.16021 0.494523C1.31019 0.434168 1.47081 0.404739 1.63245 0.408006H20.4084C20.5701 0.404739 20.7307 0.434168 20.8807 0.494523C21.0307 0.554878 21.1669 0.644916 21.2812 0.759232C21.3955 0.873549 21.4856 1.00979 21.5459 1.15976C21.6063 1.30974 21.6357 1.47037 21.6324 1.632V14.694C21.6357 14.8556 21.6063 15.0163 21.5459 15.1662C21.4856 15.3162 21.3955 15.4525 21.2812 15.5668C21.1669 15.6811 21.0307 15.7711 20.8807 15.8315C20.7307 15.8918 20.5701 15.9213 20.4084 15.918Z" fill="#599BF0" fill-opacity="0.3"/>
<path d="M0.408203 5.714H21.6332V2.449H0.408203V5.714Z" fill="#3C8DEF" fill-opacity="0.3"/>
<path d="M20.4081 0.407996H19.1841C19.3457 0.404729 19.5064 0.434158 19.6563 0.494513C19.8063 0.554868 19.9425 0.644906 20.0569 0.759223C20.1712 0.873539 20.2612 1.00978 20.3216 1.15975C20.3819 1.30973 20.4113 1.47036 20.4081 1.63199V14.694C20.4113 14.8556 20.3819 15.0163 20.3216 15.1662C20.2612 15.3162 20.1712 15.4525 20.0569 15.5668C19.9425 15.6811 19.8063 15.7711 19.6563 15.8315C19.5064 15.8918 19.3457 15.9213 19.1841 15.918H20.4081C20.5698 15.9214 20.7305 15.8921 20.8806 15.8318C21.0307 15.7715 21.1671 15.6815 21.2815 15.5671C21.3959 15.4528 21.4861 15.3165 21.5465 15.1665C21.6069 15.0164 21.6364 14.8557 21.6331 14.694V1.63199C21.6364 1.47027 21.6069 1.30956 21.5465 1.15951C21.4861 1.00947 21.3959 0.873187 21.2815 0.758856C21.1671 0.644526 21.0307 0.554506 20.8806 0.494212C20.7305 0.433917 20.5698 0.404593 20.4081 0.407996Z" fill="#3C8DEF" fill-opacity="0.39"/>
<path d="M1.63245 0.408006H2.85745C2.69581 0.404739 2.53519 0.434168 2.38521 0.494523C2.23523 0.554878 2.09899 0.644916 1.98468 0.759232C1.87036 0.873549 1.78032 1.00979 1.71996 1.15976C1.65961 1.30974 1.63018 1.47037 1.63345 1.632V14.694C1.63018 14.8556 1.65961 15.0163 1.71996 15.1662C1.78032 15.3162 1.87036 15.4525 1.98468 15.5668C2.09899 15.6811 2.23523 15.7711 2.38521 15.8315C2.53519 15.8918 2.69581 15.9213 2.85745 15.918H1.63245C1.47081 15.9213 1.31019 15.8918 1.16021 15.8315C1.01023 15.7711 0.873991 15.6811 0.759675 15.5668C0.645359 15.4525 0.55532 15.3162 0.494965 15.1662C0.43461 15.0163 0.405182 14.8556 0.408448 14.694V1.632C0.405182 1.47037 0.43461 1.30974 0.494965 1.15976C0.55532 1.00979 0.645359 0.873549 0.759675 0.759232C0.873991 0.644916 1.01023 0.554878 1.16021 0.494523C1.31019 0.434168 1.47081 0.404739 1.63245 0.408006Z" fill="white"/>
<path d="M13.061 13.469H19.5941V9.79601H13.063L13.061 13.469Z" fill="#599BF0" fill-opacity="0.3"/>
<path d="M19.5912 13.469V9.79601H18.3672V13.469H19.5912Z" fill="#3C8DEF" fill-opacity="0.3"/>
<path d="M20.408 16.327H1.633C1.20023 16.3259 0.78548 16.1536 0.479461 15.8475C0.173443 15.5415 0.00105619 15.1268 0 14.694V1.633C0.00105619 1.20023 0.173443 0.78548 0.479461 0.479462C0.78548 0.173443 1.20023 0.00105619 1.633 0H20.408C20.8408 0.00105619 21.2555 0.173443 21.5615 0.479462C21.8676 0.78548 22.0399 1.20023 22.041 1.633V14.694C22.0399 15.1268 21.8676 15.5415 21.5615 15.8475C21.2555 16.1536 20.8408 16.3259 20.408 16.327ZM1.633 0.816002C1.41683 0.816792 1.20973 0.903015 1.05687 1.05587C0.904015 1.20873 0.81779 1.41583 0.817 1.632V14.694C0.81779 14.9102 0.904015 15.1173 1.05687 15.2701C1.20973 15.423 1.41683 15.5092 1.633 15.51H20.408C20.6242 15.5092 20.8313 15.423 20.9841 15.2701C21.137 15.1173 21.2232 14.9102 21.224 14.694V1.633C21.2232 1.41683 21.137 1.20973 20.9841 1.05687C20.8313 0.904015 20.6242 0.817792 20.408 0.817001L1.633 0.816002Z" fill="#3C8DEF"/>
<path d="M21.6332 6.123H0.408238C0.353733 6.12622 0.299167 6.11783 0.248142 6.0984C0.197117 6.07897 0.150795 6.04893 0.112235 6.01028C0.0736744 5.97162 0.0437532 5.92523 0.0244473 5.87416C0.00514147 5.82308 -0.0031099 5.7685 0.000238149 5.714V2.449C-0.00296267 2.39458 0.00539794 2.34011 0.0247696 2.28916C0.0441413 2.23821 0.0740848 2.19194 0.112629 2.15339C0.151173 2.11485 0.197444 2.0849 0.248395 2.06553C0.299346 2.04616 0.353823 2.0378 0.408238 2.041H21.6332C21.6877 2.0378 21.7421 2.04616 21.7931 2.06553C21.844 2.0849 21.8903 2.11485 21.9288 2.15339C21.9674 2.19194 21.9973 2.23821 22.0167 2.28916C22.0361 2.34011 22.0444 2.39458 22.0412 2.449V5.714C22.0446 5.7685 22.0363 5.82308 22.017 5.87416C21.9977 5.92523 21.9678 5.97162 21.9292 6.01028C21.8907 6.04893 21.8444 6.07897 21.7933 6.0984C21.7423 6.11783 21.6877 6.12622 21.6332 6.123ZM0.816238 5.306H21.2252V2.861H0.816238V5.306Z" fill="#3C8DEF"/>
<path d="M19.592 13.878H13.061C13.0066 13.8812 12.9521 13.8728 12.9012 13.8535C12.8502 13.8341 12.8039 13.8041 12.7654 13.7656C12.7269 13.7271 12.6969 13.6808 12.6775 13.6298C12.6582 13.5789 12.6498 13.5244 12.653 13.47V9.79699C12.6498 9.74258 12.6582 9.68809 12.6775 9.63714C12.6969 9.58619 12.7269 9.53993 12.7654 9.50138C12.8039 9.46284 12.8502 9.43289 12.9012 9.41352C12.9521 9.39415 13.0066 9.38579 13.061 9.38899H19.592C19.6464 9.38579 19.7009 9.39415 19.7519 9.41352C19.8028 9.43289 19.8491 9.46284 19.8876 9.50138C19.9262 9.53993 19.9561 9.58619 19.9755 9.63714C19.9949 9.68809 20.0032 9.74258 20 9.79699V13.47C20.0032 13.5244 19.9949 13.5789 19.9755 13.6298C19.9561 13.6808 19.9262 13.7271 19.8876 13.7656C19.8491 13.8041 19.8028 13.8341 19.7519 13.8535C19.7009 13.8728 19.6464 13.8812 19.592 13.878ZM13.47 13.062H19.184V10.207H13.469L13.47 13.062Z" fill="#3C8DEF"/>
<path d="M5.3063 8.571H2.0413C1.93309 8.571 1.82932 8.52802 1.7528 8.45151C1.67629 8.37499 1.6333 8.2712 1.6333 8.16299C1.6333 8.05479 1.67629 7.95101 1.7528 7.8745C1.82932 7.79798 1.93309 7.755 2.0413 7.755H5.3063C5.41451 7.755 5.51829 7.79798 5.5948 7.8745C5.67132 7.95101 5.7143 8.05479 5.7143 8.16299C5.7143 8.2712 5.67132 8.37499 5.5948 8.45151C5.51829 8.52802 5.41451 8.571 5.3063 8.571Z" fill="#3C8DEF"/>
<path d="M10.2042 8.571H6.93924C6.83103 8.571 6.72726 8.52802 6.65074 8.45151C6.57423 8.37499 6.53125 8.2712 6.53125 8.16299C6.53125 8.05479 6.57423 7.95101 6.65074 7.8745C6.72726 7.79798 6.83103 7.755 6.93924 7.755H10.2042C10.3124 7.755 10.4162 7.79798 10.4928 7.8745C10.5693 7.95101 10.6122 8.05479 10.6122 8.16299C10.6122 8.2712 10.5693 8.37499 10.4928 8.45151C10.4162 8.52802 10.3124 8.571 10.2042 8.571Z" fill="#3C8DEF"/>
<path d="M7.3473 10.207H2.0413C1.93309 10.207 1.82932 10.164 1.7528 10.0875C1.67629 10.011 1.6333 9.9072 1.6333 9.799C1.6333 9.69079 1.67629 9.58701 1.7528 9.5105C1.82932 9.43398 1.93309 9.39099 2.0413 9.39099H7.3473C7.45551 9.39099 7.55929 9.43398 7.6358 9.5105C7.71232 9.58701 7.7553 9.69079 7.7553 9.799C7.7553 9.9072 7.71232 10.011 7.6358 10.0875C7.55929 10.164 7.45551 10.207 7.3473 10.207Z" fill="#3C8DEF"/>
<path d="M10.2043 10.207H8.98026C8.87205 10.207 8.76827 10.164 8.69176 10.0875C8.61524 10.011 8.57227 9.9072 8.57227 9.799C8.57227 9.69079 8.61524 9.58701 8.69176 9.5105C8.76827 9.43398 8.87205 9.39099 8.98026 9.39099H10.2043C10.3125 9.39099 10.4163 9.43398 10.4928 9.5105C10.5693 9.58701 10.6123 9.69079 10.6123 9.799C10.6123 9.9072 10.5693 10.011 10.4928 10.0875C10.4163 10.164 10.3125 10.207 10.2043 10.207Z" fill="#3C8DEF"/>
<path d="M21.6311 20H21.4681L2.6111 17.878C2.39712 17.8585 2.18932 17.7958 2.00027 17.6937C1.81123 17.5916 1.64487 17.4522 1.51127 17.2839C1.37768 17.1156 1.27962 16.922 1.22304 16.7147C1.16646 16.5074 1.15253 16.2908 1.1821 16.078L1.2231 15.878C1.22297 15.8298 1.23237 15.782 1.25077 15.7374C1.26916 15.6928 1.29619 15.6523 1.3303 15.6182C1.3644 15.5841 1.40491 15.5571 1.4495 15.5387C1.49409 15.5203 1.54187 15.5109 1.5901 15.511H20.4081C20.6243 15.5102 20.8314 15.424 20.9842 15.2711C21.1371 15.1183 21.2233 14.9112 21.2241 14.695V3.917C21.2221 3.86087 21.2331 3.80504 21.2562 3.75387C21.2794 3.7027 21.314 3.65759 21.3575 3.62204C21.401 3.5865 21.4521 3.5615 21.5068 3.549C21.5616 3.5365 21.6185 3.53684 21.6731 3.54999L23.0201 3.71299C23.2365 3.73058 23.4466 3.7943 23.6364 3.89986C23.8261 4.00542 23.9911 4.15038 24.1201 4.32499C24.2576 4.48763 24.3609 4.67627 24.424 4.87968C24.487 5.08309 24.5085 5.29711 24.4871 5.50899L23.2661 18.617C23.2057 19.0057 23.0071 19.3596 22.7067 19.6137C22.4064 19.8677 22.0245 20.0049 21.6311 20ZM2.0001 16.327C2.01973 16.5152 2.10347 16.691 2.23729 16.8248C2.37111 16.9586 2.54687 17.0424 2.7351 17.062L21.5511 19.184C21.7678 19.2055 21.9843 19.1402 22.153 19.0025C22.3217 18.8647 22.4289 18.6657 22.4511 18.449L23.6751 5.349C23.6895 5.24128 23.6825 5.13178 23.6545 5.02677C23.6265 4.92176 23.5781 4.82329 23.5121 4.737C23.4505 4.65276 23.3709 4.58336 23.279 4.53387C23.1871 4.48439 23.0853 4.45607 22.9811 4.45099L22.0421 4.36899V14.696C22.041 15.1288 21.8687 15.5435 21.5626 15.8495C21.2566 16.1556 20.8419 16.3279 20.4091 16.329H2.0001V16.327Z" fill="#3C8DEF"/>
</svg>
