<svg width="21" height="26" viewBox="0 0 21 26" fill="none" xmlns="http://www.w3.org/2000/svg">
<g opacity="0.4">
<path opacity="0.4" d="M13.3079 4.45504C13.1291 4.45504 12.9577 4.38403 12.8313 4.25763C12.7049 4.13123 12.6339 3.95979 12.6339 3.78104V3.20004C12.6505 3.09429 12.644 2.9862 12.6149 2.88319C12.5857 2.78019 12.5346 2.68472 12.4651 2.60336C12.3955 2.522 12.3091 2.45667 12.2119 2.41188C12.1147 2.36709 12.0089 2.3439 11.9018 2.3439C11.7948 2.3439 11.689 2.36709 11.5918 2.41188C11.4946 2.45667 11.4082 2.522 11.3386 2.60336C11.2691 2.68472 11.218 2.78019 11.1888 2.88319C11.1597 2.9862 11.1532 3.09429 11.1699 3.20004V3.78104C11.1699 3.95979 11.0988 4.13123 10.9724 4.25763C10.846 4.38403 10.6746 4.45504 10.4959 4.45504C10.3171 4.45504 10.1457 4.38403 10.0193 4.25763C9.89286 4.13123 9.82186 3.95979 9.82186 3.78104V3.20004C9.80542 2.91681 9.84701 2.6332 9.94408 2.36662C10.0412 2.10003 10.1917 1.85609 10.3864 1.64975C10.5811 1.4434 10.8159 1.27901 11.0764 1.16665C11.3369 1.05429 11.6176 0.996338 11.9014 0.996338C12.1851 0.996338 12.4658 1.05429 12.7263 1.16665C12.9868 1.27901 13.2216 1.4434 13.4163 1.64975C13.611 1.85609 13.7616 2.10003 13.8586 2.36662C13.9557 2.6332 13.9973 2.91681 13.9809 3.20004V3.78104C13.9809 3.95962 13.91 4.1309 13.7838 4.25728C13.6576 4.38365 13.4864 4.45477 13.3079 4.45504Z" fill="#3C8DEF"/>
<path opacity="0.4" d="M14.3595 20.1951H9.44548C9.26672 20.1951 9.0953 20.2661 8.9689 20.3925C8.8425 20.5189 8.77148 20.6903 8.77148 20.869C8.77148 21.6993 9.1013 22.4956 9.68839 23.0826C10.2755 23.6697 11.0717 23.9995 11.902 23.9995C12.7323 23.9995 13.5285 23.6697 14.1156 23.0826C14.7027 22.4956 15.0325 21.6993 15.0325 20.869C15.0325 20.6905 14.9616 20.5192 14.8354 20.3928C14.7093 20.2665 14.5381 20.1953 14.3595 20.1951Z" fill="#599BF0"/>
<path opacity="0.4" d="M12.03 3.51306H11.77C9.90835 3.51518 8.1235 4.25568 6.80708 5.5721C5.49066 6.88852 4.75016 8.67336 4.74805 10.5351V18.2531C4.74805 18.3416 4.76548 18.4292 4.79935 18.511C4.83323 18.5928 4.88287 18.6671 4.94546 18.7297C5.00804 18.7922 5.08235 18.8419 5.16412 18.8758C5.24589 18.9096 5.33354 18.9271 5.42205 18.9271H18.381C18.4696 18.9271 18.5572 18.9096 18.639 18.8758C18.7208 18.8419 18.7951 18.7922 18.8576 18.7297C18.9202 18.6671 18.9699 18.5928 19.0037 18.511C19.0376 18.4292 19.055 18.3416 19.055 18.2531V10.5341C19.0527 8.67202 18.3116 6.88697 16.9946 5.57068C15.6776 4.25439 13.8921 3.51438 12.03 3.51306Z" fill="#599BF0"/>
<path opacity="0.4" d="M18.748 17.5781H5.055C4.51022 17.5789 3.98799 17.7956 3.60277 18.1808C3.21756 18.5661 3.00079 19.0883 3 19.6331V20.7071C3.00132 20.928 3.08995 21.1395 3.24656 21.2953C3.40317 21.4512 3.61505 21.5388 3.836 21.5391H19.968C20.1896 21.5388 20.4021 21.4506 20.5588 21.2939C20.7156 21.1372 20.8037 20.9247 20.804 20.7031V19.6291C20.8022 19.0848 20.5848 18.5635 20.1995 18.1791C19.8141 17.7947 19.2923 17.5786 18.748 17.5781Z" fill="#3C8DEF"/>
</g>
<path d="M17.451 18.044V10.506C17.449 8.83853 16.912 7.21571 15.9188 5.87625C14.9257 4.53679 13.529 3.55139 11.934 3.065C11.934 3.051 11.934 3.037 11.934 3.023V2.392C11.9502 1.77582 11.7217 1.17829 11.2986 0.730061C10.8755 0.281829 10.2921 0.0193478 9.676 0C9.05938 0.0185706 8.47524 0.280712 8.05147 0.72903C7.62771 1.17735 7.39885 1.77531 7.415 2.392V3.024C7.415 3.038 7.415 3.052 7.415 3.066C5.82058 3.55269 4.42438 4.53809 3.43165 5.87732C2.43893 7.21655 1.90207 8.83896 1.9 10.506V18.044C1.37155 18.1247 0.889457 18.392 0.540953 18.7973C0.192448 19.2027 0.000556383 19.7194 0 20.254L0 21.422C0.00026469 21.6627 0.0960137 21.8935 0.266239 22.0638C0.436465 22.234 0.667265 22.3297 0.908 22.33H6.353C6.51782 23.0887 6.9373 23.7681 7.54174 24.2553C8.14617 24.7425 8.89915 25.0082 9.6755 25.0082C10.4519 25.0082 11.2048 24.7425 11.8093 24.2553C12.4137 23.7681 12.8332 23.0887 12.998 22.33H18.443C18.6837 22.3297 18.9145 22.234 19.0848 22.0638C19.255 21.8935 19.3507 21.6627 19.351 21.422V20.254C19.3506 19.7194 19.1588 19.2025 18.8103 18.7971C18.4617 18.3917 17.9795 18.1245 17.451 18.044ZM8.88 2.392C8.86428 2.16324 8.9395 1.93753 9.08931 1.76393C9.23912 1.59034 9.4514 1.48291 9.68 1.465C9.9086 1.48291 10.1209 1.59034 10.2707 1.76393C10.4205 1.93753 10.4957 2.16324 10.48 2.392V2.772C9.95103 2.71812 9.41796 2.71812 8.889 2.772L8.88 2.392ZM3.365 10.506C3.35448 9.67061 3.50994 8.84144 3.82236 8.0666C4.13477 7.29175 4.59792 6.58665 5.18495 5.99218C5.77198 5.39772 6.4712 4.92573 7.24205 4.60359C8.0129 4.28144 8.84004 4.11556 9.6755 4.11556C10.511 4.11556 11.3381 4.28144 12.109 4.60359C12.8798 4.92573 13.579 5.39772 14.166 5.99218C14.7531 6.58665 15.2162 7.29175 15.5286 8.0666C15.8411 8.84144 15.9965 9.67061 15.986 10.506V18.019H3.365V10.506ZM9.676 23.535C9.2912 23.5346 8.91521 23.4198 8.59579 23.2053C8.27636 22.9907 8.02791 22.6861 7.882 22.33H11.47C11.3241 22.6861 11.0756 22.9907 10.7562 23.2053C10.4368 23.4198 10.0608 23.5346 9.676 23.535ZM17.887 20.865H1.465V20.254C1.46526 20.0501 1.54637 19.8547 1.69053 19.7105C1.83469 19.5664 2.03013 19.4853 2.234 19.485H17.118C17.3219 19.4853 17.5173 19.5664 17.6615 19.7105C17.8056 19.8547 17.8867 20.0501 17.887 20.254V20.865Z" fill="#3C8DEF"/>
</svg>
