<svg width="19" height="19" viewBox="0 0 19 19" fill="none" xmlns="http://www.w3.org/2000/svg">
<path d="M17.792 16.791L12.958 11.957C14.0442 10.6146 14.574 8.90665 14.4381 7.18521C14.3021 5.46377 13.5108 3.86012 12.2274 2.70489C10.9439 1.54966 9.2661 0.930942 7.5399 0.976297C5.81369 1.02165 4.1707 1.72763 2.94966 2.94866C1.72863 4.16969 1.02266 5.81269 0.977304 7.53889C0.931949 9.26509 1.55067 10.9429 2.7059 12.2264C3.86112 13.5098 5.46478 14.3011 7.18622 14.437C8.90766 14.573 10.6156 14.0432 11.958 12.957L16.791 17.797C16.8554 17.8682 16.9335 17.9255 17.0208 17.9656C17.108 18.0056 17.2024 18.0275 17.2984 18.0299C17.3943 18.0323 17.4897 18.0152 17.5788 17.9796C17.668 17.944 17.7489 17.8906 17.8168 17.8228C17.8846 17.7549 17.938 17.674 17.9736 17.5848C18.0092 17.4957 18.0263 17.4003 18.0239 17.3043C18.0215 17.2084 17.9996 17.114 17.9596 17.0267C17.9195 16.9395 17.8622 16.8614 17.791 16.797L17.792 16.791ZM7.729 13.042C6.67814 13.0422 5.65083 12.7308 4.77698 12.1471C3.90313 11.5634 3.222 10.7337 2.81971 9.76288C2.41743 8.79208 2.31207 7.72378 2.51697 6.69309C2.72186 5.6624 3.22779 4.71562 3.97079 3.97249C4.71378 3.22935 5.66047 2.72324 6.69112 2.51815C7.72176 2.31307 8.79008 2.41823 9.76097 2.82032C10.7318 3.22242 11.5617 3.9034 12.1455 4.77714C12.7294 5.65088 13.041 6.67814 13.041 7.72899C13.0397 9.13751 12.4796 10.488 11.4837 11.484C10.4879 12.4801 9.13752 13.0404 7.729 13.042Z" fill="#C3C3C3"/>
</svg>
