<svg width="25" height="25" viewBox="0 0 25 25" fill="none" xmlns="http://www.w3.org/2000/svg">
<path d="M23.7129 10.182H22.4179C22.1662 9.09896 21.7378 8.06479 21.1499 7.121L22.0659 6.205C22.1425 6.12847 22.2033 6.03759 22.2448 5.93756C22.2862 5.83752 22.3076 5.73029 22.3076 5.622C22.3076 5.51371 22.2862 5.40648 22.2448 5.30644C22.2033 5.20641 22.1425 5.11553 22.0659 5.039L19.9579 2.931C19.8814 2.85438 19.7905 2.7936 19.6904 2.75213C19.5904 2.71066 19.4832 2.68931 19.3749 2.68931C19.2666 2.68931 19.1594 2.71066 19.0593 2.75213C18.9593 2.7936 18.8684 2.85438 18.7919 2.931L17.8759 3.847C16.9319 3.26014 15.8978 2.83276 14.8149 2.582V1.287C14.8149 1.17879 14.7936 1.07164 14.7522 0.971669C14.7108 0.871696 14.6501 0.78086 14.5735 0.704344C14.497 0.627829 14.4062 0.567133 14.3062 0.525723C14.2062 0.484313 14.0991 0.463 13.9909 0.463H11.0099C10.7914 0.463 10.5818 0.549814 10.4272 0.704344C10.2727 0.858874 10.1859 1.06846 10.1859 1.287V2.582C9.10284 2.83367 8.06865 3.26208 7.12489 3.85L6.20889 2.934C6.13236 2.85738 6.04148 2.7966 5.94145 2.75513C5.84141 2.71366 5.73418 2.69231 5.62589 2.69231C5.5176 2.69231 5.41037 2.71366 5.31034 2.75513C5.2103 2.7966 5.11942 2.85738 5.04289 2.934L2.93489 5.042C2.85827 5.11853 2.79749 5.20941 2.75602 5.30944C2.71455 5.40948 2.6932 5.51671 2.6932 5.625C2.6932 5.73329 2.71455 5.84052 2.75602 5.94056C2.79749 6.04059 2.85827 6.13147 2.93489 6.208L3.85089 7.124C3.26297 8.0668 2.83424 9.09994 2.58189 10.182H1.28689C1.06835 10.182 0.858765 10.2688 0.704235 10.4233C0.549705 10.5779 0.462891 10.7875 0.462891 11.006V13.987C0.462891 14.2055 0.549705 14.4151 0.704235 14.5697C0.858765 14.7242 1.06835 14.811 1.28689 14.811H2.58189C2.83361 15.894 3.26202 16.9282 3.84989 17.872L2.93389 18.788C2.85727 18.8645 2.79649 18.9554 2.75502 19.0554C2.71355 19.1555 2.6922 19.2627 2.6922 19.371C2.6922 19.4793 2.71355 19.5865 2.75502 19.6866C2.79649 19.7866 2.85727 19.8775 2.93389 19.954L5.04189 22.062C5.11842 22.1386 5.2093 22.1994 5.30933 22.2409C5.40937 22.2823 5.5166 22.3037 5.62489 22.3037C5.73318 22.3037 5.84041 22.2823 5.94045 22.2409C6.04048 22.1994 6.13136 22.1386 6.20789 22.062L7.12389 21.146C8.0665 21.735 9.09965 22.1647 10.1819 22.418V23.713C10.1819 23.9315 10.2687 24.1411 10.4232 24.2957C10.5778 24.4502 10.7874 24.537 11.0059 24.537H13.9869C14.2054 24.537 14.415 24.4502 14.5695 24.2957C14.7241 24.1411 14.8109 23.9315 14.8109 23.713V22.418C15.8939 22.1663 16.9281 21.7379 17.8719 21.15L18.7879 22.066C18.8644 22.1426 18.9553 22.2034 19.0553 22.2449C19.1554 22.2863 19.2626 22.3077 19.3709 22.3077C19.4792 22.3077 19.5864 22.2863 19.6864 22.2449C19.7865 22.2034 19.8774 22.1426 19.9539 22.066L22.0619 19.958C22.1385 19.8815 22.1993 19.7906 22.2408 19.6906C22.2822 19.5905 22.3036 19.4833 22.3036 19.375C22.3036 19.2667 22.2822 19.1595 22.2408 19.0594C22.1993 18.9594 22.1385 18.8685 22.0619 18.792L21.1459 17.876C21.7338 16.9322 22.1622 15.898 22.4139 14.815H23.7089C23.8171 14.815 23.9243 14.7937 24.0242 14.7523C24.1242 14.7109 24.215 14.6502 24.2915 14.5737C24.3681 14.4971 24.4288 14.4063 24.4702 14.3063C24.5116 14.2064 24.5329 14.0992 24.5329 13.991V11.01C24.5329 10.7915 24.4461 10.5819 24.2915 10.4273C24.137 10.2728 23.9274 10.186 23.7089 10.186L23.7129 10.182Z" fill="#3C8DEF" fill-opacity="0.3"/>
<path d="M12.5 18.519C15.8242 18.519 18.519 15.8242 18.519 12.5C18.519 9.1758 15.8242 6.481 12.5 6.481C9.17576 6.481 6.48096 9.1758 6.48096 12.5C6.48096 15.8242 9.17576 18.519 12.5 18.519Z" fill="#7FACFA"/>
<path d="M1.28689 14.815H2.58189C2.83361 15.898 3.26202 16.9322 3.84989 17.876L2.93389 18.792C2.85727 18.8685 2.79649 18.9594 2.75502 19.0594C2.71355 19.1595 2.6922 19.2667 2.6922 19.375C2.6922 19.4833 2.71355 19.5905 2.75502 19.6906C2.79649 19.7906 2.85727 19.8815 2.93389 19.958L5.04189 22.066C5.11842 22.1426 5.2093 22.2034 5.30933 22.2449C5.40937 22.2863 5.5166 22.3077 5.62489 22.3077C5.73318 22.3077 5.84041 22.2863 5.94045 22.2449C6.04048 22.2034 6.13136 22.1426 6.20789 22.066L6.31989 21.954L4.31989 19.954C4.24327 19.8775 4.18249 19.7866 4.14102 19.6866C4.09955 19.5865 4.0782 19.4793 4.0782 19.371C4.0782 19.2627 4.09955 19.1555 4.14102 19.0554C4.18249 18.9554 4.24327 18.8645 4.31989 18.788L5.23589 17.872C4.648 16.9282 4.2196 15.894 3.96789 14.811H2.67589C2.45735 14.811 2.24776 14.7242 2.09324 14.5697C1.93871 14.4151 1.85189 14.2055 1.85189 13.987V11.01C1.85189 10.7915 1.93871 10.5819 2.09324 10.4273C2.24776 10.2728 2.45735 10.186 2.67589 10.186H3.97089C4.22256 9.10295 4.65097 8.06876 5.23889 7.125L4.32289 6.209C4.24627 6.13247 4.18549 6.04159 4.14402 5.94156C4.10255 5.84152 4.0812 5.73429 4.0812 5.626C4.0812 5.51771 4.10255 5.41048 4.14402 5.31045C4.18549 5.21041 4.24627 5.11953 4.32289 5.043L5.51489 3.851C5.81486 3.55517 6.21399 3.38127 6.63489 3.363L6.20789 2.936C6.13136 2.85938 6.04048 2.7986 5.94045 2.75713C5.84041 2.71566 5.73318 2.69431 5.62489 2.69431C5.5166 2.69431 5.40937 2.71566 5.30933 2.75713C5.2093 2.7986 5.11842 2.85938 5.04189 2.936L2.93489 5.038C2.85827 5.11453 2.79749 5.20541 2.75602 5.30544C2.71455 5.40548 2.6932 5.51271 2.6932 5.621C2.6932 5.72929 2.71455 5.83652 2.75602 5.93656C2.79749 6.03659 2.85827 6.12747 2.93489 6.204L3.85089 7.12C3.26223 8.06494 2.83347 9.1005 2.58189 10.185H1.28689C1.06835 10.185 0.858765 10.2718 0.704235 10.4263C0.549705 10.5809 0.462891 10.7905 0.462891 11.009V13.99C0.462891 14.2085 0.549705 14.4181 0.704235 14.5727C0.858765 14.7272 1.06835 14.814 1.28689 14.814V14.815Z" fill="white"/>
<path d="M12.5 16.667C14.8014 16.667 16.667 14.8014 16.667 12.5C16.667 10.1986 14.8014 8.333 12.5 8.333C10.1986 8.333 8.33301 10.1986 8.33301 12.5C8.33301 14.8014 10.1986 16.667 12.5 16.667Z" fill="#A4C2F7"/>
<path d="M12.5001 18.982C11.2182 18.982 9.96519 18.6019 8.8994 17.8898C7.8336 17.1776 7.00291 16.1654 6.51238 14.9812C6.02185 13.7969 5.89351 12.4938 6.14358 11.2366C6.39365 9.97943 7.0109 8.82462 7.91729 7.91824C8.82367 7.01186 9.97847 6.3946 11.2357 6.14453C12.4929 5.89446 13.796 6.0228 14.9802 6.51333C16.1645 7.00387 17.1767 7.83455 17.8888 8.90035C18.6009 9.96614 18.981 11.2192 18.981 12.501C18.981 14.2199 18.2982 15.8683 17.0828 17.0838C15.8674 18.2992 14.2189 18.982 12.5001 18.982ZM12.5001 6.945C11.4012 6.945 10.327 7.27085 9.4133 7.88135C8.49962 8.49185 7.78749 9.35958 7.36697 10.3748C6.94645 11.39 6.83642 12.5072 7.0508 13.5849C7.26518 14.6627 7.79434 15.6527 8.57136 16.4297C9.34839 17.2067 10.3384 17.7359 11.4161 17.9502C12.4939 18.1646 13.611 18.0546 14.6262 17.6341C15.6415 17.2135 16.5092 16.5014 17.1197 15.5877C17.7302 14.6741 18.0561 13.5999 18.0561 12.501C18.0561 11.7714 17.9123 11.0489 17.6331 10.3748C17.3539 9.70072 16.9447 9.08824 16.4287 8.57232C15.9128 8.05639 15.3003 7.64714 14.6262 7.36792C13.9522 7.08871 13.2297 6.945 12.5001 6.945Z" fill="#428DFF"/>
<path d="M13.991 25H11.009C10.6678 24.9995 10.3408 24.8637 10.0995 24.6225C9.85829 24.3812 9.72253 24.0542 9.722 23.713V22.779C8.83967 22.5408 7.99194 22.1892 7.2 21.733L6.54 22.393C6.29477 22.6273 5.96866 22.7581 5.6295 22.7581C5.29034 22.7581 4.96423 22.6273 4.719 22.393L2.607 20.285C2.48736 20.1655 2.39244 20.0235 2.32768 19.8673C2.26292 19.7111 2.22959 19.5436 2.22959 19.3745C2.22959 19.2054 2.26292 19.0379 2.32768 18.8817C2.39244 18.7255 2.48736 18.5835 2.607 18.464L3.267 17.804C2.81051 17.0108 2.45891 16.1617 2.221 15.278H1.287C0.945829 15.2775 0.618783 15.1417 0.377538 14.9005C0.136293 14.6592 0.000528949 14.3322 0 13.991L0 11.009C0.000528949 10.6678 0.136293 10.3408 0.377538 10.0995C0.618783 9.85829 0.945829 9.72253 1.287 9.722H2.221C2.45901 8.83959 2.81062 7.99184 3.267 7.2L2.607 6.54C2.48736 6.42047 2.39244 6.27854 2.32768 6.12231C2.26292 5.96608 2.22959 5.79862 2.22959 5.6295C2.22959 5.46038 2.26292 5.29292 2.32768 5.13669C2.39244 4.98046 2.48736 4.83853 2.607 4.719L4.715 2.607C4.96023 2.3727 5.28634 2.24195 5.6255 2.24195C5.96466 2.24195 6.29077 2.3727 6.536 2.607L7.196 3.267C7.9892 2.81051 8.83829 2.45891 9.722 2.221V1.287C9.72253 0.945829 9.85829 0.618783 10.0995 0.377538C10.3408 0.136293 10.6678 0.000528949 11.009 0L13.99 0C14.3312 0.000528949 14.6582 0.136293 14.8995 0.377538C15.1407 0.618783 15.2765 0.945829 15.277 1.287V2.221C16.1597 2.45915 17.0077 2.81075 17.8 3.267L18.46 2.607C18.7053 2.37293 19.0314 2.24233 19.3705 2.24233C19.7096 2.24233 20.0357 2.37293 20.281 2.607L22.389 4.715C22.5086 4.83453 22.6036 4.97646 22.6683 5.13269C22.7331 5.28892 22.7664 5.45638 22.7664 5.6255C22.7664 5.79462 22.7331 5.96208 22.6683 6.11831C22.6036 6.27454 22.5086 6.41647 22.389 6.536L21.729 7.196C22.1857 7.98909 22.5373 8.83821 22.775 9.722H23.709C23.8783 9.72174 24.0459 9.75482 24.2024 9.81935C24.3589 9.88389 24.5012 9.97862 24.621 10.0981C24.7409 10.2176 24.8361 10.3596 24.9011 10.5159C24.9661 10.6722 24.9997 10.8397 25 11.009V13.99C24.9995 14.3312 24.8637 14.6582 24.6225 14.8995C24.3812 15.1407 24.0542 15.2765 23.713 15.277H22.779C22.5408 16.1597 22.1893 17.0077 21.733 17.8L22.393 18.46C22.5126 18.5795 22.6076 18.7215 22.6723 18.8777C22.7371 19.0339 22.7704 19.2014 22.7704 19.3705C22.7704 19.5396 22.7371 19.7071 22.6723 19.8633C22.6076 20.0195 22.5126 20.1615 22.393 20.281L20.285 22.389C20.0398 22.6233 19.7137 22.754 19.3745 22.754C19.0353 22.754 18.7092 22.6233 18.464 22.389L17.804 21.729C17.0108 22.1855 16.1617 22.5371 15.278 22.775V23.709C15.2783 23.8783 15.2452 24.0459 15.1806 24.2024C15.1161 24.3589 15.0214 24.5012 14.9019 24.621C14.7824 24.7409 14.6404 24.8361 14.4841 24.9011C14.3278 24.9661 14.1603 24.9997 13.991 25ZM7.124 20.687C7.21062 20.6869 7.29553 20.7111 7.369 20.757C8.26991 21.3181 9.25714 21.7269 10.291 21.967C10.3929 21.9905 10.4838 22.048 10.5489 22.1299C10.6139 22.2118 10.6492 22.3134 10.649 22.418V23.718C10.649 23.8137 10.687 23.9056 10.7547 23.9733C10.8224 24.041 10.9143 24.079 11.01 24.079H13.991C14.0867 24.079 14.1786 24.041 14.2463 23.9733C14.314 23.9056 14.352 23.8137 14.352 23.718V22.418C14.3518 22.3134 14.3871 22.2118 14.4521 22.1299C14.5172 22.048 14.6081 21.9905 14.71 21.967C15.7439 21.727 16.7311 21.3181 17.632 20.757C17.7208 20.7018 17.8256 20.6783 17.9295 20.6903C18.0334 20.7023 18.1301 20.749 18.204 20.823L19.12 21.739C19.1879 21.8066 19.2797 21.8446 19.3755 21.8446C19.4713 21.8446 19.5632 21.8066 19.631 21.739L21.739 19.631C21.8066 19.5632 21.8446 19.4713 21.8446 19.3755C21.8446 19.2797 21.8066 19.1879 21.739 19.12L20.823 18.204C20.7489 18.1302 20.702 18.0334 20.69 17.9295C20.678 17.8256 20.7016 17.7207 20.757 17.632C21.3181 16.7311 21.727 15.7439 21.967 14.71C21.9905 14.6081 22.048 14.5172 22.1299 14.4521C22.2118 14.3871 22.3134 14.3518 22.418 14.352H23.718C23.8137 14.352 23.9056 14.314 23.9733 14.2463C24.041 14.1786 24.079 14.0867 24.079 13.991V11.009C24.079 10.9133 24.041 10.8214 23.9733 10.7537C23.9056 10.686 23.8137 10.648 23.718 10.648H22.418C22.3134 10.6482 22.2118 10.6129 22.1299 10.5479C22.048 10.4828 21.9905 10.3919 21.967 10.29C21.7271 9.25609 21.3183 8.26883 20.757 7.368C20.7016 7.27926 20.678 7.17437 20.69 7.07046C20.702 6.96656 20.7489 6.86979 20.823 6.796L21.739 5.88C21.8066 5.81215 21.8446 5.72028 21.8446 5.6245C21.8446 5.52872 21.8066 5.43685 21.739 5.369L19.63 3.262C19.5621 3.1944 19.4703 3.15644 19.3745 3.15644C19.2787 3.15644 19.1868 3.1944 19.119 3.262L18.203 4.178C18.1293 4.25229 18.0325 4.29929 17.9286 4.31128C17.8246 4.32328 17.7197 4.29955 17.631 4.244C16.7301 3.68288 15.7429 3.27407 14.709 3.034C14.6071 3.01045 14.5162 2.95302 14.4511 2.87109C14.3861 2.78917 14.3508 2.6876 14.351 2.583V1.283C14.351 1.23559 14.3417 1.18865 14.3235 1.14485C14.3054 1.10105 14.2788 1.06126 14.2453 1.02773C14.2117 0.994212 14.1719 0.967621 14.1281 0.949479C14.0844 0.931338 14.0374 0.922 13.99 0.922H11.009C10.9133 0.922 10.8214 0.960034 10.7537 1.02773C10.686 1.09544 10.648 1.18726 10.648 1.283V2.583C10.6482 2.6876 10.6129 2.78917 10.5479 2.87109C10.4828 2.95302 10.3919 3.01045 10.29 3.034C9.25613 3.27404 8.2689 3.68285 7.368 4.244C7.27955 4.29823 7.17542 4.32111 7.07239 4.30896C6.96935 4.29681 6.8734 4.25032 6.8 4.177L5.884 3.262C5.81615 3.1944 5.72428 3.15644 5.6285 3.15644C5.53272 3.15644 5.44085 3.1944 5.373 3.262L3.262 5.37C3.1944 5.43785 3.15644 5.52972 3.15644 5.6255C3.15644 5.72128 3.1944 5.81315 3.262 5.881L4.178 6.797C4.25213 6.87079 4.29902 6.96756 4.31101 7.07146C4.323 7.17537 4.29937 7.28026 4.244 7.369C3.68269 8.26981 3.27386 9.25707 3.034 10.291C3.01045 10.3929 2.95302 10.4838 2.87109 10.5489C2.78917 10.6139 2.6876 10.6492 2.583 10.649H1.283C1.18726 10.649 1.09544 10.687 1.02773 10.7547C0.960034 10.8224 0.922 10.9143 0.922 11.01V13.991C0.922 14.0867 0.960034 14.1786 1.02773 14.2463C1.09544 14.314 1.18726 14.352 1.283 14.352H2.583C2.6876 14.3518 2.78917 14.3871 2.87109 14.4521C2.95302 14.5172 3.01045 14.6081 3.034 14.71C3.27404 15.7439 3.68285 16.7311 4.244 17.632C4.29937 17.7207 4.323 17.8256 4.31101 17.9295C4.29902 18.0334 4.25213 18.1302 4.178 18.204L3.263 19.12C3.1954 19.1879 3.15744 19.2797 3.15744 19.3755C3.15744 19.4713 3.1954 19.5632 3.263 19.631L5.37 21.738C5.43785 21.8056 5.52972 21.8436 5.6255 21.8436C5.72128 21.8436 5.81315 21.8056 5.881 21.738L6.797 20.822C6.83988 20.7789 6.89084 20.7448 6.94695 20.7214C7.00306 20.6981 7.06323 20.686 7.124 20.686V20.687Z" fill="#428DFF"/>
<path d="M12.5001 17.129C11.5844 17.129 10.6892 16.8575 9.92782 16.3487C9.16642 15.84 8.57299 15.1169 8.22256 14.2708C7.87212 13.4248 7.78043 12.4939 7.95908 11.5957C8.13773 10.6976 8.57869 9.87262 9.2262 9.22511C9.87372 8.57759 10.6987 8.13662 11.5968 7.95797C12.495 7.77932 13.4259 7.87101 14.2719 8.22145C15.118 8.57188 15.8411 9.16532 16.3498 9.92672C16.8586 10.6881 17.1301 11.5833 17.1301 12.499C17.1301 13.727 16.6423 14.9046 15.774 15.7729C14.9057 16.6412 13.7281 17.129 12.5001 17.129ZM12.5001 8.796C11.7683 8.796 11.053 9.013 10.4445 9.41957C9.83603 9.82613 9.36181 10.404 9.08176 11.0801C8.80172 11.7562 8.72844 12.5001 8.87121 13.2178C9.01397 13.9356 9.36636 14.5948 9.88381 15.1123C10.4013 15.6298 11.0606 15.9822 11.7783 16.1249C12.496 16.2677 13.24 16.1944 13.916 15.9144C14.5921 15.6343 15.17 15.1601 15.5765 14.5516C15.9831 13.9432 16.2001 13.2278 16.2001 12.496C16.2001 11.5147 15.8103 10.5736 15.1164 9.87971C14.4225 9.18583 13.4814 8.796 12.5001 8.796Z" fill="#428DFF"/>
</svg>
