<svg width="21" height="26" viewBox="0 0 21 26" fill="none" xmlns="http://www.w3.org/2000/svg">
<path d="M20.9938 7.46806V13.9681C21.0004 16.3688 20.2916 18.717 18.9578 20.7131C17.6214 22.7104 15.7311 24.2744 13.5188 25.2131L12.1818 25.7901L10.9968 25.2731C8.82169 24.3227 6.97072 22.759 5.67032 20.7732C4.36992 18.7875 3.67647 16.4657 3.6748 14.0921V7.46806L12.2128 2.78906L20.9938 7.46806Z" fill="#599BF0" fill-opacity="0.4"/>
<path d="M9.48905 26C9.3647 25.9947 9.24146 25.9742 9.12205 25.939L7.92806 25.419C5.57267 24.3868 3.56875 22.6912 2.16092 20.5391C0.753086 18.3871 0.00224585 15.8717 5.52618e-05 13.3V6.62404C-0.00180205 6.4581 0.0431919 6.295 0.129869 6.15349C0.216547 6.01198 0.341389 5.89779 0.490053 5.82404L9.09006 1.11004C9.22593 1.03474 9.37872 0.995239 9.53406 0.995239C9.6894 0.995239 9.84218 1.03474 9.97806 1.11004L18.7931 5.82404C18.9417 5.89779 19.0666 6.01198 19.1532 6.15349C19.2399 6.295 19.2849 6.4581 19.2831 6.62404V13.174C19.2929 15.7771 18.527 18.3241 17.0831 20.49C15.6321 22.6431 13.5918 24.3328 11.2061 25.357L9.85906 25.939C9.73868 25.9744 9.61442 25.9949 9.48905 26ZM1.83705 7.17504V13.3C1.84642 15.513 2.49588 17.676 3.70707 19.5281C4.91827 21.3802 6.63946 22.8423 8.66305 23.738L9.48905 24.105L10.4681 23.676C12.5313 22.7988 14.2962 21.3424 15.5491 19.483C16.8022 17.6316 17.4647 15.4437 17.4491 13.208V7.17504L9.51605 2.95104L1.83705 7.17504Z" fill="#4785EB"/>
<path d="M8.26539 16.9391C8.13172 16.9345 8.00045 16.9022 7.87994 16.8442C7.75943 16.7862 7.6523 16.7037 7.56538 16.6021L5.23939 13.8781C5.16099 13.7876 5.10117 13.6827 5.06333 13.5691C5.0255 13.4556 5.0104 13.3357 5.0189 13.2164C5.0274 13.097 5.05932 12.9805 5.11285 12.8734C5.16638 12.7664 5.24047 12.671 5.33088 12.5926C5.4213 12.5142 5.52628 12.4543 5.63981 12.4165C5.75335 12.3787 5.87321 12.3636 5.99258 12.3721C6.11195 12.3806 6.22849 12.4125 6.33552 12.466C6.44255 12.5195 6.53799 12.5936 6.61639 12.6841L8.36138 14.7351L13.0754 10.8781C13.2621 10.7238 13.5024 10.6501 13.7435 10.6731C13.9846 10.696 14.2067 10.8138 14.3609 11.0005C14.5151 11.1873 14.5888 11.4276 14.5659 11.6687C14.5429 11.9097 14.4251 12.1318 14.2384 12.2861L8.85139 16.7241C8.68993 16.8667 8.48077 16.9434 8.26539 16.9391Z" fill="#4785EB"/>
</svg>
