<svg width="31" height="36" viewBox="0 0 31 36" fill="none" xmlns="http://www.w3.org/2000/svg">
<path d="M8.644 16.132L1 30.532L7.941 29.891L11.3 35.999L18.944 21.599L8.644 16.132Z" fill="#F7AC1A"/>
<path d="M22.9421 16.132L30.5861 30.532L23.6451 29.891L20.2861 35.999L12.6421 21.599L22.9421 16.132Z" fill="#F7AC1A"/>
<path d="M15.793 26.544C22.8468 26.544 28.565 20.8258 28.565 13.772C28.565 6.71822 22.8468 1 15.793 1C8.73922 1 3.021 6.71822 3.021 13.772C3.021 20.8258 8.73922 26.544 15.793 26.544Z" fill="#E6E6E6"/>
<path d="M27.6108 30.239L23.4658 23.056C25.2068 21.185 26.3637 18.8465 26.7945 16.3274C27.2253 13.8082 26.9113 11.2181 25.891 8.87497C24.8706 6.53179 23.1884 4.53747 21.0508 3.13677C18.9131 1.73607 16.413 0.989929 13.8573 0.989929C11.3016 0.989929 8.80155 1.73607 6.66389 3.13677C4.52623 4.53747 2.84401 6.53179 1.82369 8.87497C0.803369 11.2181 0.489338 13.8082 0.920141 16.3274C1.35094 18.8465 2.50783 21.185 4.24883 23.056L0.100828 30.24C0.0286281 30.3648 -0.00490474 30.5083 0.00447207 30.6523C0.0138489 30.7962 0.0657108 30.9341 0.153501 31.0486C0.241291 31.163 0.361062 31.2489 0.497651 31.2952C0.634241 31.3416 0.781513 31.3464 0.920827 31.309L6.59183 29.79L8.11083 35.46C8.14816 35.5992 8.22594 35.7243 8.33434 35.8193C8.44274 35.9144 8.57689 35.9752 8.71983 35.994C8.75298 35.9983 8.78639 36.0003 8.81983 36C8.94795 36 9.07384 35.9663 9.18479 35.9023C9.29575 35.8382 9.38785 35.746 9.45183 35.635L13.8578 27.989L18.2658 35.635C18.3296 35.7457 18.4214 35.8377 18.532 35.9018C18.6426 35.9658 18.768 35.9997 18.8958 36C18.9293 36.0002 18.9627 35.9982 18.9958 35.994C19.1388 35.9752 19.2729 35.9144 19.3813 35.8193C19.4897 35.7243 19.5675 35.5992 19.6048 35.46L21.1238 29.79L26.7948 31.309C26.9341 31.3464 27.0814 31.3416 27.218 31.2952C27.3546 31.2489 27.4744 31.163 27.5622 31.0486C27.6499 30.9341 27.7018 30.7962 27.7112 30.6523C27.7206 30.5083 27.687 30.3648 27.6148 30.24L27.6108 30.239ZM9.06083 33.379L7.80883 28.707C7.75869 28.5203 7.63644 28.3611 7.46897 28.2646C7.30151 28.168 7.10254 28.1419 6.91583 28.192L2.24083 29.444L5.32882 24.1C7.38234 25.8645 9.93314 26.9477 12.6288 27.2L9.06083 33.379ZM2.18783 14.125C2.18783 11.8174 2.87211 9.56169 4.15414 7.64304C5.43617 5.72439 7.25837 4.229 9.39029 3.34598C11.5222 2.46296 13.8681 2.23197 16.1313 2.68223C18.3945 3.13248 20.4734 4.24376 22.105 5.87552C23.7366 7.50728 24.8477 9.58623 25.2978 11.8495C25.7478 14.1127 25.5166 16.4586 24.6334 18.5904C23.7502 20.7223 22.2547 22.5444 20.3359 23.8262C18.4172 25.1081 16.1614 25.7922 13.8538 25.792C10.7608 25.7883 7.79548 24.5578 5.60846 22.3706C3.42143 20.1834 2.19127 17.218 2.18783 14.125ZM20.7928 28.192C20.6061 28.1419 20.4071 28.168 20.2397 28.2646C20.0722 28.3611 19.95 28.5203 19.8998 28.707L18.6468 33.381L15.0738 27.192C17.7713 26.9407 20.324 25.8574 22.3788 24.092L25.4658 29.444L20.7928 28.192Z" fill="#3C8DEF"/>
<path d="M10.3892 11.5293V11.5439H11.9419V11.522C11.9419 10.4233 12.8135 9.58838 13.9707 9.58838C15.0693 9.58838 15.9189 10.3354 15.9189 11.2729C15.9189 12.1006 15.582 12.6572 14.293 13.9976L10.4771 17.8867V19H17.7061V17.6157H12.689V17.5791L15.333 14.9204C16.8784 13.3384 17.5376 12.4229 17.5376 11.1924C17.5376 9.51514 16.0361 8.2334 14.022 8.2334C11.9199 8.2334 10.3892 9.625 10.3892 11.5293Z" fill="#3C8DEF"/>
</svg>
