<svg width="137" height="151" viewBox="0 0 137 151" fill="none" xmlns="http://www.w3.org/2000/svg">
<path d="M76.8404 81.765C76.6694 79.715 76.4764 77.665 76.2404 75.628C76.1304 74.672 76.0194 73.719 75.8974 72.764C75.8444 72.394 75.7924 72.024 75.7364 71.654C75.2184 68.182 74.6104 64.72 73.8074 61.305C73.5774 60.322 73.3264 59.34 73.0634 58.36C73.0294 58.468 72.9894 58.572 72.9554 58.681C71.422 63.5635 70.134 68.5197 69.0964 73.531C66.6644 84.909 65.2074 96.458 62.9234 107.864C61.7684 113.642 60.5804 119.575 58.3944 125.07C56.4214 130.03 53.9704 134.888 48.4944 136.652C38.0514 140.017 33.1384 127.419 30.7664 119.911C27.9834 111.106 26.0854 102.029 23.8844 93.065C23.4657 91.3577 23.0371 89.652 22.5984 87.948C20.1434 99.793 18.8744 112.009 14.2824 123.21C14.2484 123.295 14.2104 123.383 14.1754 123.467L54.4634 146.812C58.6474 149.236 64.3444 150.275 69.8344 149.94C70.0034 149.607 70.1734 149.278 70.3344 148.94C70.4744 148.64 70.6094 148.347 70.7434 148.049C71.3334 146.565 71.8804 145.061 72.3574 143.535C73.4887 139.892 74.4043 136.186 75.0994 132.435C75.4784 130.418 75.8174 128.391 76.0994 126.359C76.0998 126.351 76.1015 126.343 76.1044 126.335C76.1594 125.892 76.2164 125.452 76.2674 125.01C76.3924 123.943 76.5124 122.874 76.6174 121.804C77.048 117.421 77.3354 113.025 77.4794 108.616C77.781 99.6608 77.5676 90.6957 76.8404 81.765Z" fill="#3C8DEF"/>
<path d="M94.9264 109.169C94.5414 119.523 93.7463 130.515 91.2993 140.963L122.983 122.524C130.333 118.263 136.209 107.824 136.209 99.333V96.814L84.2614 40.631C87.6614 45.094 89.3334 51.273 90.5744 56.663C94.5064 73.708 95.5754 91.729 94.9264 109.169Z" fill="#3C8DEF"/>
<path d="M122.983 27.483L81.1334 3.197C73.7814 -1.062 61.7894 -1.062 54.4384 3.197L12.9494 27.486C5.59836 31.746 0.0143646 42.186 0.0143646 50.675V99.336C-0.0835226 102.131 0.319499 104.92 1.20437 107.573C2.96037 100.325 3.95436 92.962 5.45336 85.654C6.58636 80.121 7.63935 74.407 9.83135 69.177C11.7024 64.705 14.2834 59.177 19.6394 58.129C25.3854 57.009 30.0114 59.821 32.8944 64.692L49.7014 82.559C51.0559 73.777 52.9478 65.0864 55.3664 56.536C57.2054 50.368 59.5244 41.915 64.8394 37.679C71.7474 32.17 79.0964 33.844 84.2614 40.634L136.214 96.814V50.672C136.214 42.179 130.333 31.743 122.983 27.483Z" fill="#599BF0"/>
<path d="M40.7274 88.426C42.2574 94.671 43.6424 100.975 45.2854 107.202C46.3614 102.326 47.2294 97.397 48.0454 92.481C48.5934 89.181 49.1304 85.865 49.6894 82.556L32.8694 64.689C37.0514 71.755 38.7954 80.542 40.7274 88.426Z" fill="#3C8DEF"/>
</svg>
