<svg width="151" height="190" viewBox="0 0 151 190" fill="none" xmlns="http://www.w3.org/2000/svg">
<mask id="mask0_10_6732" style="mask-type:alpha" x="0" y="0" width="151" height="190">
<path d="M131 0H20C8.9543 0 0 8.9543 0 20V170C0 181.046 8.9543 190 20 190H131C142.046 190 151 181.046 151 170V20C151 8.9543 142.046 0 131 0Z" fill="#F9CF72"/>
</mask>
<g mask="url(#mask0_10_6732)">
<path d="M132.429 63.2151C142.768 18.9922 115.3 -25.2391 71.0767 -35.5781C26.8537 -45.9171 -17.3775 -18.4487 -27.7166 25.7742C-38.0556 69.9972 -10.5872 114.228 33.6357 124.567C77.8587 134.906 122.09 107.438 132.429 63.2151Z" fill="#FFE5AC"/>
<path d="M87.292 96.849C90.5809 96.849 93.247 94.1828 93.247 90.894C93.247 87.6051 90.5809 84.939 87.292 84.939C84.0032 84.939 81.337 87.6051 81.337 90.894C81.337 94.1828 84.0032 96.849 87.292 96.849Z" fill="#BEE9E8"/>
<path d="M56.155 137.34H92.443V96.678H56.155L56.155 137.34Z" fill="#FF8A5B"/>
<path d="M56.155 101.376H92.443V96.678H56.155V101.376Z" fill="#DACC3E"/>
<path d="M61.8041 129.97L61.7371 129.18C65.0977 128.904 68.2633 127.488 70.7097 125.167C73.1562 122.847 74.7368 119.76 75.1901 116.419C73.9309 116.101 72.7672 115.484 71.7976 114.62C70.8281 113.756 70.0814 112.67 69.6211 111.456C69.4022 110.863 69.3042 110.232 69.3329 109.601C69.3615 108.97 69.5163 108.351 69.7881 107.78C69.9478 107.462 70.1744 107.182 70.4523 106.96C70.7302 106.738 71.0528 106.578 71.3981 106.492C73.2981 106.033 74.9071 107.917 75.5181 110.017C76.0577 111.889 76.2419 113.846 76.0611 115.786C76.4252 115.839 76.7931 115.862 77.1611 115.855C78.6325 115.797 80.051 115.29 81.2267 114.404C82.4024 113.517 83.2794 112.293 83.7401 110.894L84.4971 111.129C83.9843 112.685 83.0086 114.047 81.7004 115.033C80.3922 116.019 78.814 116.582 77.1771 116.647C76.7737 116.656 76.3702 116.632 75.9711 116.573C75.4847 120.084 73.8168 123.324 71.242 125.76C68.6673 128.196 65.3395 129.682 61.8071 129.973L61.8041 129.97ZM71.9741 107.211C71.6623 107.211 71.3571 107.3 71.0936 107.466C70.8301 107.633 70.6191 107.871 70.4851 108.152C70.0453 109.107 70.0025 110.198 70.3661 111.184C70.7747 112.26 71.4336 113.224 72.2885 113.995C73.1433 114.766 74.1695 115.323 75.2821 115.619C75.4404 113.807 75.2631 111.981 74.7591 110.233C74.3951 108.996 73.3521 107.211 71.9741 107.211Z" fill="white"/>
<path d="M111.84 138.838H132.661L128.452 112.038H114.052L113.791 115.19L112.991 124.89L111.84 138.838Z" fill="#B77548"/>
<path d="M112.994 124.888C115.747 124.901 118.459 124.221 120.88 122.91C123.301 121.599 125.353 119.7 126.847 117.388C122.647 116.73 118.47 115.915 114.265 115.258C114.11 115.233 113.953 115.209 113.794 115.191L112.994 124.888Z" fill="black"/>
<path d="M144.902 103.778C144.738 104.78 144.312 105.72 143.669 106.505C143.025 107.289 142.186 107.891 141.236 108.248C140.201 108.601 139.095 108.697 138.015 108.527C136.935 108.356 135.912 107.925 135.036 107.271C134.195 110.98 132.133 114.3 129.182 116.7C128.167 117.53 127.054 118.233 125.868 118.793C125.843 118.805 125.819 118.814 125.795 118.826C121.905 120.597 117.483 120.807 113.442 119.412C112.66 119.14 111.9 118.805 111.171 118.412C108.936 117.186 107.021 115.451 105.581 113.347C104.141 111.243 103.217 108.829 102.883 106.302C102.396 102.302 103.448 98.296 104.593 94.437C105.376 91.3825 106.579 88.4513 108.167 85.727C108.219 85.647 108.267 85.566 108.323 85.487C108.903 84.5972 109.575 83.7713 110.328 83.023C110.399 82.954 110.47 82.885 110.543 82.815C113.223 80.3578 116.724 78.9923 120.36 78.987C121.009 78.9804 121.657 79.0185 122.3 79.101C124.457 79.4072 126.533 80.1361 128.408 81.246C130.283 82.3559 131.92 83.825 133.226 85.569C135.827 89.1018 137.134 93.4219 136.926 97.804C137.861 97.3927 138.888 97.2335 139.904 97.3421C140.92 97.4507 141.89 97.8234 142.717 98.423C142.825 98.505 142.93 98.59 143.03 98.679C143.735 99.3111 144.274 100.107 144.601 100.995C144.927 101.884 145.031 102.84 144.902 103.778Z" fill="#B77548"/>
<path d="M137.985 104.914L137.253 104.657L137.835 100.151L138.621 100.251L138.2 103.509C138.764 103.075 139.443 102.816 140.152 102.766C140.862 102.715 141.571 102.875 142.19 103.226L141.801 103.916C141.16 103.555 140.403 103.457 139.691 103.643C138.978 103.83 138.367 104.286 137.985 104.916V104.914Z" fill="black"/>
<path d="M115.28 106.062C115.019 106.059 114.764 105.991 114.537 105.862C114.368 105.775 114.218 105.655 114.096 105.509C113.974 105.363 113.883 105.194 113.827 105.012C113.747 104.554 113.772 104.084 113.9 103.637L115.224 97.4449L116 97.611L114.675 103.803C114.577 104.135 114.55 104.483 114.598 104.826C114.674 104.986 114.804 105.115 114.965 105.19C115.126 105.265 115.308 105.281 115.48 105.235L115.731 105.986C115.586 106.036 115.433 106.061 115.28 106.062Z" fill="black"/>
<path d="M117.447 109.307C117.273 109.307 117.1 109.293 116.928 109.266L117.053 108.483C117.415 108.541 117.785 108.521 118.14 108.427C118.494 108.332 118.824 108.165 119.11 107.934C119.395 107.704 119.629 107.417 119.796 107.09C119.964 106.764 120.061 106.406 120.081 106.04L120.872 106.083C120.824 106.958 120.442 107.78 119.804 108.381C119.166 108.981 118.322 109.313 117.446 109.307H117.447Z" fill="black"/>
<path d="M121.808 99.854C122.175 99.854 122.473 99.4076 122.473 98.857C122.473 98.3064 122.175 97.86 121.808 97.86C121.441 97.86 121.143 98.3064 121.143 98.857C121.143 99.4076 121.441 99.854 121.808 99.854Z" fill="black"/>
<path d="M109.625 97.751C109.625 98.301 109.925 98.751 110.29 98.751C110.655 98.751 110.954 98.305 110.954 97.751C110.954 97.197 110.654 96.751 110.29 96.751C109.926 96.751 109.625 97.199 109.625 97.751Z" fill="black"/>
<path d="M123.212 95.903C123.545 95.991 123.892 96.0107 124.233 95.961C124.826 95.769 124.896 95.17 124.419 94.745C123.862 94.3444 123.212 94.094 122.53 94.018C122.05 93.8781 121.537 93.9013 121.071 94.084C120.888 94.1962 120.753 94.3729 120.693 94.5793C120.633 94.7857 120.652 95.007 120.747 95.2C121.159 96.091 122.427 95.797 123.212 95.903Z" fill="black"/>
<path d="M109.643 94.928C109.301 94.9657 108.954 94.934 108.624 94.835C108.066 94.556 108.087 93.954 108.624 93.604C109.235 93.2908 109.915 93.14 110.601 93.166C111.097 93.0991 111.601 93.1982 112.034 93.4479C112.198 93.5861 112.305 93.7806 112.334 93.9935C112.363 94.2063 112.311 94.4222 112.189 94.5989C111.646 95.4219 110.436 94.946 109.643 94.928Z" fill="black"/>
<path d="M35.006 86.172C32.406 87.149 35.036 96.135 37.066 101.988L35.006 86.172Z" fill="#B77548"/>
<path d="M37.0661 101.988C35.0411 97.788 31.2551 90.944 28.5431 92.14C24.4261 93.956 36.4921 120.703 36.4921 120.703L38.7281 125.655L61.1541 106.9C56.3881 100.464 60.0171 93.128 56.7691 92.616C53.5211 92.104 52.1751 100.016 52.1751 100.016C52.1751 100.016 45.9311 84.639 42.6031 85.94C40.9411 86.59 42.1921 92.62 43.0491 96.029C40.6151 91.559 36.8011 85.501 35.0051 86.176" fill="#B77548"/>
<path d="M43.1571 97.906C41.2431 90.286 41.009 86.135 42.457 85.568L42.746 86.306C42.005 86.595 42.058 90.288 43.923 97.713L43.1571 97.906Z" fill="black"/>
<path d="M36.691 102.118C33.228 92.136 32.614 86.647 34.866 85.801L35.144 86.544C34.518 86.779 32.833 88.579 37.444 101.859L36.691 102.118Z" fill="black"/>
<path d="M48.2061 112.469C47.7927 110.763 47.8271 108.979 48.3062 107.29C48.7852 105.601 49.6925 104.065 50.9401 102.83L51.4931 103.399C50.344 104.536 49.5082 105.951 49.0671 107.506C48.6259 109.062 48.5942 110.705 48.9751 112.276L48.2061 112.469Z" fill="black"/>
<path d="M46.4222 100.678L36.1791 106.786L36.5852 107.467L46.8283 101.359L46.4222 100.678Z" fill="black"/>
<path d="M174.641 190.585C174.641 190.585 159.941 134.885 152.452 131.424C144.963 127.963 130.923 127.774 130.923 127.774C130.923 127.774 115.792 141.867 112.993 128.574C112.993 128.574 101.55 129.115 96.939 131.227C92.239 133.382 81.572 134.108 81.572 134.108L61.153 106.895L38.738 125.662C38.738 125.662 56.987 178.101 92.522 169.073V190.586L174.641 190.585Z" fill="#6987F3"/>
<path d="M80.015 139.28L79.506 138.775L81.145 134.168L70.66 120.304L71.292 119.826L81.906 133.861L81.963 134.233L80.535 138.248L84.535 136.789L84.806 137.534L80.015 139.28Z" fill="black"/>
<path d="M98.749 190.783L98.167 190.245C98.558 189.821 107.845 179.893 114.649 181.805C117.332 182.559 119.231 185.042 120.303 189.194C121.519 186.079 123.086 183.113 124.975 180.353C129.563 173.776 135.175 170.548 141.205 171.017L141.143 171.807C127.23 170.726 120.657 190.507 120.591 190.707L119.825 190.663C118.892 186.033 117.079 183.309 114.435 182.563C108.094 180.787 98.842 190.683 98.749 190.783Z" fill="white"/>
<path d="M81.3751 184.687C80.4183 186.792 79.2094 188.773 77.7751 190.587H46.6481C44.7291 188.151 42.7961 185.622 41.9781 182.634C41.1391 179.563 41.7781 175.855 44.3421 173.969C45.2139 173.328 46.2438 172.938 47.3211 172.838C48.3984 172.739 49.4823 172.936 50.4563 173.407C51.4303 173.878 52.2575 174.605 52.849 175.511C53.4404 176.417 53.7737 177.467 53.8131 178.548C54.1099 173.6 56.1199 168.909 59.4981 165.281C62.9591 161.799 68.1981 159.931 72.9541 161.153C75.2373 161.828 77.3145 163.065 78.9955 164.751C80.6764 166.438 81.9072 168.519 82.5751 170.804C83.8523 175.426 83.4264 180.353 81.3751 184.687Z" fill="#BEE9E8"/>
<path d="M66.2581 190.585C66.2581 190.585 84.3181 167.727 88.7361 190.585H66.2581Z" fill="#DACC3E"/>
<path d="M136.93 97.805C133.88 96.08 131.13 91.397 130.614 87.052C125.709 87.664 120.755 87.793 115.824 87.437C113.044 87.173 108.333 86.4769 109.101 82.8269C109.576 80.5709 112.801 79.808 114.068 79.466C116.133 78.9981 118.256 78.837 120.368 78.988C121.035 79.014 121.688 79.056 122.308 79.102C124.465 79.4082 126.541 80.1371 128.416 81.247C130.291 82.3569 131.928 83.826 133.234 85.57C135.834 89.1032 137.139 93.4233 136.93 97.805Z" fill="black"/>
<path d="M97.5331 104.521L82.1661 99.143L82.0291 98.477L95.8591 85.799L96.5231 86.058L98.0591 104.113L97.5331 104.521ZM83.0531 98.613L97.2171 103.571L95.8051 86.928L83.0531 98.613Z" fill="black"/>
<path d="M51.376 163.13C49.9109 163.13 48.4786 162.696 47.2604 161.882C46.0421 161.068 45.0926 159.911 44.5319 158.557C43.9712 157.203 43.8245 155.714 44.1104 154.277C44.3962 152.84 45.1017 151.52 46.1378 150.484C47.1738 149.448 48.4938 148.742 49.9308 148.456C51.3678 148.171 52.8573 148.317 54.2109 148.878C55.5646 149.439 56.7215 150.388 57.5355 151.606C58.3495 152.825 58.784 154.257 58.784 155.722C58.7816 157.686 58.0004 159.569 56.6116 160.958C55.2229 162.346 53.34 163.128 51.376 163.13ZM51.376 149.108C50.0679 149.108 48.7891 149.496 47.7015 150.223C46.6138 150.949 45.7661 151.982 45.2655 153.191C44.7649 154.4 44.6339 155.729 44.8891 157.012C45.1443 158.295 45.7742 159.474 46.6992 160.399C47.6242 161.324 48.8027 161.954 50.0857 162.209C51.3687 162.464 52.6985 162.333 53.9071 161.833C55.1156 161.332 56.1486 160.484 56.8754 159.397C57.6021 158.309 57.99 157.03 57.99 155.722C57.9879 153.969 57.2904 152.287 56.0505 151.048C54.8106 149.808 53.1295 149.11 51.376 149.108Z" fill="black"/>
<path d="M84.2975 159.731L67.2925 189.05L84.1135 200.396L105.139 173.788L84.2975 159.731Z" fill="#282D4F"/>
<path d="M93.6776 168.303L85.0555 162.488L82.4405 167.016L90.7648 172.631L99.0891 178.245L102.308 174.124L93.6776 168.303Z" fill="#D8E8EF"/>
<path d="M82.2532 167.058L85.0085 162.288L102.5 174.086L99.1093 178.428L82.2532 167.058ZM85.1003 162.687L82.6247 166.973L99.0505 178.052L102.097 174.151L85.1003 162.687Z" fill="#91AFC1"/>
<path opacity="0.56" d="M94.4469 169.168L92.2192 167.666L84.3904 166.104L92.873 171.595L99.9076 176.34L101.732 174.083L94.4469 169.168Z" fill="white"/>
<path d="M80.9885 177.894L77.6013 175.609L80.3389 171.051L83.7261 173.336L80.9885 177.894Z" fill="#FF9933"/>
<path d="M77.3017 184.23L73.9145 181.945L76.6521 177.387L80.0393 179.671L77.3017 184.23Z" fill="#FF9933"/>
<path d="M73.616 190.566L70.2289 188.282L72.9664 183.723L76.3536 186.008L73.616 190.566Z" fill="#FF9933"/>
<path d="M89.4719 183.615L92.8591 185.9L96.0598 181.654L92.6726 179.369L89.4719 183.615Z" fill="#FF9933"/>
<path d="M84.9776 189.407L88.3647 191.692L91.5654 187.446L88.1782 185.161L84.9776 189.407Z" fill="#FF9933"/>
<path d="M90.0953 177.631L86.3696 175.118L83.4003 179.52L87.126 182.033L90.0953 177.631Z" fill="#FF9933"/>
<path d="M86.0055 183.696L82.2798 181.183L79.3105 185.585L83.0362 188.098L86.0055 183.696Z" fill="#FF9933"/>
<path d="M81.9145 189.761L78.1888 187.248L75.2195 191.65L78.9452 194.163L81.9145 189.761Z" fill="#FF9933"/>
<path d="M80.963 177.48L77.9932 175.477L83.3638 173.484L80.963 177.48Z" fill="#FFEB31"/>
<path d="M77.2774 183.832L74.2935 181.819L79.6896 179.817L77.2774 183.832Z" fill="#FFEB31"/>
<path d="M73.5885 190.142L70.6326 188.147L75.9784 186.164L73.5885 190.142Z" fill="#FFEB31"/>
<path d="M89.8756 183.496L92.8478 185.501L95.6555 181.775L89.8756 183.496Z" fill="#FFEB31"/>
<path d="M85.3909 189.285L88.3536 191.283L91.1533 187.569L85.3909 189.285Z" fill="#FFEB31"/>
<path d="M87.086 181.664L83.7574 179.419L89.7391 177.731L87.086 181.664Z" fill="#FFEB31"/>
<path d="M82.9836 187.666L79.7242 185.467L85.5824 183.819L82.9836 187.666Z" fill="#FFEB31"/>
<path d="M78.9002 193.759L75.6091 191.539L81.5233 189.87L78.9002 193.759Z" fill="#FFEB31"/>
<path d="M97.0966 178.478L91.0156 174.377L90.1819 175.613L96.2629 179.715L97.0966 178.478Z" fill="#FF2222"/>
<path d="M105.381 187.874L103.808 183.05L114.239 178.642L116.445 185.234L105.381 187.874Z" fill="white"/>
<path d="M105.377 187.878L103.803 183.054L110.8 179.794L113.005 186.387L105.377 187.878Z" fill="#FF2222"/>
<path d="M103.803 183.05L105.43 184.118L106.173 186.419L105.377 187.878L103.803 183.05Z" fill="#282D4F"/>
<path d="M114.234 178.643L113.552 180.04L114.848 184.513L116.439 185.232L114.234 178.643Z" fill="#EAEAEA"/>
<path d="M75.5275 65.9764L88.167 78.616L88.4399 78.343L75.8004 65.7035L75.5275 65.9764Z" fill="#91AFC1"/>
<path d="M74.6414 65.4075L76.0959 66.862L76.6864 66.2715L75.2319 64.817L74.6414 65.4075Z" fill="#282D4F"/>
<path d="M87.2814 78.0465L88.736 79.501L89.3264 78.9105L87.8719 77.456L87.2814 78.0465Z" fill="#282D4F"/>
<path d="M77.8582 75.5072L78.636 76.285L86.1101 68.8109L85.3323 68.033L77.8582 75.5072Z" fill="#282D4F"/>
<path d="M89.998 51.996L88.631 54.275L88.252 54L89.998 51.996Z" fill="#282D4F"/>
<path d="M88.5009 53.457L75.8879 73.963L77.1489 73.419L78.1789 74.263L89.0239 53.84L88.5009 53.457Z" fill="#B9CEDB"/>
<path d="M75.8879 73.965L73.7009 77.523L75.437 78.785L76.6629 77.12L78.179 74.264L77.149 73.42L75.8879 73.965Z" fill="#91AFC1"/>
<path d="M85.797 56.5103L86.4789 57.006L86.6853 56.7221L86.0034 56.2264L85.797 56.5103Z" fill="#FFCE33"/>
<path d="M85.2223 56.9028L85.601 57.178L86.5782 55.8334L86.1996 55.5582L85.2223 56.9028Z" fill="#282D4F"/>
<path d="M86.4919 57.4263L77.1509 75.026L77.3549 75.1343L86.6959 57.5345L86.4919 57.4263Z" fill="#91AFC1"/>
<path d="M102.143 64.146L99.8639 65.513L100.139 65.892L102.143 64.146Z" fill="#282D4F"/>
<path d="M100.302 65.119L79.9229 75.941L80.8228 76.907L80.2458 78.212L100.682 65.647L100.302 65.119Z" fill="#B9CEDB"/>
<path d="M79.9239 75.94L77.0239 77.48L75.3589 78.706L76.6209 80.442L80.2499 78.211L80.8269 76.906L79.9239 75.94Z" fill="#91AFC1"/>
<path d="M97.9166 68.1398L97.4209 67.458L97.137 67.6644L97.6327 68.3462L97.9166 68.1398Z" fill="#FFCE33"/>
<path d="M98.584 67.9435L98.3088 67.565L96.9646 68.5423L97.2398 68.9208L98.584 67.9435Z" fill="#282D4F"/>
<path d="M96.6067 67.4322L79.0129 76.797L79.122 77.0018L96.7158 67.6371L96.6067 67.4322Z" fill="#91AFC1"/>
<path d="M71.8183 81.7554L72.3889 82.326L72.9595 81.7553L72.3889 81.1847L71.8183 81.7554Z" fill="#FFCE33"/>
<path d="M76.1319 75.387L78.7559 78.011L74.2779 83.318L70.8259 79.866L76.1319 75.387Z" fill="#282D4F"/>
<path d="M70.0007 83.2078L70.9369 84.144L72.7513 82.3295L71.8151 81.3933L70.0007 83.2078Z" fill="#282D4F"/>
<path d="M73.929 78.639C74.0848 78.4831 74.2832 78.377 74.4994 78.3339C74.7155 78.2909 74.9395 78.3129 75.1431 78.3972C75.3467 78.4815 75.5207 78.6243 75.6431 78.8075C75.7656 78.9907 75.8309 79.2061 75.8309 79.4265C75.8309 79.6468 75.7656 79.8622 75.6431 80.0454C75.5207 80.2286 75.3467 80.3714 75.1431 80.4557C74.9395 80.54 74.7155 80.562 74.4994 80.519C74.2832 80.476 74.0848 80.3698 73.929 80.214C73.7202 80.0051 73.6029 79.7218 73.6029 79.4265C73.6029 79.1311 73.7202 78.8479 73.929 78.639Z" fill="#FFCE33"/>
</g>
</svg>
