<svg width="27" height="25" viewBox="0 0 27 25" fill="none" xmlns="http://www.w3.org/2000/svg">
<path d="M25.268 1.8H22.06C22.0713 1.44467 22.0773 1.08733 22.078 0.728001C22.0769 0.534383 21.9992 0.349071 21.8618 0.212629C21.7244 0.0761883 21.5386 -0.0002667 21.345 6.99059e-07H5.65498C5.46085 6.99059e-07 5.27466 0.0771219 5.13738 0.214399C5.0001 0.351675 4.92298 0.537862 4.92298 0.732001C4.92298 1.09133 4.92898 1.44867 4.94098 1.804H1.73198C1.63577 1.804 1.5405 1.82297 1.45163 1.85982C1.36275 1.89667 1.28201 1.95067 1.21403 2.01875C1.14604 2.08683 1.09214 2.16764 1.05542 2.25657C1.01869 2.3455 0.999853 2.44079 0.999984 2.537C0.942243 5.61606 1.78132 8.64543 3.41498 11.256C4.01764 12.2969 4.85748 13.1808 5.86618 13.8359C6.87489 14.491 8.02397 14.8988 9.21998 15.026C9.68468 15.541 10.2184 15.9893 10.806 16.358V19.613H9.57798C8.86398 19.6146 8.17967 19.8989 7.67479 20.4038C7.16991 20.9087 6.88557 21.593 6.88398 22.307V23.536H6.83198C6.63771 23.536 6.4514 23.6132 6.31403 23.7505C6.17666 23.8879 6.09948 24.0742 6.09948 24.2685C6.09948 24.4628 6.17666 24.6491 6.31403 24.7865C6.4514 24.9238 6.63771 25.001 6.83198 25.001H20.168C20.3623 25.001 20.5486 24.9238 20.6859 24.7865C20.8233 24.6491 20.9005 24.4628 20.9005 24.2685C20.9005 24.0742 20.8233 23.8879 20.6859 23.7505C20.5486 23.6132 20.3623 23.536 20.168 23.536H20.116V22.306C20.1144 21.592 19.8301 20.9077 19.3252 20.4028C18.8203 19.8979 18.136 19.6136 17.422 19.612H16.194V16.357C16.7816 15.9883 17.3153 15.5401 17.78 15.025C18.976 14.8978 20.1251 14.49 21.1338 13.8349C22.1425 13.1798 22.9823 12.2959 23.585 11.255C25.2185 8.64474 26.0576 5.61572 26 2.537C26.0006 2.44045 25.9822 2.34473 25.9457 2.25534C25.9092 2.16595 25.8554 2.08467 25.7874 2.01616C25.7193 1.94766 25.6384 1.89329 25.5493 1.8562C25.4601 1.8191 25.3645 1.8 25.268 1.8ZM4.63498 10.444C3.28353 8.29008 2.53897 5.81111 2.47998 3.269H5.02198C5.21448 6.3481 5.98739 9.36305 7.29998 12.155C7.49532 12.5457 7.69932 12.9147 7.91198 13.262C6.55203 12.6882 5.40602 11.7027 4.63498 10.444ZM18.652 22.306V23.535H8.34898V22.306C8.34925 21.9801 8.47882 21.6677 8.70924 21.4373C8.93967 21.2068 9.25211 21.0773 9.57798 21.077H17.423C17.7489 21.0773 18.0613 21.2068 18.2917 21.4373C18.5222 21.6677 18.6517 21.9801 18.652 22.306ZM14.73 19.612H12.271V16.994C13.0762 17.2089 13.9237 17.2089 14.729 16.994L14.73 19.612ZM15.184 15.251C15.1512 15.2646 15.1194 15.2807 15.089 15.299C14.5993 15.5555 14.0548 15.6895 13.502 15.6895C12.9492 15.6895 12.4047 15.5555 11.915 15.299C11.8829 15.2801 11.8495 15.2638 11.815 15.25C11.1845 14.9 10.6236 14.4373 10.16 13.885C10.1326 13.8457 10.1014 13.8092 10.067 13.776C9.49322 13.0771 9.00354 12.3132 8.60798 11.5C7.16153 8.35182 6.40853 4.92956 6.39998 1.465H20.6C20.5913 4.92954 19.8383 8.35177 18.392 11.5C17.9962 12.3139 17.5062 13.0785 16.932 13.778C16.8971 13.8111 16.8656 13.8476 16.838 13.887C16.3743 14.439 15.8133 14.9013 15.183 15.251H15.184ZM22.367 10.444C21.5965 11.7024 20.4512 12.6878 19.092 13.262C19.304 12.9147 19.508 12.5457 19.704 12.155C21.0153 9.36312 21.7872 6.34855 21.979 3.27H24.52C24.4611 5.81167 23.7169 8.29027 22.366 10.444H22.367Z" fill="#666666"/>
</svg>
