<svg width="3" height="27" viewBox="0 0 3 27" fill="none" xmlns="http://www.w3.org/2000/svg">
<path d="M1.5 3C2.32843 3 3 2.32843 3 1.5C3 0.671573 2.32843 0 1.5 0C0.671573 0 0 0.671573 0 1.5C0 2.32843 0.671573 3 1.5 3Z" fill="#3C8DEF"/>
<path d="M1.5 11C2.32843 11 3 10.3284 3 9.5C3 8.67157 2.32843 8 1.5 8C0.671573 8 0 8.67157 0 9.5C0 10.3284 0.671573 11 1.5 11Z" fill="#3C8DEF"/>
<path d="M1.5 19C2.32843 19 3 18.3284 3 17.5C3 16.6716 2.32843 16 1.5 16C0.671573 16 0 16.6716 0 17.5C0 18.3284 0.671573 19 1.5 19Z" fill="#3C8DEF"/>
<path d="M1.5 27C2.32843 27 3 26.3284 3 25.5C3 24.6716 2.32843 24 1.5 24C0.671573 24 0 24.6716 0 25.5C0 26.3284 0.671573 27 1.5 27Z" fill="#3C8DEF"/>
</svg>
