<svg width="40" height="40" viewBox="0 0 40 40" fill="none" xmlns="http://www.w3.org/2000/svg">
<path d="M20 40C31.0457 40 40 31.0457 40 20C40 8.9543 31.0457 0 20 0C8.9543 0 0 8.9543 0 20C0 31.0457 8.9543 40 20 40Z" fill="white"/>
<path d="M20 39.5C30.7696 39.5 39.5 30.7696 39.5 20C39.5 9.23045 30.7696 0.5 20 0.5C9.23045 0.5 0.5 9.23045 0.5 20C0.5 30.7696 9.23045 39.5 20 39.5Z" stroke="#707070" stroke-opacity="0.3"/>
<path d="M32.615 12.3679C31.6891 12.7729 30.7097 13.0423 29.707 13.1679C30.7634 12.5413 31.5533 11.549 31.927 10.3789C30.9378 10.9658 29.8555 11.379 28.727 11.6009C28.0352 10.8631 27.1376 10.3502 26.1506 10.1287C25.1637 9.90732 24.133 9.9876 23.1923 10.3592C22.2515 10.7307 21.4442 11.3765 20.875 12.2125C20.3057 13.0486 20.0009 14.0365 20 15.0479C19.9961 15.4347 20.0353 15.8208 20.117 16.1989C18.1097 16.1003 16.1459 15.5792 14.3538 14.6697C12.5617 13.7602 10.9817 12.4828 9.717 10.9209C9.06752 12.0312 8.86637 13.3475 9.15462 14.6011C9.44288 15.8546 10.1988 16.9509 11.268 17.6659C10.4691 17.6444 9.68714 17.4311 8.988 17.0439V17.0999C8.98958 18.2651 9.39244 19.3941 10.1288 20.2971C10.8651 21.2001 11.89 21.8219 13.031 22.0579C12.5993 22.1716 12.1544 22.2275 11.708 22.2239C11.3875 22.2296 11.0673 22.2008 10.753 22.1379C11.0791 23.1394 11.7076 24.0151 12.552 24.6446C13.3964 25.274 14.4151 25.6263 15.468 25.6529C13.6802 27.0486 11.4761 27.8045 9.208 27.7999C8.80436 27.8041 8.40087 27.7824 8 27.7349C10.3076 29.2221 12.9967 30.0088 15.742 29.9999C17.6312 30.0124 19.504 29.6495 21.2518 28.9322C22.9995 28.215 24.5874 27.1577 25.9232 25.8217C27.259 24.4857 28.3161 22.8977 29.0331 21.1499C29.7501 19.402 30.1128 17.5291 30.1 15.6399C30.1 15.4169 30.092 15.2019 30.082 14.9879C31.0787 14.276 31.9371 13.3881 32.615 12.3679Z" fill="#03A9F4"/>
</svg>
