<svg width="20" height="20" viewBox="0 0 20 20" fill="none" xmlns="http://www.w3.org/2000/svg">
<path d="M10 20C15.5228 20 20 15.5228 20 10C20 4.47715 15.5228 0 10 0C4.47715 0 0 4.47715 0 10C0 15.5228 4.47715 20 10 20Z" fill="white"/>
<path d="M10 19.5C15.2467 19.5 19.5 15.2467 19.5 10C19.5 4.75329 15.2467 0.5 10 0.5C4.75329 0.5 0.5 4.75329 0.5 10C0.5 15.2467 4.75329 19.5 10 19.5Z" stroke="#3C8DEF"/>
<path d="M13.268 5.64301L12.541 6.42801C13.4366 7.01356 14.1141 7.87809 14.4686 8.88767C14.823 9.89725 14.8347 10.9955 14.5018 12.0124C14.1688 13.0293 13.5099 13.9081 12.627 14.5125C11.7441 15.117 10.6865 15.4135 9.61804 15.356L9.81004 15.156H9.79904L10.526 14.393L9.85404 13.752L8.41204 15.266L7.79004 15.919L8.46104 16.559L9.97404 18.001L10.597 17.348L9.61704 16.414C10.8987 16.4717 12.1644 16.1115 13.2236 15.3877C14.2828 14.6638 15.0782 13.6155 15.49 12.4005C15.9019 11.1854 15.9079 9.86952 15.5071 8.65079C15.1064 7.43206 14.3206 6.3765 13.268 5.64301Z" fill="#3C8DEF"/>
<path d="M5.1171 9.746C5.30476 8.55568 5.92751 7.47736 6.86471 6.7199C7.80192 5.96245 8.98689 5.57978 10.1901 5.646L9.99809 5.846H10.0091L9.28209 6.609L9.95409 7.25L11.3961 5.735L12.0181 5.082L11.3471 4.442L9.83309 3L9.2101 3.653L10.1901 4.587C8.90793 4.52823 7.6414 4.88775 6.58133 5.61139C5.52126 6.33504 4.72509 7.3836 4.31279 8.59908C3.90048 9.81457 3.89437 11.1311 4.29538 12.3504C4.69639 13.5696 5.48279 14.6256 6.53609 15.359L7.2631 14.574C6.47905 14.0608 5.8596 13.3324 5.47898 12.4761C5.09836 11.6198 4.97272 10.6719 5.1171 9.746Z" fill="#3C8DEF"/>
</svg>
