<svg width="22" height="25" viewBox="0 0 22 25" fill="none" xmlns="http://www.w3.org/2000/svg">
<path d="M10.987 0C9.68325 0 8.40875 0.386614 7.3247 1.11095C6.24065 1.83529 5.39574 2.86482 4.89681 4.06935C4.39788 5.27388 4.26733 6.59931 4.52169 7.87804C4.77604 9.15676 5.40387 10.3313 6.32578 11.2532C7.24769 12.1752 8.42226 12.803 9.70098 13.0573C10.9797 13.3117 12.3051 13.1811 13.5097 12.6822C14.7142 12.1833 15.7437 11.3384 16.4681 10.2543C17.1924 9.17027 17.579 7.89577 17.579 6.592C17.5769 4.84434 16.8817 3.16887 15.6459 1.93309C14.4102 0.697309 12.7347 0.00211709 10.987 0V0ZM10.987 11.719C9.973 11.719 8.98174 11.4183 8.13861 10.8549C7.29548 10.2916 6.63834 9.49086 6.25029 8.55402C5.86224 7.61718 5.76071 6.58631 5.95854 5.59177C6.15636 4.59723 6.64467 3.68369 7.36169 2.96666C8.07871 2.24964 8.99226 1.76134 9.9868 1.56351C10.9813 1.36569 12.0122 1.46722 12.949 1.85527C13.8859 2.24332 14.6866 2.90046 15.25 3.74359C15.8133 4.58672 16.114 5.57798 16.114 6.592C16.1124 7.95128 15.5718 9.25443 14.6106 10.2156C13.6494 11.1767 12.3463 11.7174 10.987 11.719Z" fill="#666666"/>
<path d="M19.188 17.49C18.3118 16.5903 17.2643 15.8752 16.1072 15.3871C14.9501 14.899 13.7069 14.6477 12.451 14.648H9.52101C8.26515 14.6477 7.02196 14.899 5.86485 15.3871C4.70774 15.8752 3.66017 16.5903 2.78401 17.49C0.997239 19.2926 -0.00362849 21.7289 9.88512e-06 24.267C9.88512e-06 24.4611 0.0771307 24.6473 0.214407 24.7846C0.351684 24.9219 0.537872 24.999 0.73201 24.999H21.24C21.4341 24.999 21.6203 24.9219 21.7576 24.7846C21.8949 24.6473 21.972 24.4611 21.972 24.267C21.9756 21.7289 20.9748 19.2926 19.188 17.49ZM1.50001 23.535C1.67061 21.5199 2.58829 19.6414 4.07288 18.2681C5.55747 16.8949 7.50175 16.1262 9.52401 16.113H12.454C14.4763 16.1262 16.4205 16.8949 17.9051 18.2681C19.3897 19.6414 20.3074 21.5199 20.478 23.535H1.50001Z" fill="#666666"/>
</svg>
