<svg width="266" height="209" viewBox="0 0 266 209" fill="none" xmlns="http://www.w3.org/2000/svg">
<path d="M239.82 78.106C240.461 83.8232 239.881 89.6113 238.12 95.088C237.502 96.9802 236.574 98.7564 235.373 100.344L231.073 97.152L233.873 102.088C231.579 104.524 228.497 106.07 225.173 106.454C224.081 103.641 223.599 100.629 223.759 97.6157C223.92 94.6027 224.719 91.6582 226.104 88.9776C227.489 86.297 229.428 83.9413 231.793 82.067C234.157 80.1927 236.893 78.8426 239.819 78.106H239.82Z" fill="#FED766"/>
<path d="M189.988 70.976L195.588 71.753L190.411 73.232C190.53 73.748 190.66 74.252 190.805 74.741C191.862 78.6609 193.931 82.234 196.805 85.102C198.38 86.5539 200.229 87.6761 202.244 88.4025C204.258 89.129 206.398 89.445 208.537 89.332C209.417 83.1442 207.887 76.8548 204.261 71.7639C200.635 66.673 195.192 63.1699 189.056 61.979C189.326 64.775 189.51 67.982 189.988 70.976Z" fill="#9B7EDE"/>
<path d="M216.648 146.765C214.206 133.952 208.795 121.89 200.848 111.546L201.823 110.787C209.118 120.249 214.306 131.162 217.037 142.793C219.071 118.002 212.301 93.2872 197.918 72.993L198.918 72.273C214.24 93.884 220.993 120.414 217.867 146.721L216.648 146.765Z" fill="black"/>
<path d="M221.189 150.852L219.953 150.83C220.289 131.29 221.472 108.842 231.295 89.755L232.395 90.321C223.668 107.277 221.602 126.777 221.189 150.852Z" fill="black"/>
<path d="M218.3 207.966C237.742 207.966 253.502 194.209 253.502 177.239C253.502 160.269 237.742 146.512 218.3 146.512C198.858 146.512 183.098 160.269 183.098 177.239C183.098 194.209 198.858 207.966 218.3 207.966Z" fill="#66D7D1"/>
<path d="M210.842 153.373H225.758V139.949H210.842V153.373Z" fill="#66D7D1"/>
<path d="M98.781 110.524L134.854 109.463L126.197 63.243L101.253 63.9771L100.961 69.451L100.07 86.296L98.781 110.524Z" fill="#B77548"/>
<path d="M100.069 86.297C104.839 86.179 109.503 84.8622 113.631 82.468C117.759 80.0738 121.218 76.6792 123.689 72.597C116.371 71.672 109.1 70.471 101.782 69.546C101.513 69.51 101.238 69.477 100.961 69.455L100.069 86.297Z" fill="black"/>
<path d="M81.612 54.612C82.3193 58.974 84.0434 63.1082 86.645 66.6802C89.2465 70.2522 92.6524 73.1616 96.587 75.173C100.557 77.1161 104.921 78.1182 109.34 78.1018C113.76 78.0853 118.116 77.0506 122.071 75.078C125.993 73.0434 129.406 70.1497 132.054 66.6127C134.702 63.0757 136.518 58.9865 137.366 54.65C139.213 58.071 142.966 59.17 146.776 58.397C148.672 57.9496 150.426 57.0325 151.875 55.7302C153.324 54.4278 154.422 52.782 155.069 50.944C156.112 48.1421 156.066 45.0507 154.94 42.281C154.364 40.9131 153.493 39.6897 152.387 38.6989C151.282 37.7081 149.971 36.9746 148.549 36.551C145.824 35.794 142.575 36.074 140.438 37.894L140.147 38.161C140.175 36.1605 140.026 34.1614 139.702 32.187C138.835 26.6929 136.57 21.5139 133.125 17.147C130.773 14.1929 127.862 11.7316 124.558 9.90409C121.254 8.07661 117.621 6.91882 113.869 6.49702C112.984 6.40876 112.095 6.36903 111.205 6.37801C110.972 6.37801 110.738 6.38602 110.505 6.39602C109.102 6.44667 107.705 6.61188 106.329 6.89002C106.175 6.92002 106.019 6.95301 105.862 6.99001C101.093 8.0059 96.7316 10.4122 93.329 13.905C91.5054 15.8458 89.9686 18.0373 88.765 20.413C88.207 21.489 87.699 22.6 87.237 23.733C87.128 23.994 87.023 24.255 86.927 24.518C86.476 25.657 86.071 26.818 85.695 27.984C85.056 29.967 84.503 31.984 83.975 33.968C82.187 40.709 80.568 47.711 81.612 54.612Z" fill="#B77548"/>
<path d="M143.203 50.659L142.052 50.293L142.831 42.457L144.061 42.58L143.48 48.413C144.424 47.5959 145.592 47.0824 146.832 46.9397C148.073 46.797 149.327 47.0316 150.432 47.613L149.857 48.713C148.712 48.111 147.378 47.9777 146.136 48.3412C144.894 48.7047 143.843 49.5365 143.203 50.661V50.659Z" fill="black"/>
<path d="M102.999 53.496C102.583 53.4927 102.175 53.3898 101.807 53.196C101.518 53.0577 101.26 52.8632 101.047 52.6238C100.834 52.3845 100.671 52.1051 100.567 51.802C100.41 51.0226 100.429 50.2179 100.624 49.447L102.603 38.653L103.819 38.876L101.84 49.67C101.683 50.2595 101.656 50.8759 101.759 51.477C101.882 51.7517 102.1 51.9724 102.374 52.098C102.529 52.1835 102.701 52.2356 102.878 52.2509C103.054 52.2662 103.232 52.2445 103.4 52.187L103.823 53.348C103.559 53.4449 103.28 53.495 102.999 53.496Z" fill="black"/>
<path d="M106.82 59.012C106.579 59.0119 106.339 58.9968 106.1 58.967L106.258 57.741C106.898 57.8235 107.548 57.7708 108.167 57.5861C108.785 57.4015 109.358 57.0892 109.848 56.6693C110.338 56.2493 110.735 55.7313 111.012 55.1485C111.289 54.5657 111.441 53.9312 111.458 53.286L112.694 53.318C112.654 54.847 112.017 56.2995 110.918 57.3641C109.82 58.4287 108.348 59.0206 106.819 59.013L106.82 59.012Z" fill="black"/>
<path d="M112.863 40.781C112.891 41.736 113.429 42.493 114.063 42.474C114.697 42.455 115.19 41.667 115.163 40.714C115.136 39.761 114.597 39.002 113.963 39.021C113.329 39.04 112.835 39.828 112.863 40.781Z" fill="black"/>
<path d="M92.85 39.451C92.88 40.404 93.418 41.161 94.05 41.144C94.682 41.127 95.179 40.337 95.15 39.384C95.121 38.431 94.582 37.672 93.95 37.689C93.318 37.706 92.822 38.496 92.85 39.451Z" fill="black"/>
<path d="M92.296 34.286C91.6503 34.3481 90.9991 34.3174 90.362 34.195C89.308 33.841 89.362 33.038 90.394 32.556C91.6014 32.1105 92.8802 31.8899 94.167 31.905C95.0859 31.796 96.0175 31.9085 96.884 32.233C97.0269 32.2927 97.1523 32.3876 97.2487 32.5088C97.345 32.63 97.4092 32.7736 97.4352 32.9262C97.4613 33.0788 97.4483 33.2356 97.3976 33.3819C97.3469 33.5281 97.26 33.6592 97.145 33.763C96.086 34.874 93.803 34.282 92.296 34.286Z" fill="black"/>
<path d="M116.545 35.698C117.178 35.8359 117.828 35.8824 118.475 35.836C119.563 35.611 119.6 34.806 118.637 34.205C117.492 33.6193 116.248 33.2489 114.969 33.112C114.069 32.8933 113.13 32.8933 112.23 33.112C112.081 33.1545 111.946 33.2338 111.836 33.3427C111.726 33.4516 111.645 33.5864 111.602 33.7348C111.558 33.8831 111.552 34.0401 111.585 34.1912C111.618 34.3423 111.689 34.4826 111.791 34.599C112.706 35.835 115.045 35.516 116.545 35.698Z" fill="black"/>
<path d="M148.853 19.782C147.399 21.1807 145.569 22.1253 143.586 22.5C141.604 22.8748 139.555 22.6635 137.691 21.892C135.907 21.0907 134.354 19.8522 133.176 18.2913C131.998 16.7304 131.233 14.8975 130.951 12.9622C130.669 11.0269 130.881 9.05191 131.565 7.21999C132.25 5.38806 133.385 3.75846 134.867 2.48203C136.324 1.27363 138.077 0.475879 139.945 0.171067C141.814 -0.133745 143.729 0.0654149 145.495 0.748017C152.341 3.56202 153.917 14.629 148.853 19.782Z" fill="black"/>
<path d="M183.226 19.484C182.879 17.4922 181.95 15.648 180.555 14.1844C179.161 12.7208 177.363 11.7037 175.39 11.2616C173.418 10.8195 171.358 10.9724 169.472 11.7008C167.586 12.4292 165.959 13.7005 164.795 15.354C163.632 17.0074 162.985 18.9686 162.936 20.9897C162.888 23.0109 163.439 25.001 164.522 26.7086C165.604 28.4162 167.168 29.7645 169.017 30.583C170.865 31.4015 172.915 31.6535 174.907 31.307C176.23 31.077 177.494 30.5887 178.628 29.87C179.762 29.1513 180.743 28.2164 181.515 27.1185C182.288 26.0206 182.836 24.7813 183.13 23.4714C183.423 22.1615 183.456 20.8066 183.226 19.484Z" fill="#FED766"/>
<path d="M185.248 49.605C181.576 49.6035 178.043 48.2007 175.37 45.6828C172.697 43.1648 171.085 39.7217 170.865 36.0562C170.644 32.3907 171.831 28.7791 174.182 25.9587C176.534 23.1384 179.873 21.3218 183.519 20.8798C187.164 20.4378 190.841 21.4038 193.798 23.5805C196.756 25.7572 198.771 28.9806 199.433 32.5927C200.095 36.2047 199.353 39.9331 197.359 43.0168C195.365 46.1006 192.269 48.3071 188.704 49.186C187.573 49.4639 186.413 49.6045 185.248 49.605ZM185.274 22.04C182.536 22.0407 179.866 22.8953 177.637 24.4848C175.407 26.0743 173.729 28.3195 172.836 30.9077C171.942 33.496 171.878 36.2984 172.653 38.9247C173.427 41.551 175.001 43.8704 177.156 45.5598C179.311 47.2493 181.939 48.2247 184.674 48.3502C187.409 48.4757 190.116 47.745 192.416 46.26C194.716 44.7749 196.496 42.6094 197.508 40.0651C198.52 37.5207 198.713 34.7242 198.06 32.065C197.355 29.2057 195.713 26.6648 193.396 24.8478C191.078 23.0308 188.219 22.0423 185.274 22.04Z" fill="black"/>
<path d="M43.705 77.94L43.023 77.175L50.246 49.075L51.334 48.852L70.301 73.401L69.896 74.392L43.705 77.94ZM51.128 50.609L44.448 76.592L68.669 73.313L51.128 50.609Z" fill="black"/>
<path d="M173.467 148.827C173.467 148.827 155.726 127.956 154.682 127.608C153.638 127.26 121.288 124.128 121.288 124.128C121.288 124.128 141.115 226.752 187.388 204.487C228.861 184.529 171.266 98.571 164.888 96.387C158.51 94.203 131.797 93.682 131.797 93.682C131.797 93.682 114.616 109.754 99.516 95.371C99.516 95.371 73.284 95.252 68.066 99.427C62.848 103.602 27.712 207.963 27.712 207.963H175.747" fill="#FC7753"/>
<path d="M117.644 97.9161C117.434 97.059 117.356 96.1747 117.413 95.2941C117.446 94.8545 117.578 94.4281 117.8 94.047C118.021 93.6659 118.326 93.3401 118.692 93.0941C119.316 92.8242 120.01 92.7611 120.673 92.914C121.335 93.067 121.931 93.4279 122.374 93.9441C123.709 95.2851 124.254 97.1951 124.883 98.9781C125.512 100.761 126.39 102.63 128.059 103.526C128.835 103.887 129.682 104.069 130.537 104.057C131.392 104.046 132.234 103.842 133 103.461C134.505 102.757 135.765 101.619 136.617 100.194C137.469 98.768 137.876 97.1197 137.783 95.4611C137.736 94.5263 137.484 93.6133 137.043 92.7878C136.601 91.9622 135.983 91.2445 135.232 90.6861C133.69 89.6341 131.732 90.0391 129.932 90.5181C128.471 90.9061 127.059 90.8301 126.472 89.9181C126.203 89.3838 126.08 88.7882 126.116 88.1912C126.151 87.5943 126.343 87.0172 126.672 86.5181C127.377 85.2781 128.461 84.2968 129.765 83.7181C131.358 82.9347 133.127 82.5765 134.9 82.6783C136.673 82.7801 138.389 83.3384 139.882 84.299C141.375 85.2597 142.595 86.5901 143.423 88.1611C144.25 89.7321 144.657 91.4903 144.605 93.2651C147.134 87.4001 151.249 79.2571 154.268 80.2081C157.893 81.3511 154.96 93.8261 152.619 101.973C155.075 96.0781 159.743 86.4531 163.538 87.8861C169.298 90.0651 154.782 127.503 154.782 127.503L152.093 134.434L121.293 124.14C120.481 119.953 118.451 102.095 117.644 97.9161Z" fill="#B77548"/>
<path d="M118.065 105.045C117.581 101.381 117.252 99.1541 117.037 98.0351C116.814 97.1162 116.734 96.1683 116.8 95.2251C116.842 94.6899 117.007 94.1716 117.281 93.71C117.555 93.2483 117.931 92.8556 118.38 92.5621L119.005 93.6261C118.721 93.8243 118.486 94.0841 118.316 94.3861C118.147 94.6881 118.047 95.0244 118.026 95.3701C117.979 96.1874 118.055 97.0072 118.251 97.8021C118.471 98.9451 118.803 101.195 119.291 104.883L118.065 105.045Z" fill="black"/>
<path d="M153.209 102.132L152.021 101.79C157.321 83.369 154.936 81.057 154.079 80.79L154.451 79.6121C159.25 81.1231 154.704 96.9361 153.209 102.132Z" fill="black"/>
<path d="M145.223 93.262L143.987 93.246C144.037 91.5769 143.655 89.9231 142.878 88.4452C142.1 86.9673 140.954 85.7155 139.55 84.8114C138.146 83.9072 136.532 83.3814 134.865 83.285C133.198 83.1886 131.534 83.5248 130.035 84.261C128.854 84.7881 127.869 85.6746 127.221 86.794C126.957 87.2034 126.798 87.6718 126.758 88.1575C126.718 88.6432 126.8 89.1312 126.994 89.578L125.956 90.248C125.623 89.6241 125.462 88.9223 125.491 88.2154C125.52 87.5085 125.738 86.8223 126.122 86.228C126.885 84.8659 128.067 83.7867 129.493 83.151C131.181 82.322 133.055 81.9432 134.933 82.0511C136.811 82.159 138.629 82.7501 140.211 83.767C141.793 84.784 143.086 86.1923 143.964 87.8556C144.842 89.519 145.276 91.3809 145.223 93.261V93.262Z" fill="black"/>
<path d="M152.665 134.648L151.512 134.199L154.203 127.268C154.235 127.187 157.359 119.107 160.098 110.361C164.867 95.1291 164.529 90.5041 163.904 89.1021C163.855 88.9598 163.777 88.8289 163.676 88.7174C163.575 88.6059 163.452 88.5159 163.315 88.4531L163.752 87.2961C164.042 87.4151 164.305 87.5916 164.526 87.815C164.746 88.0384 164.918 88.3041 165.033 88.5961C167.933 95.1021 155.87 126.382 155.356 127.71L152.665 134.648Z" fill="black"/>
<path d="M140.313 120.01L139.077 119.998C139.033 117.474 138.22 115.023 136.747 112.972C135.274 110.922 133.211 109.369 130.833 108.521L131.219 107.346C133.857 108.259 136.148 109.967 137.777 112.234C139.405 114.502 140.291 117.218 140.313 120.01Z" fill="black"/>
<path d="M173.467 148.827C173.467 148.827 155.726 127.956 154.682 127.608C153.638 127.26 121.288 124.128 121.288 124.128C121.288 124.128 141.115 226.752 187.388 204.487C228.861 184.529 171.266 98.571 164.888 96.387" fill="#FC7753"/>
<path d="M174.55 208.263C170.451 208.249 166.414 207.264 162.769 205.39C150.606 199.278 139.824 183.75 130.72 159.238C126.528 147.835 123.173 136.141 120.681 124.25L121.347 123.516C126.761 124.04 153.821 126.672 154.877 127.024C155.913 127.37 166.967 140.231 173.666 148.111L180.28 145.849L181.091 146.529L179.738 155.318L178.516 155.13L179.716 147.349L173.669 149.415L172.997 149.231C166.44 141.513 155.685 129.074 154.449 128.188C153.1 127.895 134.733 126.056 122.06 124.826C123.652 132.437 136.677 190.892 163.326 204.285C170.81 208.046 178.815 207.927 187.116 203.933L187.652 205.046C183.584 207.095 179.104 208.195 174.55 208.263Z" fill="black"/>
<path d="M86.925 24.514C100.438 26.039 110.493 16.26 110.493 16.26C116.579 35.193 140.148 38.16 140.148 38.16C140.176 36.1595 140.027 34.1604 139.703 32.186C138.836 26.6919 136.571 21.5129 133.126 17.146C130.774 14.1919 127.863 11.7306 124.559 9.9031C121.255 8.07562 117.622 6.91784 113.87 6.49604C112.985 6.40778 112.096 6.36805 111.206 6.37704C110.973 6.37704 110.739 6.38503 110.506 6.39503C109.103 6.44567 107.706 6.61089 106.33 6.88903C106.176 6.91903 106.02 6.95204 105.863 6.98904C101.094 8.00493 96.7326 10.4112 93.33 13.904C91.5063 15.8439 89.9691 18.0344 88.765 20.409C88.207 21.485 87.699 22.596 87.236 23.729C87.127 23.99 87.022 24.251 86.925 24.514Z" fill="black"/>
<path d="M12.192 193.088H75.369L75.369 113.973L12.192 113.973L12.192 193.088Z" fill="#646CE6"/>
<path d="M12.192 122.152L75.369 122.152V113.973H12.192V122.152Z" fill="#9B7EDE"/>
<path d="M24.209 177.337L24.109 176.107C29.9882 175.622 35.5245 173.14 39.7991 169.075C44.0737 165.009 46.8295 159.604 47.609 153.757C45.4151 153.213 43.3858 152.146 41.6948 150.646C40.0038 149.147 38.7017 147.259 37.9 145.146C37.5217 144.124 37.3521 143.036 37.4014 141.946C37.4507 140.857 37.7178 139.789 38.187 138.805C38.4604 138.261 38.848 137.782 39.3232 137.401C39.7985 137.02 40.3503 136.746 40.941 136.598C44.202 135.809 46.974 139.062 48.028 142.684C48.9711 145.958 49.289 149.38 48.965 152.771C49.6229 152.873 50.2885 152.916 50.954 152.901C53.5312 152.8 56.0158 151.913 58.0751 150.36C60.1343 148.807 61.6699 146.662 62.476 144.212L63.656 144.58C62.7682 147.274 61.0787 149.633 58.8136 151.341C56.5484 153.049 53.8157 154.025 50.981 154.137C50.2586 154.154 49.5362 154.107 48.822 153.997C47.9916 160.108 45.1 165.752 40.6257 169.997C36.1514 174.241 30.3623 176.831 24.216 177.338L24.209 177.337ZM41.78 137.737C41.5936 137.736 41.4077 137.756 41.226 137.798C40.803 137.905 40.4085 138.102 40.0699 138.377C39.7313 138.652 39.457 138.998 39.266 139.39C38.4909 141.071 38.4146 142.992 39.054 144.729C39.7742 146.627 40.9388 148.325 42.4502 149.681C43.9617 151.036 45.7759 152.01 47.741 152.52C48.0289 149.328 47.721 146.11 46.833 143.031C45.679 139.055 43.328 137.736 41.78 137.736V137.737Z" fill="white"/>
<path d="M65.586 199.069C67.0278 202.244 68.8498 205.233 71.012 207.969H117.978C120.878 204.293 123.79 200.477 125.023 195.969C126.289 191.336 125.323 185.742 121.456 182.899C120.141 181.932 118.587 181.342 116.962 181.192C115.337 181.042 113.701 181.338 112.232 182.049C110.762 182.759 109.514 183.857 108.622 185.224C107.73 186.591 107.227 188.175 107.168 189.806C106.539 182.426 103.812 175.049 98.592 169.793C93.372 164.537 85.468 161.721 78.292 163.564C71.357 165.346 65.892 171.286 63.78 178.127C61.668 184.968 62.668 192.532 65.586 199.069Z" fill="white"/>
<path d="M139.775 208.305C139.666 208.186 128.82 196.585 121.437 198.665C118.38 199.523 116.278 202.695 115.19 208.091L113.996 208.16C113.921 207.925 106.189 184.708 89.929 185.986L89.829 184.754C104.175 183.647 112.129 200.13 114.447 205.854C115.747 201.164 117.979 198.346 121.101 197.47C129.208 195.196 140.214 206.957 140.679 207.46L139.775 208.305Z" fill="black"/>
</svg>
